<svg width="22" height="22" viewBox="0 0 22 22" fill="none" xmlns="http://www.w3.org/2000/svg">
<path d="M18.3333 0H3.66667C1.64175 0 0 1.64175 0 3.66667V18.3333C0 20.3582 1.64175 22 3.66667 22H11.4583V14.2083H8.70833V11H11.4583V8.70833C11.4583 5.5 13.2917 3.66667 16.0417 3.66667C17.4776 3.66667 18.3333 4.125 18.3333 4.125V6.875H16.5C15.1892 6.875 14.6667 7.83429 14.6667 8.70833V11H17.875L17.4167 14.2083H14.6667V22H18.3333C20.3582 22 22 20.3582 22 18.3333V3.66667C22 1.64175 20.3582 0 18.3333 0Z" fill="#1A1A1A"/>
</svg>
