<svg width="314" height="50" viewBox="0 0 314 50" fill="none" xmlns="http://www.w3.org/2000/svg">
<path d="M0 0H314V50H0V0Z" fill="#F9FBFF"/>
<g clip-path="url(#clip0_409_4)">
<path d="M117.486 2.69016C115.498 2.69016 113.812 3.22361 112.429 4.28736C111.046 5.35112 109.923 7.09574 109.058 9.52111L107.375 14.4354H108.67L109.772 11.1806C110.377 9.52153 111.048 8.32977 111.782 7.60642C112.56 6.84051 113.532 6.45722 114.698 6.45722C116.254 6.45722 117.356 7.07402 118.004 8.30763C118.696 9.49904 119.151 10.9888 119.367 12.7759L121.255 28.4616C120.15 30.7067 119.005 32.7905 117.81 34.6673C115.779 37.816 113.812 40.4122 111.911 42.4546C110.009 44.497 108.324 46.0065 106.854 46.9852C106.249 47.4107 105.601 47.7525 104.91 48.0078C104.869 48.021 104.825 48.0293 104.781 48.0391C104.755 48.0519 104.728 48.0647 104.702 48.0781C104.63 48.1686 104.557 48.2592 104.494 48.3566C104.482 48.3758 104.47 48.3954 104.459 48.4151C104.427 48.474 104.384 48.542 104.389 48.6118C104.391 48.6435 104.403 48.6591 104.417 48.6878C104.428 48.7029 104.437 48.7183 104.449 48.7326C104.479 48.7707 104.518 48.8104 104.553 48.8436C104.627 48.9127 104.705 48.9763 104.783 49.0403C104.836 49.0833 104.889 49.1255 104.943 49.1669C105 49.1473 105.057 49.1409 105.113 49.1202C105.116 49.1192 105.12 49.1172 105.123 49.116C105.136 49.1111 105.15 49.1055 105.165 49.1024C106.165 48.73 107.163 48.1743 108.152 47.4332C109.795 46.2843 111.5 44.6879 113.272 42.6455C115.087 40.6034 116.817 38.3487 118.459 35.8807C119.618 34.1095 120.629 32.338 121.508 30.5671L122.608 39.7101C122.824 41.3692 123.213 42.966 123.775 44.4978C124.337 45.9871 125.222 47.2203 126.432 48.1987C127.685 49.1773 129.415 49.6673 131.619 49.6673C133.564 49.6673 135.206 49.1358 136.545 48.0721C137.928 46.9657 139.03 45.2211 139.851 42.8383L141.537 37.9221H140.241L139.139 41.1788C138.577 42.7957 137.907 43.9871 137.129 44.753C136.394 45.4764 135.421 45.8379 134.211 45.8379C132.698 45.8379 131.597 45.2192 130.905 43.9856C130.214 42.7516 129.782 41.2638 129.609 39.5192L127.712 23.7829C128.502 22.0773 129.305 20.4567 130.128 18.966C132.073 15.4772 133.953 12.606 135.768 10.3509C137.583 8.05315 139.183 6.3935 140.565 5.37229C141.214 4.90424 141.862 4.56245 142.51 4.34969C143.202 4.0944 143.958 3.96792 144.779 3.96792C144.866 3.96792 144.952 3.98979 145.039 4.03215C145.125 4.03215 145.189 4.05175 145.232 4.09449C144.411 4.56255 143.719 5.22246 143.157 6.07347C142.851 6.53733 142.631 7.00912 142.479 7.48563C142.724 7.49995 142.968 7.5266 143.212 7.54405C143.042 6.51879 143.791 5.60929 145.195 5.60404C145.661 5.60205 146.199 5.70098 146.799 5.92736C147.165 6.06524 147.531 6.20079 147.897 6.3364C147.881 6.31303 147.876 6.28811 147.879 6.26629C147.822 6.24179 147.762 6.21793 147.707 6.18831C147.627 6.14523 147.613 6.09306 147.628 6.05002C147.6 5.99306 147.635 5.93374 147.709 5.92537C147.738 5.92238 147.771 5.92736 147.81 5.94308C147.828 5.95025 147.847 5.95741 147.865 5.96457C147.839 5.92725 147.881 5.90991 147.897 5.88078C147.893 5.88021 147.889 5.88103 147.885 5.87878C147.712 5.85692 147.712 5.71527 147.838 5.68595C147.7 5.62862 147.71 5.50122 147.818 5.48531C147.838 5.48232 147.863 5.48946 147.889 5.49512C147.867 5.46345 147.845 5.43089 147.822 5.39968C147.759 5.3131 147.78 5.24951 147.828 5.22049C147.808 5.21446 147.787 5.20993 147.767 5.20503C147.616 5.16923 147.611 5.06018 147.693 5.02C147.691 5.01991 147.689 5.02009 147.687 5.02C147.684 5.01977 147.68 5.0203 147.677 5.02C147.676 5.02039 147.674 5.01965 147.673 5.02C147.671 5.02056 147.67 5.01988 147.669 5.02C147.663 5.023 147.655 5.02803 147.649 5.0318C147.606 5.06233 147.57 5.048 147.57 5.02011C147.554 5.00918 147.53 5.04084 147.54 5.01031C147.55 4.98355 147.574 4.96734 147.597 4.95185C147.605 4.94582 147.582 4.93564 147.595 4.93414C147.601 4.93362 147.608 4.93329 147.615 4.93414C147.619 4.93461 147.623 4.93429 147.627 4.93613C147.648 4.92596 147.672 4.91653 147.694 4.90899C147.725 4.89806 147.755 4.89316 147.787 4.88939C147.802 4.88839 147.816 4.8864 147.831 4.88525C147.855 4.88425 147.88 4.88469 147.904 4.88525C147.942 4.88724 147.978 4.89128 148.015 4.89693C148.037 4.90108 148.06 4.90673 148.082 4.91239C148.105 4.91842 148.126 4.92596 148.147 4.93387C148.168 4.94179 148.188 4.95008 148.207 4.96101C148.222 4.96892 148.238 4.97872 148.252 4.98815C148.266 4.99719 148.278 5.00662 148.29 5.01755C148.301 5.02773 148.313 5.03941 148.323 5.05072C148.334 5.06165 148.345 5.07107 148.355 5.082C148.365 5.09218 148.374 5.10386 148.383 5.11517C148.391 5.12535 148.399 5.13741 148.407 5.14834C148.411 5.15437 148.414 5.16003 148.417 5.16606C148.439 5.18038 148.464 5.19933 148.486 5.21482C148.505 5.22877 148.524 5.24347 148.543 5.25772C148.561 5.27204 148.579 5.28599 148.596 5.30061C148.638 5.33454 148.627 5.37344 148.596 5.37849C148.618 5.3947 148.641 5.40939 148.674 5.43495C148.798 5.53408 148.912 5.64482 149.016 5.76411C149.061 5.81587 149.098 5.87225 149.135 5.9297C149.244 6.10135 149.067 6.21077 148.959 6.03878C148.928 5.98993 148.896 5.94055 148.858 5.89661C148.842 5.87851 148.822 5.86381 148.806 5.84595C148.796 5.86592 148.774 5.87836 148.747 5.87723C148.805 5.94315 148.86 6.01081 148.909 6.08371C148.981 6.19215 148.936 6.27624 148.864 6.2785C148.885 6.31544 148.916 6.3468 148.935 6.38562C148.965 6.44857 148.957 6.50036 148.943 6.53364C148.953 6.53967 148.963 6.54533 148.973 6.55136C148.986 6.5604 149.001 6.56531 149.012 6.57661C149.075 6.63786 149.076 6.66975 149.012 6.74023C149.007 6.74438 149.022 6.75644 149.017 6.75983C149.267 6.85407 149.518 6.94505 149.766 7.04422C149.784 5.90201 149.465 4.8968 148.797 4.03291C148.149 3.13971 146.983 2.69088 145.297 2.69088C143.31 2.69088 141.321 3.43574 139.333 4.92502C137.82 6.20117 136.2 7.98959 134.472 10.2873C132.743 12.5425 131.1 15.0738 129.544 17.8818C128.806 19.2301 128.123 20.5794 127.488 21.9274L126.369 12.6473C126.196 10.9453 125.806 9.35078 125.201 7.86152C124.64 6.3297 123.753 5.09484 122.543 4.15874C121.332 3.18008 119.647 2.69016 117.486 2.69016ZM286.878 3.26476L259.197 41.5605C258.289 42.8796 257.447 43.9445 256.669 44.753C255.848 45.5615 255.113 46.1779 254.465 46.6034C253.773 47.0286 253.103 47.3272 252.455 47.4974L252.13 48.7733C252.822 48.6882 253.536 48.6447 254.271 48.6447C254.962 48.6021 255.827 48.5824 256.865 48.5824C258.031 48.5824 259.262 48.602 260.558 48.6447C261.855 48.6447 263.218 48.6882 264.643 48.7733L264.968 47.4974C263.196 47.4549 261.878 47.1562 261.013 46.6034C260.149 46.0077 259.824 45.0929 260.04 43.8589C260.256 42.5824 261.121 40.9011 262.633 38.8161L267.785 31.6676H283.131L283.703 42.1351C283.789 44.3049 283.4 45.7317 282.536 46.4125C281.671 47.0508 280.2 47.4123 278.126 47.4974L277.867 48.7733C278.774 48.6882 279.984 48.6447 281.497 48.6447C283.01 48.6021 284.609 48.5824 286.294 48.5824C287.634 48.5824 289.039 48.602 290.508 48.6447C291.978 48.6447 293.188 48.6882 294.139 48.7733L294.398 47.4974C293.75 47.4549 293.079 47.1562 292.388 46.6034C291.74 46.0077 291.352 44.9428 291.223 43.411L288.629 3.26476H287.721H286.878ZM26.8598 3.58421L26.5354 4.86196C28.0044 4.90455 29.0623 5.07444 29.7106 5.37228C30.4021 5.62757 30.7693 6.13735 30.8125 6.90326C30.8989 7.62661 30.7264 8.77651 30.2942 10.3509L21.6726 42.0085C21.2408 43.5403 20.7869 44.6883 20.3115 45.4542C19.8797 46.2201 19.2532 46.7299 18.432 46.9852C17.6109 47.2405 16.465 47.4123 14.9957 47.4974L14.6712 48.7733C16.3131 48.7307 18.0433 48.7089 19.8584 48.7089C21.7168 48.6663 23.553 48.6446 25.3681 48.6446C27.1833 48.602 28.8689 48.5822 30.4248 48.5822H34.2489C36.4098 48.5822 38.8524 48.6018 41.5748 48.6446C44.3407 48.6446 46.8251 48.6881 49.0292 48.7731C49.2885 47.1562 49.5915 45.6033 49.9372 44.114C50.283 42.5822 50.5639 41.4125 50.78 40.604C51.0825 39.5828 51.3635 38.6246 51.6228 37.731C51.8821 36.8375 52.141 36.0511 52.4003 35.3703H50.9106C49.8301 38.3063 48.6622 40.6456 47.4089 42.3902C46.1988 44.1344 44.772 45.3913 43.1297 46.1572C41.4875 46.9232 39.4345 47.3045 36.9711 47.3045H32.9531C31.4841 47.3045 30.4021 47.1978 29.7106 46.9851C29.0191 46.7298 28.6318 46.22 28.5454 45.4541C28.5021 44.6882 28.6948 43.5402 29.127 42.0084L37.7506 10.3508C38.1828 8.77639 38.6363 7.62649 39.1117 6.90314C39.5871 6.13723 40.2353 5.62746 41.0564 5.37216C41.8776 5.07432 43.0234 4.90439 44.4928 4.86184L44.8153 3.58409C43.6916 3.62668 42.331 3.67006 40.732 3.71266C39.1761 3.75525 37.5768 3.777 35.9345 3.777C34.0761 3.777 32.3262 3.75513 30.6839 3.71266C29.0849 3.67006 27.8106 3.6268 26.8598 3.58421ZM64.1992 3.58421L63.8094 4.86196C65.2788 4.90455 66.3384 5.07444 66.9866 5.37228C67.6781 5.62757 68.0674 6.13735 68.1539 6.90326C68.2403 7.62661 68.0677 8.77651 67.6355 10.3509L62.2544 30.3918C61.2604 34.0934 60.7427 37.1364 60.6995 39.5192C60.6995 41.9021 61.4119 43.9648 62.8381 45.7094C63.9185 47.0284 65.3654 48.0282 67.1805 48.709C69.0389 49.3472 71.2002 49.6673 73.6636 49.6673C76.3431 49.6673 78.8274 49.1358 81.118 48.072C83.4514 46.9657 85.3986 45.5172 86.9541 43.7304C89.6336 40.5817 91.7508 36.0725 93.3066 30.2009L98.1674 11.7552C98.5996 10.0107 99.0752 8.66913 99.5938 7.73302C100.112 6.75436 100.805 6.05295 101.669 5.62744C102.533 5.20194 103.679 4.94706 105.105 4.86196L105.428 3.58421C104.736 3.6268 103.851 3.67018 102.771 3.71273C101.691 3.75533 100.589 3.77707 99.4652 3.77707C98.3847 3.77707 97.1964 3.75521 95.9002 3.71273C94.6037 3.67014 93.5662 3.62676 92.7883 3.58421L92.4638 4.86196C94.0628 4.94703 95.2288 5.22366 95.9635 5.69173C96.7411 6.11722 97.1749 6.81864 97.2613 7.7973C97.391 8.77561 97.1963 10.1811 96.6777 12.0104L91.621 30.9021C90.7999 34.0509 89.6982 36.8806 88.3152 39.3907C86.9326 41.9011 85.1603 43.8809 82.9994 45.3276C80.8385 46.7318 78.137 47.4332 74.8961 47.4332C72.9081 47.4332 71.3725 47.0499 70.2925 46.284C69.212 45.4755 68.4996 44.3691 68.1539 42.9649C67.8081 41.5182 67.764 39.8365 68.0233 37.922C68.2826 35.9647 68.716 33.8167 69.3211 31.4768L75.0247 10.3509C75.4568 8.77651 75.8903 7.62661 76.3224 6.90326C76.7978 6.13735 77.446 5.62758 78.2672 5.37228C79.0883 5.07444 80.2322 4.90451 81.7016 4.86196L82.0913 3.58421C80.9677 3.6268 79.6271 3.67018 78.0713 3.71273C76.5587 3.75533 74.9814 3.77707 73.3391 3.77707C71.524 3.77707 69.7741 3.75521 68.0886 3.71273C66.4466 3.67014 65.15 3.62676 64.1992 3.58421ZM154.891 3.58421L154.503 4.86196C155.972 4.90455 157.03 5.07444 157.678 5.37228C158.37 5.62757 158.759 6.13735 158.845 6.90326C158.932 7.62661 158.759 8.77651 158.327 10.3509L152.946 30.3918C151.952 34.0934 151.434 37.1364 151.391 39.5192C151.391 41.9021 152.103 43.9648 153.529 45.7094C154.61 47.0284 156.059 48.0282 157.874 48.709C159.732 49.3472 161.894 49.6673 164.357 49.6673C167.036 49.6673 169.521 49.1358 171.811 48.072C174.145 46.9657 176.09 45.5172 177.646 43.7304C180.325 40.5817 182.442 36.0725 183.998 30.2009L188.861 11.7552C189.293 10.0107 189.769 8.66913 190.287 7.73302C190.806 6.75436 191.496 6.05295 192.361 5.62744C193.225 5.20194 194.371 4.94706 195.797 4.86196L196.121 3.58421C195.43 3.6268 194.543 3.67018 193.462 3.71273C192.382 3.75533 191.28 3.77707 190.157 3.77707C189.077 3.77707 187.888 3.75521 186.592 3.71273C185.295 3.67014 184.258 3.62676 183.48 3.58421L183.155 4.86196C184.754 4.94703 185.922 5.22366 186.657 5.69173C187.435 6.11722 187.866 6.81864 187.953 7.7973C188.082 8.77561 187.888 10.1811 187.369 12.0104L182.312 30.9021C181.491 34.0509 180.39 36.8806 179.007 39.3907C177.624 41.9011 175.852 43.8809 173.691 45.3276C171.53 46.7318 168.829 47.4332 165.588 47.4332C163.6 47.4332 162.066 47.0499 160.986 46.284C159.905 45.4755 159.191 44.3691 158.845 42.9649C158.5 41.5182 158.457 39.8365 158.717 37.922C158.976 35.9647 159.408 33.8167 160.013 31.4768L165.718 10.3509C166.15 8.77651 166.582 7.62661 167.014 6.90326C167.489 6.13735 168.137 5.62758 168.959 5.37228C169.78 5.07444 170.926 4.90451 172.395 4.86196L172.783 3.58421C171.659 3.6268 170.321 3.67018 168.765 3.71273C167.252 3.75533 165.675 3.77707 164.033 3.77707C162.217 3.77707 160.467 3.75521 158.782 3.71273C157.14 3.67014 155.841 3.62676 154.891 3.58421ZM200.335 3.58421L200.011 4.86196C201.61 4.86196 202.734 5.05363 203.382 5.43656C204.03 5.81952 204.353 6.39251 204.353 7.15842C204.397 7.92433 204.224 8.98926 203.835 10.3509L195.279 42.0085C194.89 43.5403 194.458 44.6883 193.983 45.4542C193.507 46.2201 192.859 46.7299 192.038 46.9852C191.217 47.2405 190.071 47.4123 188.602 47.4974L188.342 48.7733C189.336 48.6882 190.655 48.6447 192.297 48.6447C193.939 48.6021 195.667 48.5823 197.482 48.5823C199.168 48.5823 200.768 48.6019 202.28 48.6447C203.836 48.6447 205.154 48.6882 206.235 48.7733L206.494 47.4974C204.852 47.4548 203.684 47.2633 202.992 46.9228C202.344 46.5399 202.043 45.9649 202.086 45.199C202.129 44.3906 202.322 43.3276 202.668 42.0085L206.654 27.2753C209.852 27.3036 212.26 27.5918 213.82 28.1577C215.462 28.7109 216.497 29.626 216.93 30.9021C217.405 32.1787 217.558 33.8604 217.385 35.945L216.67 43.0934C216.498 44.8806 216.931 46.4335 217.968 47.7526C219.048 49.0291 220.799 49.6673 223.219 49.6673C225.466 49.6673 227.238 49.0291 228.535 47.7526C229.874 46.4335 230.912 44.4752 231.647 41.88L231.906 41.0502H230.414L230.09 41.9442C229.528 43.5612 228.946 44.8158 228.341 45.7094C227.736 46.5604 227.021 47.0069 226.2 47.0494C225.249 47.092 224.645 46.604 224.386 45.5828C224.127 44.5615 224.061 43.3899 224.19 42.0709L224.839 35.5613C224.969 34.0295 224.861 32.7749 224.515 31.7962C224.169 30.775 223.607 29.9451 222.829 29.3069C222.094 28.669 221.145 28.1787 219.978 27.8383C218.855 27.4979 217.556 27.2212 216.087 27.0085C215.545 26.9084 214.969 26.842 214.374 26.7942C216.638 26.4872 218.748 26.0093 220.69 25.3489C224.32 24.0728 227.152 22.3495 229.184 20.1795C231.215 18.0094 232.23 15.4781 232.23 12.585C232.23 9.77666 231.106 7.58322 228.859 6.0092C226.612 4.43483 223.154 3.64846 218.487 3.64846C216.931 3.64846 215.376 3.67032 213.82 3.71269C212.264 3.75528 210.62 3.77703 208.892 3.77703H205.78C204.699 3.73444 203.684 3.71269 202.733 3.71269C201.782 3.6701 200.984 3.62676 200.335 3.58421ZM244.352 3.58421L244.027 4.86196C245.496 4.90455 246.556 5.07444 247.204 5.37228C247.896 5.62757 248.285 6.13735 248.372 6.90326C248.458 7.62661 248.285 8.77651 247.853 10.3509L239.295 42.0085C238.906 43.5403 238.474 44.6883 237.999 45.4542C237.524 46.2201 236.875 46.7299 236.054 46.9852C235.277 47.2405 234.175 47.4123 232.748 47.4974L232.424 48.7733C233.461 48.6882 234.736 48.6447 236.248 48.6447C237.804 48.6021 239.49 48.5823 241.305 48.5823C242.99 48.5823 244.634 48.6019 246.233 48.6447C247.875 48.6447 249.236 48.6882 250.316 48.7733L250.575 47.4974C249.106 47.4124 248.026 47.2405 247.335 46.9852C246.643 46.7299 246.276 46.2201 246.233 45.4542C246.19 44.6883 246.362 43.5403 246.751 42.0085L255.308 10.3509C255.74 8.77651 256.171 7.62661 256.603 6.90326C257.079 6.13735 257.729 5.62758 258.55 5.37228C259.371 5.07444 260.516 4.90451 261.985 4.86196L262.309 3.58421C261.185 3.6268 259.803 3.67018 258.16 3.71273C256.562 3.75533 254.92 3.77707 253.234 3.77707C251.419 3.77707 249.711 3.75521 248.112 3.71273C246.557 3.67014 245.302 3.62676 244.352 3.58421ZM216.866 4.86196C219.502 4.86196 221.403 5.45669 222.57 6.64809C223.78 7.79695 224.386 9.58538 224.386 12.0104C224.386 14.0528 224.061 15.9242 223.413 17.6259C222.808 19.3279 221.856 20.8177 220.56 22.0942C219.307 23.3707 217.665 24.3487 215.634 25.0295C213.646 25.6678 211.269 25.9878 208.504 25.9878H207.002L211.355 9.90287C211.916 7.90336 212.545 6.56341 213.236 5.8826C213.971 5.2018 215.181 4.86196 216.866 4.86196ZM282.049 11.8741L283.06 30.3918H268.703L282.049 11.8741Z" fill="#1A1A1A"/>
<path d="M147.562 4.85446C147.624 5.00719 147.675 5.16392 147.721 5.32185C147.721 5.32484 147.725 5.32384 147.725 5.32085C147.679 5.16269 147.628 5.00574 147.566 4.85282C147.564 4.85013 147.565 4.85083 147.566 4.85282L147.562 4.85446Z" fill="#F9F9F9"/>
<path d="M147.651 5.47354C147.656 5.48749 147.661 5.50143 147.665 5.51534C147.672 5.5421 147.692 5.62457 147.698 5.64809C147.718 5.72917 147.737 5.81036 147.757 5.89151C147.779 5.98235 147.797 6.07405 147.817 6.16534C147.821 6.18231 147.824 6.19965 147.829 6.21642C147.833 6.23074 147.839 6.24469 147.844 6.25879C147.845 6.26177 147.848 6.25978 147.848 6.25779C147.843 6.24384 147.837 6.23027 147.833 6.21591C147.828 6.19932 147.825 6.18199 147.821 6.16484C147.801 6.07347 147.783 5.9818 147.761 5.89093C147.741 5.80974 147.722 5.72855 147.702 5.64751C147.696 5.62376 147.677 5.54137 147.669 5.51449C147.665 5.50017 147.66 5.48622 147.656 5.47232C147.654 5.46941 147.655 5.47032 147.656 5.47232L147.651 5.47354Z" fill="#F9F9F9"/>
<path d="M147.329 5.02419C147.351 5.07018 147.37 5.11744 147.389 5.16441C147.416 5.22992 147.442 5.29637 147.47 5.36176C147.484 5.39455 147.496 5.42739 147.507 5.4612C147.52 5.50628 147.53 5.55215 147.542 5.59749C147.553 5.63937 147.562 5.68154 147.574 5.72331C147.585 5.76179 147.592 5.80118 147.6 5.84045C147.607 5.87739 147.613 5.91426 147.619 5.95123C147.623 5.98252 147.626 6.01365 147.628 6.04497C147.63 6.08297 147.633 6.12096 147.633 6.15907C147.633 6.21971 147.633 6.28036 147.632 6.34097C147.631 6.35002 147.631 6.35944 147.631 6.36848C147.622 6.63486 148.004 6.64778 148.013 6.3813C148.014 6.37075 148.014 6.35982 148.014 6.34926C148.015 6.28383 148.015 6.21843 148.015 6.15304C148.015 6.10898 148.012 6.06499 148.01 6.02092C148.007 5.97803 148.003 5.93518 147.997 5.89255C147.99 5.85075 147.983 5.80917 147.976 5.76748C147.967 5.71942 147.957 5.67125 147.943 5.62418C147.932 5.5829 147.923 5.54091 147.911 5.4996C147.898 5.45045 147.888 5.40047 147.873 5.35177C147.858 5.30518 147.842 5.25943 147.823 5.21454C147.795 5.15121 147.771 5.08649 147.744 5.02306C147.723 4.97108 147.702 4.91884 147.678 4.86799C147.566 4.62537 147.217 4.78157 147.329 5.02419Z" fill="#F9F9F9"/>
<path d="M144.728 3.99315C144.69 4.00295 144.613 4.02218 144.535 4.0489C144.456 4.07566 144.375 4.10929 144.306 4.14374C144.237 4.17804 144.179 4.2132 144.109 4.25214C144.039 4.29111 143.957 4.33393 143.875 4.39439C143.792 4.45485 143.709 4.53279 143.639 4.59638C143.569 4.66001 143.513 4.70935 143.453 4.77241C143.394 4.83547 143.332 4.91209 143.281 4.97904C143.23 5.04598 143.191 5.10304 143.138 5.19207C143.085 5.2811 143.019 5.40187 142.973 5.5085C142.928 5.61513 142.903 5.7074 142.861 5.82481C142.82 5.94222 142.762 6.08508 142.71 6.20121C142.658 6.31734 142.611 6.40697 142.584 6.46626C142.556 6.52551 142.547 6.55393 142.504 6.63101C142.461 6.7081 142.385 6.8341 142.31 6.93847C142.235 7.04288 142.161 7.12603 142.095 7.19414C142.029 7.26228 141.971 7.31547 141.922 7.35764C141.873 7.39978 141.834 7.431 141.789 7.46997C141.744 7.50894 141.694 7.55575 141.64 7.6201C141.587 7.68447 141.53 7.76627 141.495 7.82752C141.46 7.88877 141.447 7.92895 141.436 7.97063C141.426 8.01236 141.418 8.0551 141.41 8.1084C141.402 8.1617 141.394 8.22532 141.393 8.27485C141.392 8.32434 141.397 8.35932 141.412 8.40485C141.427 8.45038 141.45 8.50617 141.47 8.54443C141.489 8.58268 141.504 8.6036 141.523 8.62429C141.542 8.64503 141.566 8.66568 141.613 8.69406C141.659 8.72233 141.729 8.75882 141.815 8.79244C141.901 8.82599 142.002 8.85723 142.192 8.88825C142.381 8.91916 142.658 8.95041 142.868 8.97706C143.079 9.00382 143.222 9.02575 143.396 9.0452C143.569 9.0648 143.772 9.08139 143.947 9.09322C144.122 9.10491 144.268 9.11132 144.401 9.11659C144.535 9.12187 144.655 9.12564 144.783 9.12639C144.912 9.127 145.049 9.12436 145.183 9.11772C145.316 9.11132 145.447 9.10076 145.55 9.08908C145.653 9.07739 145.728 9.0642 145.845 9.04291C145.963 9.02142 146.122 8.99161 146.28 8.94939C146.439 8.90718 146.596 8.85264 146.728 8.79809C146.86 8.74355 146.969 8.68901 147.073 8.62414C147.178 8.55924 147.28 8.48393 147.358 8.42098C147.436 8.35804 147.492 8.30742 147.537 8.25623C147.583 8.20504 147.618 8.15314 147.653 8.10504C147.687 8.05695 147.72 8.01289 147.764 7.92604C147.808 7.83916 147.864 7.70935 147.91 7.58282C147.956 7.45629 147.993 7.33296 148.032 7.20631C148.072 7.07967 148.114 6.94981 148.14 6.85385C148.166 6.75785 148.175 6.69551 148.18 6.63328C148.186 6.57105 148.187 6.50866 148.182 6.43931C148.177 6.36992 148.165 6.29329 148.152 6.22642C148.14 6.15956 148.127 6.10245 148.11 6.02646C148.094 5.95048 148.074 5.85568 148.025 5.7103C147.975 5.56489 147.896 5.36881 147.836 5.22471C147.776 5.08062 147.735 4.98834 147.227 4.78992C146.719 4.59147 145.743 4.28763 145.254 4.13552C144.766 3.98339 144.765 3.9835 144.728 3.99315Z" fill="#800000"/>
<path d="M148.242 5.00085C148.269 5.056 148.322 5.16508 148.357 5.25855C148.393 5.35203 148.411 5.42998 148.435 5.50265C148.459 5.57536 148.488 5.64294 148.507 5.70525C148.527 5.76755 148.538 5.82466 148.55 5.89084C148.561 5.95703 148.575 6.03234 148.584 6.09989C148.593 6.16739 148.598 6.22714 148.603 6.30893C148.609 6.39072 148.614 6.4946 148.608 6.61137C148.603 6.72814 148.587 6.85799 148.568 6.9774C148.55 7.09681 148.529 7.20593 148.483 7.34735C148.436 7.48877 148.365 7.66276 148.291 7.82241C148.218 7.98207 148.141 8.12749 148.074 8.24169C148.007 8.35586 147.949 8.439 147.879 8.51808C147.809 8.59716 147.727 8.67251 147.656 8.73086C147.585 8.78924 147.524 8.83078 147.457 8.871C147.39 8.91121 147.316 8.95019 147.232 8.99304C147.147 9.0359 147.052 9.08268 146.967 9.12161C146.881 9.16055 146.804 9.19172 146.732 9.22285C146.659 9.25414 146.591 9.28516 146.533 9.30084C146.475 9.31667 146.428 9.31667 146.398 9.32044C146.367 9.32421 146.356 9.33212 146.346 9.34532C146.335 9.35889 146.328 9.3766 146.326 9.3953C146.324 9.41376 146.328 9.43186 146.338 9.45014C146.349 9.46823 146.364 9.48632 146.707 9.71101C147.05 9.93565 147.72 10.367 148.105 10.6018C148.49 10.8366 148.591 10.8752 148.672 10.9076C148.752 10.94 148.813 10.9661 148.871 10.9828C148.93 10.9998 148.987 11.0073 149.029 11.0111C149.072 11.0149 149.101 11.0149 149.134 11.0096C149.167 11.0043 149.204 10.9938 149.235 10.9802C149.267 10.9667 149.293 10.9497 149.315 10.9334C149.338 10.9172 149.356 10.9017 149.379 10.8809C149.402 10.8602 149.43 10.8341 149.453 10.802C149.476 10.7699 149.494 10.7308 149.517 10.6828C149.539 10.6347 149.566 10.5775 149.584 10.5232C149.602 10.4688 149.613 10.4168 149.62 10.3676C149.626 10.3183 149.629 10.2716 149.623 10.2153C149.618 10.1589 149.603 10.0926 149.584 10.0219C149.565 9.95115 149.541 9.87576 149.524 9.79529C149.507 9.71482 149.496 9.62903 149.489 9.55497C149.481 9.4809 149.478 9.41856 149.476 9.37762C149.475 9.33669 149.476 9.31713 149.477 9.28467C149.479 9.25226 149.48 9.20684 149.49 9.13466C149.5 9.06248 149.518 8.96384 149.533 8.873C149.548 8.78216 149.558 8.69901 149.626 8.46188C149.694 8.22476 149.819 7.83391 149.884 7.601C149.949 7.3681 149.953 7.29271 149.954 7.2246C149.955 7.15649 149.954 7.09547 149.951 7.04417C149.949 6.99287 149.945 6.95137 149.935 6.89491C149.925 6.83849 149.909 6.76706 149.894 6.70475C149.879 6.64241 149.864 6.58919 149.85 6.54113C149.837 6.49307 149.823 6.45033 149.809 6.40551C149.796 6.3607 149.781 6.314 149.765 6.26138C149.75 6.20876 149.732 6.1503 149.722 6.11132C149.711 6.07235 149.707 6.05279 149.699 6.02433C149.691 5.99606 149.679 5.95818 149.673 5.93677C149.666 5.91529 149.665 5.91039 149.58 5.73044C149.495 5.55054 149.326 5.19604 149.085 5.03567C148.843 4.87529 148.529 4.91034 148.372 4.92795C148.215 4.94566 148.216 4.94575 148.242 5.00085Z" fill="#800000"/>
<path d="M141.918 9.2504C141.889 9.27867 141.829 9.33581 141.769 9.39457C141.709 9.45337 141.65 9.51394 141.613 9.55921C141.577 9.60444 141.564 9.63381 141.548 9.66584C141.532 9.69788 141.513 9.7329 141.497 9.78261C141.48 9.83229 141.465 9.89663 141.458 9.95185C141.45 10.0071 141.45 10.0531 141.492 10.1312C141.533 10.2093 141.615 10.3194 141.701 10.387C141.787 10.4546 141.877 10.4803 141.961 10.4911C142.046 10.502 142.126 10.4982 142.224 10.49C142.322 10.4817 142.438 10.4689 142.539 10.4579C142.639 10.447 142.725 10.4376 142.808 10.424C142.891 10.4101 142.971 10.392 143.061 10.3762C143.15 10.3608 143.249 10.3476 143.354 10.3358C143.458 10.3238 143.568 10.3128 143.685 10.3019C143.801 10.291 143.924 10.2797 144.042 10.2699C144.159 10.2597 144.271 10.2506 144.357 10.2431C144.443 10.2356 144.503 10.2303 144.535 10.2231C144.567 10.216 144.572 10.2069 144.569 10.1881C144.566 10.1692 144.553 10.1397 144.529 10.1111C144.505 10.0825 144.469 10.0549 144.438 10.0293C144.406 10.0036 144.378 9.9797 144.352 9.9549C144.325 9.93002 144.301 9.90451 144.281 9.87805C144.26 9.85166 144.243 9.82392 144.228 9.79727C144.213 9.77051 144.2 9.74484 144.189 9.72573C144.178 9.70651 144.169 9.69332 144.151 9.6695C144.133 9.64575 144.107 9.61077 144.082 9.58491C144.057 9.55891 144.033 9.54255 143.678 9.48348C143.322 9.42442 142.636 9.32341 142.292 9.27282C141.948 9.22224 141.948 9.2219 141.918 9.2504Z" fill="#800000"/>
<path d="M144.641 9.5232C144.658 9.52734 144.693 9.53488 144.854 9.53224C145.014 9.52947 145.302 9.51641 145.461 9.50736C145.621 9.49832 145.653 9.49304 145.864 9.62994C146.075 9.7668 146.465 10.0447 146.7 10.2096C146.935 10.3745 147.014 10.4264 147.102 10.4849C147.191 10.5433 147.288 10.6082 147.389 10.6757C147.489 10.7433 147.592 10.8134 147.706 10.8808C147.821 10.9483 147.948 11.0132 148.069 11.0755C148.19 11.1378 148.307 11.1976 148.372 11.2432C148.438 11.2889 148.454 11.3201 148.467 11.3461C148.48 11.3721 148.491 11.3929 148.498 11.4266C148.506 11.4601 148.511 11.507 148.516 11.5473C148.522 11.5875 148.527 11.6213 148.529 11.6523C148.532 11.6833 148.532 11.7121 148.529 11.7418C148.526 11.7716 148.521 11.8027 148.516 11.8287C148.511 11.8547 148.506 11.8753 148.498 11.9038C148.49 11.9324 148.479 11.9687 148.469 12.005C148.458 12.0412 148.448 12.0778 148.433 12.1167C148.418 12.1557 148.4 12.1971 148.382 12.2255C148.363 12.2537 148.345 12.2693 148.315 12.2875C148.285 12.3056 148.242 12.3264 148.206 12.3407C148.169 12.355 148.137 12.3629 148.099 12.3667C148.061 12.3708 148.016 12.3708 147.953 12.358C147.89 12.3452 147.808 12.3193 147.693 12.2546C147.578 12.1898 147.431 12.086 147.234 11.9367C147.038 11.7874 146.792 11.5926 146.497 11.3537C146.201 11.1147 145.856 10.8317 145.531 10.5266C145.207 10.2215 144.904 9.89426 144.755 9.72244C144.607 9.5506 144.615 9.53522 144.619 9.52723C144.623 9.51931 144.623 9.51943 144.641 9.5232Z" fill="#800000"/>
<path d="M143.391 10.7745C143.467 10.7735 143.62 10.7715 143.772 10.7621C143.924 10.7527 144.075 10.7361 144.204 10.7263C144.333 10.7161 144.439 10.7127 144.549 10.7025C144.659 10.6924 144.773 10.6758 144.841 10.6667C144.909 10.6573 144.932 10.6554 144.955 10.6554C144.978 10.6555 145.003 10.6575 145.037 10.6765C145.072 10.6954 145.117 10.7303 145.176 10.778C145.236 10.8258 145.31 10.8864 145.386 10.9488C145.462 11.0112 145.538 11.0755 145.61 11.1343C145.682 11.193 145.749 11.2463 145.813 11.3023C145.877 11.3584 145.939 11.4172 146 11.4666C146.06 11.5161 146.12 11.5565 146.17 11.5886C146.221 11.6207 146.262 11.6445 146.295 11.6629C146.327 11.6814 146.351 11.6942 146.373 11.7061C146.394 11.7181 146.413 11.7291 146.42 11.74C146.427 11.7509 146.423 11.7618 146.391 11.7863C146.36 11.8108 146.3 11.8494 146.223 11.8907C146.146 11.932 146.05 11.9761 145.981 12.0055C145.913 12.0349 145.87 12.0496 145.804 12.0762C145.739 12.1029 145.651 12.1413 145.569 12.1689C145.487 12.1964 145.411 12.213 145.348 12.2241C145.284 12.235 145.234 12.2407 145.176 12.238C145.118 12.2354 145.053 12.2244 144.968 12.2097C144.883 12.195 144.779 12.1766 144.675 12.152C144.57 12.1271 144.466 12.0961 144.367 12.0604C144.268 12.0246 144.175 11.9842 144.079 11.932C143.983 11.8797 143.884 11.8155 143.794 11.7285C143.704 11.6414 143.624 11.5312 143.549 11.4192C143.473 11.3072 143.402 11.1933 143.358 11.1117C143.314 11.03 143.297 10.9804 143.294 10.9296C143.291 10.8788 143.302 10.8275 143.308 10.8014C143.314 10.7754 143.313 10.7753 143.391 10.7745Z" fill="#800000"/>
<path d="M145.174 3.74152C145.09 3.84921 144.999 3.9523 144.899 4.04574C144.871 4.07137 144.842 4.0956 144.813 4.12052C144.788 4.14163 144.762 4.1627 144.737 4.18384C144.53 4.35553 144.777 4.64383 144.984 4.47211C145.012 4.44837 145.04 4.42485 145.069 4.4011C145.103 4.37132 145.137 4.34226 145.17 4.31154C145.226 4.2593 145.297 4.18509 145.348 4.12798C145.392 4.07853 145.454 4.00371 145.492 3.94777C145.506 3.92667 145.517 3.90349 145.529 3.88144C145.63 3.63399 145.274 3.49406 145.174 3.74152Z" fill="#800000"/>
<path d="M144.694 4.47568C144.788 4.4346 144.881 4.39181 144.969 4.33953C144.997 4.32295 145.024 4.30486 145.052 4.28729C145.13 4.23313 145.2 4.16939 145.265 4.10064C145.279 4.08556 145.293 4.06973 145.307 4.05416C145.485 3.85345 145.196 3.60546 145.018 3.80619C144.965 3.86661 144.909 3.92451 144.843 3.97147C144.823 3.98429 144.804 3.99823 144.783 4.01018C144.705 4.05684 144.622 4.09476 144.538 4.13125C144.291 4.2395 144.446 4.58392 144.694 4.47568Z" fill="#800000"/>
<path d="M144.891 3.92568C144.857 3.97076 144.813 4.00736 144.77 4.04343C144.739 4.06793 144.709 4.09258 144.678 4.11723C144.657 4.13419 144.681 4.16329 144.703 4.14626C144.733 4.12138 144.764 4.09688 144.795 4.07204C144.841 4.03386 144.886 3.99496 144.922 3.94713C144.938 3.92527 144.906 3.90367 144.891 3.92568Z" fill="#800000"/>
<path d="M144.825 3.91902C144.808 3.95596 144.779 3.98536 144.75 4.01295C144.737 4.02501 144.722 4.03631 144.708 4.04687C144.686 4.06308 144.709 4.09304 144.731 4.07702C144.746 4.06534 144.762 4.05328 144.776 4.04009C144.809 4.0088 144.841 3.97567 144.86 3.93394C144.87 3.90944 144.835 3.89433 144.825 3.91902Z" fill="#800000"/>
<path d="M144.823 3.93557C144.787 3.97405 144.744 4.00598 144.701 4.03783C144.679 4.05404 144.703 4.084 144.724 4.06798C144.768 4.03481 144.813 4.00127 144.852 3.96094C144.87 3.94096 144.841 3.91586 144.823 3.93557Z" fill="#F9F9F9"/>
<path d="M144.715 4.04605C144.761 4.03211 144.804 4.0125 144.847 3.99411C144.869 3.98506 144.891 3.97602 144.912 3.96773C144.938 3.95793 144.924 3.92295 144.899 3.93268C144.876 3.94172 144.854 3.95001 144.832 3.95943C144.79 3.97715 144.748 3.99637 144.704 4.00991C144.678 4.01782 144.689 4.05363 144.715 4.04605Z" fill="#F9F9F9"/>
<path d="M144.753 4.02414C144.78 4.00944 144.807 3.99436 144.835 3.98008C144.849 3.97292 144.842 3.97708 144.855 3.96915C144.879 3.95558 144.859 3.92316 144.836 3.93635C144.824 3.94351 144.831 3.93935 144.817 3.94653C144.789 3.96085 144.762 3.97631 144.734 3.9912C144.71 4.00439 144.729 4.03733 144.753 4.02414Z" fill="#F9F9F9"/>
<path d="M144.744 4.025C144.764 4.01407 144.786 4.0054 144.806 3.99485C144.816 3.98881 144.824 3.98429 144.834 3.97826C144.837 3.97627 144.841 3.97411 144.844 3.9711C144.867 3.95678 144.846 3.92504 144.824 3.93944C144.821 3.94143 144.816 3.94358 144.814 3.94547C144.806 3.95037 144.797 3.95602 144.789 3.96055C144.769 3.9711 144.749 3.97939 144.729 3.98995C144.704 4.00088 144.72 4.03597 144.744 4.025Z" fill="#800000"/>
<path d="M133.192 3.75959L133.192 4.11659L133.069 4.11328L133.066 4.39866L133.021 4.43393L133.084 4.6499L132.947 4.63072L133.04 4.92624L132.97 4.96268L133.052 5.0729L133.08 5.12861L132.913 5.14584L133.081 5.54816L133.107 5.57085L132.968 5.6051L133.18 5.98691L133.048 5.98589L133.266 6.29381L133.158 6.29165L133.448 6.61085L133.42 6.65636L133.78 7.00163L133.734 7.01306L134.012 7.22426L133.978 7.22775L134.16 7.32767L134.081 7.36642L134.402 7.49458L134.595 7.60132L134.639 7.61949L134.519 7.64917L134.658 7.67747L135.09 7.81689L135.014 7.82605L135.262 7.88037L135.458 7.88017L135.41 7.92109L135.837 7.8877L135.831 7.92292L135.918 7.89668L136.058 7.8863C136.058 7.8863 136.09 7.85893 136.127 7.84985C136.164 7.84072 136.32 7.81669 136.32 7.81669L136.266 7.8782L136.359 7.85537L136.39 7.84287L136.758 8.27797L137 8.58471L137.119 8.56981L136.59 7.86086L136.537 7.7438L136.524 7.61193L136.591 7.48909L136.74 7.11943L136.731 7.08307C136.792 6.75421 136.792 6.7542 136.792 6.7542L136.819 6.64616L136.771 6.63361L136.757 6.2607L136.75 6.09357L136.693 6.09818L136.632 5.69803L136.598 5.71623L136.441 5.2434L136.391 5.23669L136.326 5.21393L136.301 5.15256L136.261 5.05141L136.187 4.89117L136.169 4.85701L136.092 4.70246L136.053 4.76504L135.943 4.53662L135.872 4.40934" fill="#008000"/>
<path d="M135.685 4.36318L135.409 4.0131C135.409 4.0131 135.377 3.98344 135.378 3.99503C135.38 4.00663 135.35 4.1097 135.35 4.1097L135.005 3.77657L134.95 3.75442L134.961 3.7858C134.961 3.7858 134.976 3.81113 134.972 3.82563C134.969 3.84015 134.956 3.86229 134.953 3.87147C134.95 3.88074 134.929 3.9044 134.929 3.9044L134.758 3.72317L134.744 3.71809L134.733 3.76873L134.711 3.80823L134.451 3.65933L134.377 3.62635L134.407 3.69389C134.407 3.69389 134.4 3.74179 134.39 3.74939C134.38 3.75706 134.364 3.76949 134.364 3.76949C134.364 3.76949 134.308 3.69795 134.301 3.69113C134.294 3.68421 134.172 3.63092 134.145 3.62054C134.118 3.61017 134.094 3.59888 134.072 3.59407C134.05 3.58926 134.034 3.58806 134.034 3.58806L134.013 3.59174L134.056 3.6665L134.052 3.70838C134.052 3.70838 134.046 3.73215 134.033 3.7301C134.02 3.72812 133.998 3.72001 133.986 3.71279C133.973 3.70556 133.901 3.6569 133.901 3.6569L133.801 3.62525L133.784 3.64813L133.806 3.67512L133.804 3.70652C133.804 3.70652 133.669 3.6596 133.658 3.65558C133.646 3.65166 133.581 3.64883 133.567 3.64563C133.552 3.64249 133.559 3.70395 133.559 3.70395C133.559 3.70395 133.566 3.7329 133.563 3.75584C133.56 3.77872 133.558 3.79124 133.549 3.80532C133.541 3.81934 133.52 3.82944 133.52 3.82944L133.501 3.84277L133.669 4.02483L135.685 4.36318Z" fill="#008000"/>
<path d="M139.884 13.4461L139.938 13.0769L140.065 13.0988L140.11 12.8041L140.162 12.7744L140.129 12.5415L140.268 12.5819L140.217 12.2624L140.294 12.2351L140.227 12.1089L140.205 12.0471L140.381 12.0543L140.267 11.613L140.245 11.5858L140.393 11.5711L140.231 11.1444L140.368 11.1653L140.188 10.8142L140.3 10.8327L140.048 10.4591L140.084 10.4163L139.764 10.0053L139.813 10.0004L139.558 9.74034L139.593 9.74174L139.42 9.61122L139.507 9.58291L139.195 9.4023L139.011 9.26301L138.969 9.23767L139.097 9.22496L138.957 9.17483L138.532 8.96601L138.612 8.96794L138.363 8.8745L138.161 8.84536L138.217 8.81033L137.77 8.78077L137.781 8.74526L137.688 8.75942L137.542 8.74925C137.542 8.74925 137.504 8.77272 137.465 8.77655C137.425 8.78046 137.26 8.78198 137.26 8.78198L137.325 8.72635L137.226 8.73613L137.192 8.74437L136.877 8.23936L136.672 7.88579L136.547 7.8834L136.987 8.69574L137.025 8.82481L137.018 8.96314L136.93 9.08005L136.721 9.44009L136.725 9.47904C136.612 9.81004 136.612 9.81004 136.612 9.81004L136.568 9.91771L136.615 9.93774L136.573 10.3255L136.555 10.4994L136.616 10.5033L136.618 10.9261L136.656 10.9125L136.747 11.4249L136.798 11.4394L136.861 11.4726L136.878 11.5398L136.904 11.6504L136.956 11.8272L136.97 11.8652L137.027 12.0367L137.076 11.9777L137.156 12.2305L137.21 12.3727" fill="#008000"/>
<path d="M137.393 12.4485L137.626 12.8517C137.626 12.8517 137.654 12.8871 137.655 12.875C137.655 12.8628 137.702 12.7608 137.702 12.7608L138.007 13.1567L138.062 13.1879L138.055 13.1538C138.055 13.1538 138.043 13.1254 138.049 13.1109C138.054 13.0964 138.072 13.0755 138.076 13.0665C138.08 13.0573 138.105 13.0359 138.105 13.0359L138.255 13.2489L138.268 13.2562L138.288 13.2056L138.316 13.168L138.563 13.3609L138.635 13.4061L138.613 13.3317C138.613 13.3317 138.628 13.2833 138.639 13.277C138.651 13.2706 138.67 13.2601 138.67 13.2601C138.67 13.2601 138.717 13.3424 138.723 13.3505C138.729 13.3587 138.847 13.4321 138.874 13.4469C138.9 13.4616 138.923 13.4768 138.945 13.4851C138.967 13.4934 138.983 13.497 138.983 13.497L139.006 13.4964L138.973 13.4127L138.983 13.3699C138.983 13.3699 138.993 13.3463 139.005 13.3503C139.018 13.3543 139.04 13.366 139.052 13.3753C139.064 13.3846 139.131 13.4458 139.131 13.4458L139.23 13.4935L139.251 13.4724L139.232 13.4411L139.239 13.4091C139.239 13.4091 139.371 13.4778 139.383 13.4836C139.394 13.4894 139.46 13.502 139.475 13.5075C139.49 13.513 139.492 13.4484 139.492 13.4484C139.492 13.4484 139.489 13.4174 139.496 13.3942C139.502 13.371 139.506 13.3583 139.517 13.3451C139.528 13.3319 139.551 13.3244 139.551 13.3244L139.572 13.3135L139.426 13.1001L137.393 12.4485Z" fill="#008000"/>
<path d="M104.715 48.095L104.424 48.69L104.849 49.1307L105.409 48.9765L108.05 47.6763C108.05 47.6763 110.848 45.3625 110.915 45.2743C110.982 45.1861 116.936 38.2886 116.936 38.2886L119.42 34.1898L121.099 31.369L121.524 30.5977L121.233 28.4161L118.614 33.4625L115.391 38.1564L113.064 41.1975L110.534 43.886L107.826 46.3541L105.946 47.5221L104.715 48.095Z" fill="#008000"/>
<path d="M144.78 4.03098C144.746 4.04945 144.712 4.06935 144.679 4.09099C144.677 4.09218 144.673 4.09288 144.674 4.09468C144.68 4.10598 144.687 4.11804 144.698 4.12521C144.702 4.1279 144.707 4.12068 144.711 4.11842C144.718 4.11465 144.738 4.10108 144.744 4.09656C144.749 4.09241 144.754 4.08789 144.759 4.08375C144.776 4.06528 144.795 4.04552 144.764 4.02513C144.754 4.0191 144.733 4.02334 144.724 4.02435C144.712 4.02655 144.703 4.02795 144.692 4.03114C144.674 4.03642 144.667 4.04245 144.707 4.06582C144.714 4.06901 144.72 4.06129 144.726 4.05865C144.732 4.05616 144.738 4.05337 144.745 4.05074C144.767 4.04018 144.787 4.04094 144.749 4.00739C144.746 4.0045 144.741 4.01116 144.737 4.01342C144.723 4.02096 144.724 4.01983 144.712 4.02775C144.698 4.03717 144.697 4.03528 144.73 4.06091C144.733 4.06291 144.736 4.05742 144.738 4.05564C144.739 4.05471 144.756 4.04395 144.757 4.04207C144.761 4.03755 144.761 4.03041 144.764 4.02513C144.756 4.01722 144.75 4.00777 144.74 4.00287C144.733 3.99987 144.725 4.00456 144.718 4.00586C144.702 4.00875 144.69 4.01227 144.674 4.01679C144.657 4.02132 144.664 4.02028 144.654 4.02169C144.662 4.03036 144.668 4.03903 144.675 4.0477C144.674 4.0478 144.675 4.04869 144.675 4.0477C144.678 4.04716 144.682 4.0478 144.685 4.04617C144.693 4.04288 144.698 4.03901 144.706 4.03675C144.698 4.02921 144.689 4.02167 144.68 4.01451C144.679 4.01367 144.676 4.01941 144.674 4.02205C144.669 4.02996 144.665 4.03825 144.661 4.04692C144.657 4.05936 144.657 4.07218 144.66 4.08503C144.665 4.09709 144.672 4.10614 144.687 4.10651C144.697 4.10674 144.709 4.09672 144.718 4.09182C144.734 4.08202 144.748 4.07033 144.763 4.05902C144.769 4.0545 144.775 4.04922 144.782 4.04432C144.786 4.04153 144.788 4.04083 144.791 4.03716C144.793 4.03537 144.794 4.03339 144.796 4.03113C144.79 4.02133 144.786 4.00889 144.777 4.00135C144.773 3.99846 144.768 4.00364 144.764 4.00512C144.762 4.006 144.733 4.01907 144.732 4.01907C144.713 4.02736 144.717 4.02585 144.699 4.03339C144.681 4.04168 144.662 4.04545 144.644 4.05186C144.642 4.05296 144.638 4.05296 144.638 4.05525C144.636 4.06581 144.633 4.07749 144.638 4.08692C144.641 4.09257 144.65 4.0906 144.656 4.09106C144.661 4.09148 144.667 4.09023 144.672 4.08957C144.679 4.08862 144.716 4.0824 144.721 4.08165C144.749 4.07637 144.778 4.07298 144.806 4.0628C144.818 4.05866 144.818 4.0579 144.829 4.05225C144.851 4.0417 144.873 4.03604 144.895 4.02737C144.9 4.02558 144.904 4.02322 144.908 4.02134C144.923 4.0138 144.938 4.00589 144.95 3.99533C144.966 3.98139 144.974 3.9697 144.946 3.95123C144.942 3.94864 144.908 3.95915 144.907 3.95915C144.855 3.9746 144.804 3.98968 144.753 4.00804C144.746 4.01073 144.74 4.01643 144.732 4.01907C144.728 4.02076 144.722 4.02005 144.717 4.02123C144.715 4.02211 144.711 4.0218 144.711 4.02382C144.713 4.03588 144.718 4.04885 144.726 4.05865C144.728 4.06184 144.734 4.05683 144.738 4.05564C144.742 4.05424 144.74 4.05235 144.745 4.05074C144.757 4.04621 144.768 4.04457 144.78 4.0408C144.804 4.03364 144.829 4.02686 144.852 4.01517C144.861 4.0099 144.868 4.00311 144.876 3.99671C144.881 3.99294 144.886 3.98917 144.892 3.98577C144.904 3.97635 144.918 3.96919 144.93 3.95977C144.938 3.95298 144.948 3.94431 144.936 3.9315C144.93 3.92434 144.919 3.92471 144.91 3.92471C144.905 3.9246 144.902 3.92848 144.897 3.93074C144.892 3.93354 144.886 3.93678 144.881 3.93941C144.875 3.94241 144.87 3.94544 144.864 3.94846C144.842 3.95939 144.82 3.97032 144.796 3.97598C144.789 3.97797 144.782 3.97957 144.774 3.98201C144.773 3.98247 144.769 3.98216 144.77 3.9835C144.775 3.99519 144.783 4.00536 144.79 4.01629C144.81 4.00536 144.83 3.99368 144.85 3.98124C144.864 3.9722 144.878 3.96315 144.891 3.95146C144.894 3.94987 144.895 3.94619 144.897 3.9443C144.898 3.94384 144.898 3.9443 144.897 3.9443C144.89 3.94472 144.88 3.94969 144.875 3.94562C144.869 3.94148 144.867 3.9313 144.867 3.92338C144.859 3.9313 144.851 3.93808 144.841 3.94298C144.833 3.94538 144.837 3.94146 144.841 3.94298C144.844 3.94396 144.849 3.94622 144.851 3.94853C144.857 3.95493 144.852 3.95682 144.855 3.95569C144.858 3.94966 144.86 3.94174 144.867 3.93797C144.87 3.93741 144.878 3.92968 144.881 3.93081C144.889 3.93361 144.9 3.93368 144.909 3.93577C144.912 3.93776 144.902 3.93457 144.902 3.93208C144.901 3.89702 144.922 3.90117 144.894 3.90155C144.88 3.90254 144.865 3.90424 144.851 3.90758C144.838 3.91248 144.825 3.91738 144.813 3.92379C144.81 3.92558 144.808 3.92728 144.805 3.92906C144.796 3.9366 144.803 3.93206 144.796 3.93811C144.792 3.9414 144.788 3.94414 144.784 3.94753C144.779 3.95281 144.773 3.95846 144.768 3.96374C144.765 3.96643 144.762 3.96864 144.759 3.97128C144.747 3.97919 144.734 3.98447 144.721 3.99088C144.706 3.99804 144.689 4.00294 144.673 4.00935C144.655 4.01576 144.637 4.02065 144.619 4.02668C144.596 4.03422 144.583 4.03649 144.618 4.06894C144.622 4.07233 144.628 4.06694 144.633 4.06565C144.639 4.06405 144.646 4.06226 144.652 4.06075C144.701 4.04529 144.751 4.02984 144.799 4.01092C144.812 4.00413 144.828 3.99886 144.839 3.98831C144.844 3.98454 144.844 3.98227 144.847 3.97813C144.85 3.97059 144.853 3.96398 144.855 3.95569C144.857 3.94551 144.855 3.95099 144.857 3.94571C144.858 3.94006 144.859 3.93591 144.865 3.93252C144.872 3.92611 144.879 3.92385 144.888 3.92159C144.897 3.91929 144.908 3.91909 144.917 3.9192C144.922 3.91951 144.929 3.91992 144.933 3.92334C144.939 3.92862 144.948 3.93201 144.951 3.93917C144.941 3.92598 144.959 3.91882 144.967 3.91505C144.966 3.91405 144.966 3.91161 144.965 3.91062C144.953 3.89931 144.937 3.89365 144.92 3.89064C144.908 3.88864 144.897 3.88924 144.885 3.88969C144.874 3.89001 144.863 3.88942 144.852 3.89109C144.85 3.89158 144.849 3.89191 144.847 3.89258C144.842 3.89477 144.836 3.89748 144.832 3.90125C144.827 3.9054 144.83 3.90577 144.827 3.9054C144.819 3.91218 144.811 3.91859 144.803 3.92575C144.795 3.9348 144.787 3.94271 144.778 3.9495C144.764 3.9593 144.754 3.97324 144.743 3.98568C144.73 3.99774 144.715 4.00792 144.701 4.01885C144.674 4.0392 144.644 4.05503 144.614 4.06996C144.545 4.10501 144.471 4.12899 144.398 4.15337C144.372 4.16167 144.384 4.19759 144.41 4.18918C144.485 4.16431 144.561 4.13954 144.632 4.10362C144.664 4.08741 144.696 4.07045 144.724 4.04859C144.74 4.03615 144.758 4.02447 144.772 4.01037C144.781 4.00019 144.789 3.98851 144.8 3.98021C144.811 3.9723 144.821 3.96325 144.829 3.9527C144.836 3.94667 144.842 3.94252 144.849 3.93649C144.854 3.9329 144.857 3.92971 144.86 3.92782C144.858 3.92662 144.859 3.92751 144.864 3.9275C144.872 3.92748 144.879 3.92741 144.886 3.92721C144.896 3.92691 144.904 3.92626 144.913 3.92752C144.922 3.92922 144.932 3.93205 144.939 3.93846C144.944 3.94222 144.956 3.95316 144.962 3.9524C144.986 3.94872 144.991 3.93846 144.983 3.91848C144.973 3.90642 144.964 3.89888 144.952 3.89059C144.941 3.88493 144.929 3.88116 144.917 3.88154C144.904 3.88144 144.89 3.88198 144.878 3.88523C144.863 3.889 144.85 3.89428 144.839 3.90445C144.828 3.91463 144.823 3.92217 144.82 3.93649C144.819 3.94102 144.819 3.94516 144.818 3.94968C144.817 3.95258 144.816 3.95534 144.815 3.95798C144.806 3.96401 144.795 3.97127 144.785 3.97579C144.738 3.99426 144.69 4.00934 144.642 4.02423C144.636 4.02582 144.631 4.02742 144.625 4.02875C144.622 4.0296 144.616 4.02791 144.615 4.03115C144.609 4.07807 144.613 4.06771 144.632 4.06205C144.65 4.05564 144.667 4.05295 144.685 4.04617C144.702 4.03938 144.723 4.0319 144.739 4.02399C144.754 4.01645 144.77 4.01004 144.784 3.99986C144.793 3.99232 144.802 3.98478 144.81 3.97574C144.817 3.96933 144.826 3.96481 144.832 3.95689C144.835 3.9555 144.837 3.9537 144.84 3.95237C144.847 3.94938 144.854 3.94785 144.861 3.94408C144.872 3.94138 144.884 3.93993 144.896 3.93918C144.898 3.93915 144.92 3.93921 144.921 3.93748C144.936 3.91223 144.938 3.90469 144.916 3.89854C144.907 3.89705 144.897 3.89685 144.888 3.8944C144.868 3.8926 144.86 3.89809 144.845 3.90797C144.843 3.90996 144.84 3.91174 144.837 3.914C144.828 3.92304 144.822 3.938 144.818 3.94968C144.817 3.9576 144.816 3.96036 144.821 3.96903C144.829 3.98335 144.846 3.9826 144.859 3.97657C144.873 3.9694 144.886 3.96036 144.897 3.94905C144.905 3.93888 144.915 3.93058 144.899 3.91475C144.886 3.90231 144.871 3.9189 144.864 3.9275C144.855 3.93805 144.841 3.94441 144.829 3.9527C144.811 3.96439 144.793 3.97183 144.774 3.98201C144.777 3.99445 144.78 4.00672 144.784 4.01878C144.784 4.01939 144.789 4.01649 144.79 4.01629C144.788 4.01683 144.792 4.01577 144.79 4.01629C144.799 4.0136 144.789 4.01703 144.802 4.01388C144.804 4.01347 144.805 4.01297 144.807 4.01248C144.834 4.00569 144.858 3.99439 144.883 3.98157C144.906 3.96951 144.895 3.97517 144.915 3.96386C144.917 3.96276 144.923 3.96226 144.921 3.96047C144.9 3.93484 144.902 3.97027 144.908 3.92956C144.896 3.93899 144.882 3.94539 144.87 3.95519C144.858 3.96386 144.846 3.97328 144.834 3.98195C144.814 3.99288 144.791 3.99778 144.77 4.00494C144.755 4.00947 144.751 4.00852 144.737 4.01342C144.734 4.01462 144.728 4.01875 144.725 4.02002C144.724 4.02037 144.724 4.02342 144.724 4.02435C144.726 4.03641 144.729 4.04479 144.731 4.05685C144.731 4.05751 144.731 4.06073 144.73 4.06091C144.743 4.05714 144.755 4.04949 144.767 4.04308C144.816 4.02499 144.867 4.01029 144.918 3.99513C144.924 3.99344 144.93 3.99195 144.936 3.98986C144.937 3.98943 144.938 3.99116 144.936 3.98986C144.927 3.9548 144.935 3.95723 144.926 3.96553C144.915 3.97382 144.904 3.97974 144.892 3.98577C144.866 3.99784 144.837 4.00435 144.811 4.01792C144.781 4.03375 144.747 4.0379 144.714 4.04355C144.712 4.04395 144.673 4.05033 144.668 4.05109C144.663 4.05165 144.658 4.04969 144.656 4.05239C144.654 4.05408 144.662 4.05428 144.662 4.05653C144.664 4.08631 144.671 4.08541 144.66 4.08503C144.668 4.08213 144.659 4.08538 144.67 4.08216C144.685 4.07801 144.699 4.07312 144.714 4.06708C144.731 4.05992 144.75 4.05062 144.767 4.04308C144.771 4.04128 144.776 4.04279 144.78 4.0408C144.781 4.04048 144.781 4.04147 144.78 4.0408C144.776 4.03063 144.768 4.01492 144.764 4.00512C144.764 4.00462 144.764 4.00469 144.764 4.00512C144.763 4.00595 144.765 4.0085 144.764 4.00919C144.756 4.0156 144.747 4.02201 144.738 4.02842C144.725 4.03897 144.712 4.04915 144.698 4.05819C144.695 4.05999 144.692 4.06168 144.689 4.06347C144.687 4.06457 144.684 4.06497 144.684 4.06686C144.683 4.06806 144.687 4.067 144.688 4.06753C144.691 4.06893 144.694 4.07063 144.697 4.07281C144.698 4.07181 144.699 4.07411 144.697 4.07281C144.695 4.06791 144.697 4.06347 144.698 4.05819C144.701 4.04915 144.707 4.04291 144.711 4.03462C144.713 4.03153 144.718 4.02859 144.717 4.0252C144.712 4.01502 144.701 4.00824 144.693 3.99994C144.685 4.00304 144.677 4.00711 144.669 4.01088C144.665 4.01277 144.661 4.01407 144.658 4.01653C144.653 4.01982 144.641 4.0182 144.642 4.02423C144.643 4.03591 144.656 4.04635 144.662 4.05653C144.677 4.05394 144.69 4.05007 144.705 4.0463C144.712 4.04461 144.718 4.04321 144.725 4.04178C144.73 4.04087 144.737 4.04318 144.738 4.03909C144.739 4.03117 144.731 4.02439 144.728 4.01685C144.73 4.01476 144.736 4.01233 144.735 4.01044C144.732 4.00865 144.731 4.01489 144.728 4.01685C144.725 4.01904 144.72 4.01897 144.717 4.02123C144.715 4.02211 144.711 4.0218 144.711 4.02382C144.722 4.06351 144.717 4.06586 144.731 4.05685C144.742 4.04969 144.741 4.05266 144.755 4.0455C144.758 4.0438 144.767 4.04659 144.767 4.04308C144.764 3.99875 144.761 4.00094 144.745 4.00818C144.74 4.01037 144.733 4.01459 144.728 4.01685C144.722 4.01934 144.717 4.02118 144.711 4.02382C144.706 4.02601 144.697 4.02302 144.696 4.02853C144.692 4.04097 144.695 4.05492 144.697 4.06788C144.697 4.06948 144.7 4.06649 144.702 4.06609C144.711 4.0633 144.72 4.0628 144.73 4.06091C144.734 4.06024 144.737 4.05887 144.742 4.05807C144.743 4.05778 144.746 4.05828 144.746 4.05677C144.747 4.05225 144.743 4.0481 144.743 4.0432C144.743 4.0413 144.747 4.03679 144.746 4.03868C144.742 4.04546 144.739 4.0481 144.734 4.05413C144.729 4.05742 144.726 4.06091 144.723 4.06393C144.718 4.06807 144.7 4.08014 144.693 4.08353C144.69 4.08543 144.683 4.08523 144.684 4.08881C144.686 4.10087 144.692 4.11465 144.698 4.12521C144.698 4.1263 144.701 4.12124 144.702 4.12044C144.733 4.10008 144.765 4.0818 144.797 4.06386C144.821 4.0533 144.805 4.0205 144.78 4.03098Z" fill="#800000"/>
<path d="M144.842 3.96992C144.861 3.95296 144.884 3.94166 144.906 3.92918C144.917 3.92164 144.929 3.91373 144.94 3.90543C144.953 3.89639 144.968 3.88885 144.981 3.8798C144.994 3.87075 145.006 3.85869 145.019 3.84965C145.027 3.84249 145.037 3.83985 145.047 3.83646C145.066 3.8308 145.083 3.82175 145.1 3.81346C145.12 3.80404 145.141 3.79688 145.162 3.79085C145.183 3.78519 145.205 3.78142 145.226 3.77615C145.235 3.77405 145.231 3.77495 145.24 3.77335C145.266 3.76845 145.26 3.73148 145.232 3.73641C145.222 3.73831 145.227 3.73726 145.216 3.73971C145.195 3.74498 145.173 3.74913 145.151 3.75478C145.128 3.76157 145.104 3.76948 145.082 3.78004C145.066 3.78795 145.051 3.79624 145.034 3.80152C145.021 3.80604 145.008 3.81019 144.998 3.81886C144.984 3.82828 144.972 3.83959 144.959 3.84939C144.945 3.85919 144.93 3.8656 144.917 3.8754C144.907 3.88294 144.897 3.88972 144.886 3.89688C144.861 3.91083 144.836 3.92402 144.815 3.94358C144.796 3.96243 144.823 3.98866 144.842 3.96992Z" fill="#800000"/>
<path d="M145.11 3.79662C145.138 3.77702 145.167 3.75931 145.195 3.74012C145.208 3.72881 145.222 3.71751 145.237 3.70921C145.256 3.69904 145.277 3.69301 145.297 3.68811C145.315 3.68358 145.334 3.68019 145.352 3.6768C145.378 3.67152 145.371 3.63466 145.345 3.63986C145.326 3.64355 145.307 3.64702 145.288 3.65155C145.264 3.65758 145.241 3.66436 145.219 3.67604C145.202 3.68509 145.188 3.6964 145.174 3.70884C145.145 3.72806 145.116 3.74578 145.088 3.76556C145.066 3.78102 145.088 3.81226 145.11 3.79662Z" fill="#800000"/>
<path d="M145.316 3.61245C145.297 3.61697 145.279 3.623 145.26 3.62866C145.246 3.6328 145.232 3.63921 145.219 3.64486C145.208 3.64976 145.198 3.65542 145.188 3.66107C145.17 3.67012 145.153 3.68067 145.137 3.69273C145.125 3.70102 145.113 3.71007 145.101 3.71949C145.086 3.7308 145.07 3.73985 145.054 3.74965C145.038 3.75945 145.023 3.77113 145.008 3.78206C144.984 3.7994 144.957 3.81108 144.932 3.8265C144.915 3.83592 144.9 3.84761 144.884 3.85816C144.868 3.86985 144.851 3.88229 144.833 3.89133C144.813 3.90189 144.793 3.91244 144.773 3.92375C144.763 3.93129 144.749 3.93543 144.739 3.94486C144.737 3.94715 144.735 3.94976 144.733 3.9524C144.725 3.96333 144.721 3.97576 144.715 3.98782C144.708 4.00479 144.697 4.01836 144.686 4.03287C144.671 4.05134 144.653 4.06717 144.636 4.08428C144.627 4.09219 144.619 4.10162 144.611 4.11066C144.594 4.13102 144.624 4.15522 144.641 4.13479C144.648 4.12649 144.655 4.11783 144.664 4.11029C144.682 4.09182 144.701 4.07486 144.717 4.05488C144.729 4.03867 144.742 4.02284 144.75 4.004C144.755 3.9942 144.758 3.9844 144.764 3.97535C144.764 3.97306 144.764 3.97476 144.769 3.97166C144.777 3.96525 144.787 3.96224 144.795 3.95621C144.814 3.9449 144.833 3.9351 144.852 3.92492C144.872 3.91512 144.89 3.9023 144.908 3.88949C144.923 3.87931 144.938 3.86801 144.954 3.85858C144.979 3.84237 145.008 3.83069 145.032 3.81252C145.047 3.80197 145.06 3.79104 145.076 3.78199C145.092 3.77144 145.11 3.76164 145.126 3.74958C145.138 3.74053 145.149 3.73111 145.162 3.72319C145.176 3.71226 145.192 3.70284 145.208 3.69455C145.217 3.68965 145.226 3.68437 145.235 3.68022C145.248 3.67494 145.26 3.66967 145.272 3.66552C145.291 3.66025 145.309 3.65422 145.327 3.64969C145.354 3.64328 145.342 3.60597 145.316 3.61245Z" fill="#800000"/>
<path d="M144.672 4.05172C144.674 4.04933 144.677 4.0472 144.679 4.04456C144.696 4.02647 144.681 4.04087 144.698 4.02345C144.706 4.01478 144.716 4.00649 144.724 3.99857C144.739 3.98689 144.753 3.97483 144.765 3.96126C144.771 3.95297 144.781 3.94769 144.79 3.94166C144.802 3.93488 144.815 3.92997 144.828 3.9247C144.845 3.91716 144.864 3.91264 144.882 3.90698C144.903 3.89944 144.925 3.89416 144.947 3.88889C144.97 3.88286 144.993 3.87494 145.017 3.86741C145.041 3.86024 145.066 3.85497 145.091 3.84894C145.115 3.84366 145.138 3.8365 145.161 3.82858C145.178 3.82217 145.196 3.81765 145.212 3.80898C145.236 3.79579 145.217 3.76303 145.194 3.77619C145.191 3.77858 145.193 3.77696 145.186 3.77958C145.173 3.78448 145.16 3.78863 145.148 3.79277C145.126 3.80031 145.104 3.80672 145.082 3.812C145.056 3.81803 145.03 3.82368 145.004 3.83122C144.982 3.83838 144.96 3.84592 144.937 3.85195C144.915 3.8576 144.892 3.86288 144.87 3.87042C144.851 3.87645 144.831 3.88135 144.813 3.88927C144.798 3.89567 144.782 3.90133 144.768 3.91C144.757 3.91753 144.745 3.92432 144.737 3.93525C144.725 3.94807 144.712 3.959 144.698 3.97031C144.688 3.97935 144.678 3.9884 144.669 3.9982C144.636 4.0325 144.678 3.98991 144.652 4.0178C144.65 4.02029 144.647 4.0227 144.644 4.02496C144.625 4.0438 144.653 4.07045 144.672 4.05172Z" fill="#800000"/>
<path d="M127.478 21.7609L127.769 23.9426L129 21.0337L130.074 19.1165L131.954 15.7889L134.058 12.5495L136.61 9.17787L137.013 8.75917L138.871 6.93011L139.363 6.35715L140.661 5.21123L142.877 4.13142L144.578 3.97715L144.682 3.97595L144.793 3.89024L144.876 3.8631L145.078 3.73453L145.193 3.64882L145.299 3.60988H145.394L145.466 3.63702L145.521 3.70325L145.553 3.76167L145.549 3.82009L145.505 3.94086L145.327 4.15122L145.323 4.15913L145.857 4.32276L146.466 4.52531L147.119 4.73956L147.582 4.94604L147.744 5.059L148.223 4.95772L148.259 4.94227L148.405 4.92682L148.591 4.91513L148.698 4.92304L148.884 4.94641L149.121 5.03989L149.082 5.02444L149.2 5.12183L149.402 5.38285L149.517 5.58541L149.564 5.71006L149.596 5.5971L149.323 4.84525L148.916 4.18689L148.306 3.49347L147.308 2.94754L146.245 2.7382L144.958 2.68309L143.917 2.80981L142.921 3.05221L141.03 3.76841L139.855 4.56174L138.534 5.54238L137.259 6.97478L136.106 8.25292L134.595 10.1261L133.476 11.6025L131.467 14.6271L130.169 16.7775L129.204 18.4916L128.349 20.2835L127.478 21.7609Z" fill="#008000"/>
<path d="M145.298 4.28923C145.428 4.30996 145.557 4.3377 145.686 4.36702C145.787 4.39114 145.889 4.41587 145.986 4.45183C146.03 4.46766 146.056 4.4801 146.098 4.49891C146.203 4.54734 146.307 4.59631 146.41 4.64538C146.425 4.65254 146.44 4.6597 146.454 4.66649C146.489 4.68307 146.5 4.6876 146.533 4.70422C146.577 4.72646 146.621 4.75031 146.665 4.77331C146.75 4.8191 146.837 4.86238 146.923 4.90565C146.971 4.92977 147.021 4.9514 147.068 4.97628C147.086 4.9857 147.097 4.99211 147.114 5.00266C147.158 5.03093 147.206 5.05442 147.252 5.08073C147.284 5.10108 147.318 5.11842 147.352 5.1367C147.356 5.13889 147.36 5.14122 147.364 5.14348C147.373 5.14876 147.382 5.15291 147.39 5.15818C147.401 5.16459 147.411 5.17138 147.421 5.17816C147.433 5.18645 147.441 5.19173 147.454 5.20341C147.451 5.20082 147.448 5.19701 147.444 5.1955C147.441 5.1945 147.452 5.20417 147.451 5.20191C147.441 5.19248 147.444 5.19625 147.438 5.18645C147.434 5.18287 147.436 5.18369 147.438 5.18645C147.442 5.19965 147.445 5.20995 147.449 5.22333C147.452 5.23087 147.454 5.23803 147.455 5.24594C147.455 5.24794 147.455 5.25009 147.455 5.25197C147.455 5.25556 147.455 5.25913 147.455 5.2629C147.456 5.30339 147.455 5.34387 147.452 5.38424C147.45 5.39743 147.451 5.39064 147.449 5.40459C147.407 5.66787 147.785 5.72644 147.827 5.46316C147.832 5.43414 147.829 5.44997 147.834 5.41496C147.839 5.35921 147.841 5.30331 147.839 5.24738C147.838 5.22363 147.838 5.21345 147.834 5.18967C147.83 5.16253 147.824 5.13577 147.815 5.10972C147.806 5.08145 147.797 5.05349 147.785 5.02646C147.779 5.01365 147.775 5.00498 147.767 4.99254C147.748 4.96163 147.725 4.93483 147.697 4.91108C147.69 4.90505 147.68 4.89714 147.672 4.89148C147.671 4.89075 147.676 4.89488 147.675 4.89408C147.661 4.88352 147.648 4.87259 147.633 4.86355C147.602 4.84319 147.571 4.82374 147.538 4.80648C147.507 4.78952 147.475 4.77369 147.445 4.75454C147.402 4.72966 147.357 4.70724 147.314 4.68063C147.282 4.6614 147.276 4.65726 147.242 4.6395C147.194 4.615 147.146 4.59314 147.098 4.56947C147.013 4.52722 146.929 4.48504 146.845 4.4403C146.799 4.4158 146.752 4.39051 146.705 4.36672C146.668 4.34825 146.661 4.34562 146.624 4.32805C146.609 4.32051 146.593 4.31298 146.577 4.30544C146.47 4.25482 146.363 4.20431 146.256 4.15455C146.197 4.12892 146.173 4.11724 146.112 4.09519C146.002 4.05516 145.888 4.02651 145.773 3.99968C145.635 3.96839 145.497 3.93828 145.356 3.91634C145.089 3.8768 145.031 4.24969 145.298 4.28923Z" fill="#800000"/>
<path d="M145.362 3.89926C145.361 3.89911 145.357 3.89828 145.358 3.89881C145.365 3.9018 145.372 3.90409 145.379 3.90673C145.392 3.91125 145.403 3.9154 145.416 3.91955C145.461 3.93538 145.507 3.95007 145.552 3.96515C145.598 3.98023 145.643 4.00058 145.687 4.02063C145.71 4.03081 145.733 4.04099 145.756 4.05117C145.821 4.07868 145.884 4.11015 145.947 4.14166C146.023 4.18184 146.101 4.22022 146.178 4.25874C146.262 4.2996 146.342 4.34633 146.421 4.3939C146.493 4.43627 146.563 4.48259 146.63 4.53182C146.678 4.56612 146.724 4.602 146.773 4.63461C146.785 4.64252 146.797 4.65006 146.809 4.65797C146.866 4.69416 146.925 4.72529 146.984 4.75688C147.029 4.78025 147.073 4.80558 147.118 4.82936C147.146 4.84595 147.175 4.86215 147.203 4.88058C147.208 4.88408 147.236 4.90433 147.239 4.90659C147.275 4.93448 147.31 4.96392 147.345 4.99283C147.361 5.00716 147.374 5.01733 147.388 5.02977C147.39 5.03127 147.391 5.03256 147.393 5.03429C147.393 5.03489 147.394 5.03506 147.393 5.03429C147.391 5.0322 147.381 5.02109 147.38 5.02071C147.379 5.02017 147.38 5.01972 147.38 5.02071C147.383 5.03918 147.388 5.06174 147.383 5.08028C147.383 5.08218 147.382 5.08857 147.38 5.09083C147.38 5.09112 147.38 5.09053 147.38 5.09083C147.378 5.09363 147.376 5.09661 147.375 5.09963C147.369 5.11207 147.372 5.1083 147.367 5.11357C147.359 5.12224 147.351 5.13053 147.342 5.13845C147.331 5.14863 147.336 5.14561 147.328 5.15013C147.318 5.15503 147.324 5.15193 147.311 5.15993C147.079 5.29815 147.278 5.62043 147.509 5.48224C147.545 5.46076 147.526 5.47282 147.566 5.44568C147.575 5.43814 147.585 5.4306 147.594 5.42269C147.624 5.39668 147.653 5.36539 147.677 5.33369C147.684 5.32427 147.69 5.3141 147.697 5.3043C147.703 5.29337 147.709 5.28281 147.715 5.2715C147.741 5.22258 147.758 5.16917 147.764 5.11448C147.765 5.10279 147.766 5.09073 147.767 5.07905C147.769 5.01523 147.758 4.95135 147.738 4.89089C147.733 4.87845 147.729 4.86563 147.722 4.85319C147.703 4.8123 147.675 4.77596 147.64 4.74649C147.622 4.73103 147.608 4.71972 147.591 4.70393C147.549 4.67001 147.509 4.63526 147.466 4.60318C147.445 4.58773 147.431 4.57755 147.409 4.56285C147.373 4.53948 147.336 4.51894 147.3 4.49798C147.255 4.47423 147.211 4.44887 147.166 4.42539C147.116 4.399 147.066 4.37292 147.018 4.34261C146.963 4.30718 146.911 4.26761 146.858 4.22893C146.781 4.17289 146.702 4.12034 146.62 4.07195C146.532 4.01937 146.443 3.9678 146.351 3.92257C146.274 3.88416 146.196 3.84591 146.12 3.80588C146.052 3.77158 145.983 3.73769 145.913 3.70784C145.835 3.67278 145.757 3.63585 145.675 3.60856C145.632 3.59386 145.588 3.57991 145.545 3.56502C145.525 3.55824 145.506 3.55107 145.487 3.54429C145.476 3.5406 145.466 3.5375 145.455 3.53374C145.192 3.46909 145.099 3.83462 145.362 3.89926Z" fill="#800000"/>
<path d="M144.955 4.27407C144.956 4.26276 144.96 4.25899 144.967 4.25032C144.972 4.24429 144.976 4.23789 144.98 4.23148C145 4.20622 145 4.20849 145.022 4.18561C145.053 4.15621 145.086 4.12982 145.118 4.10133C145.131 4.08964 145.143 4.07796 145.156 4.06627C145.183 4.04253 145.207 4.01565 145.232 3.98987C145.235 3.98678 145.238 3.98346 145.241 3.98045C145.241 3.98056 145.241 3.98022 145.241 3.98045C145.242 3.9799 145.243 3.97994 145.245 3.97904C145.254 3.97263 145.262 3.96472 145.272 3.95944C145.289 3.94851 145.308 3.94022 145.326 3.93193C145.334 3.92863 145.343 3.9259 145.352 3.92326C145.355 3.92248 145.364 3.91911 145.368 3.91911C145.366 3.91958 145.36 3.92031 145.362 3.92051C145.367 3.92101 145.372 3.91931 145.377 3.91902C145.382 3.91876 145.395 3.91928 145.373 3.91928C145.368 3.92719 145.359 3.91249 145.353 3.91609C145.352 3.91705 145.356 3.91808 145.357 3.91908C145.361 3.92087 145.362 3.92257 145.366 3.92435C145.39 3.93943 145.373 3.9285 145.389 3.93906C145.386 3.93991 145.381 3.93265 145.379 3.93302C145.377 3.93331 145.381 3.93552 145.382 3.93672C145.394 3.95104 145.385 3.93971 145.394 3.95104C145.399 3.96008 145.404 3.96913 145.409 3.97818C145.415 3.98722 145.418 3.99702 145.423 4.0072C145.527 4.25307 145.88 4.10761 145.776 3.86174C145.767 3.83913 145.757 3.81644 145.744 3.79533C145.729 3.76932 145.715 3.74309 145.696 3.71957C145.667 3.68376 145.637 3.64863 145.598 3.62338C145.547 3.59059 145.494 3.55843 145.433 3.54739C145.419 3.54589 145.406 3.5437 145.392 3.54287C145.358 3.54057 145.324 3.54546 145.291 3.55003C145.249 3.55907 145.208 3.57151 145.169 3.58836C145.131 3.60532 145.093 3.62379 145.058 3.64645C145.021 3.67132 144.985 3.69805 144.954 3.73031C144.935 3.75067 144.916 3.77189 144.895 3.79077C144.877 3.8066 144.86 3.82243 144.843 3.83766C144.808 3.86781 144.772 3.89691 144.74 3.92997C144.726 3.94542 144.711 3.9605 144.698 3.97644C144.641 4.04335 144.594 4.12016 144.578 4.20667C144.53 4.46889 144.907 4.5363 144.955 4.27407Z" fill="#800000"/>
</g>
<defs>
<clipPath id="clip0_409_4">
<rect width="281" height="49" fill="white" transform="translate(14 1)"/>
</clipPath>
</defs>
</svg>
