<svg width="56" height="59" viewBox="0 0 56 59" fill="none" xmlns="http://www.w3.org/2000/svg">
<g clip-path="url(#clip0_603_3)">
<path d="M16.719 2.03528C14.3354 2.03528 12.3138 2.67759 10.6561 3.95844C8.99792 5.2393 7.65039 7.33995 6.61416 10.2603L4.59554 16.1775H6.14923L7.47045 12.2585C8.19589 10.2608 8.99954 8.82583 9.88043 7.95485C10.8132 7.03264 11.9777 6.57112 13.3768 6.57112C15.2421 6.57112 16.5632 7.31392 17.3405 8.79916C18.1696 10.2337 18.7158 12.0275 18.9748 14.1793L21.2377 33.0661C20.452 34.6693 19.649 36.2036 18.8273 37.6587C18.8429 37.6515 18.8585 37.6478 18.8733 37.6469C18.9577 37.6428 19.0165 37.7396 18.9364 37.8683C18.9098 37.911 18.9231 37.8901 18.8964 37.9312C18.8533 37.9977 18.8084 38.0631 18.7641 38.1291C18.7129 38.206 18.6638 38.2841 18.6132 38.3613C18.5643 38.434 18.5144 38.5061 18.4657 38.579C18.4207 38.6457 18.3741 38.7117 18.3262 38.7764C18.2844 38.8337 18.2422 38.8906 18.2004 38.9476C18.155 39.0126 18.1098 39.0776 18.0671 39.1446C18.0267 39.2126 17.9886 39.2822 17.9505 39.3515C17.9151 39.4167 17.882 39.483 17.8494 39.5494C17.8122 39.6251 17.7749 39.7007 17.7327 39.7736C17.7033 39.8244 17.6724 39.8743 17.6416 39.9242C17.6146 39.9678 17.587 40.0108 17.5567 40.0518C17.5347 40.084 17.5113 40.1151 17.4889 40.147C17.4265 40.2345 17.3519 40.2522 17.3034 40.2272C17.2383 40.3312 17.1732 40.4352 17.1079 40.5382C15.8724 42.4615 14.6568 44.2128 13.4612 45.7935C13.8437 45.3566 14.215 44.9101 14.5741 44.4539C14.766 44.2111 14.9485 43.9614 15.1344 43.7142C15.4992 43.229 15.9072 43.0228 16.2512 43.0167C16.5509 43.0112 16.8022 43.1581 16.9343 43.4051C17.0035 43.3053 17.0726 43.2049 17.1416 43.1044C17.1123 43.0758 17.104 43.0163 17.1361 42.9309C17.1536 42.8839 17.1851 42.8438 17.2158 42.8047C17.2397 42.7743 17.2646 42.7443 17.2889 42.7142C17.369 42.6184 17.4435 42.5182 17.5147 42.4159C17.5583 42.3512 17.601 42.2856 17.6404 42.2184C17.6772 42.1543 17.7088 42.0875 17.7382 42.02C17.7763 41.9302 17.8165 41.8414 17.8596 41.754C17.9077 41.6602 17.9567 41.5671 18.0043 41.473C18.0554 41.3712 18.1049 41.2686 18.1538 41.1658C18.1969 41.0756 18.2402 40.9851 18.2838 40.8952C18.3305 40.8021 18.3784 40.7097 18.4251 40.6165C18.4731 40.5209 18.5215 40.4256 18.5694 40.3299C18.6174 40.2331 18.6639 40.1352 18.7093 40.0372C18.7534 39.9406 18.7912 39.8416 18.827 39.7417C18.8339 39.7227 18.8389 39.7036 18.8458 39.6845C18.8756 39.5996 18.9279 39.5594 18.9758 39.555C19.0451 39.5487 19.1059 39.6174 19.0768 39.7333C19.1117 39.6759 19.1459 39.6183 19.1807 39.5611C19.2266 39.4882 19.2733 39.4163 19.3197 39.3439C19.3633 39.277 19.4084 39.2108 19.4507 39.1432C19.4791 39.0961 19.5066 39.0489 19.5323 39.0006C19.5649 38.9363 19.5965 38.8715 19.6291 38.8073C19.6593 38.7477 19.6889 38.6877 19.7192 38.6281C19.7509 38.5674 19.7854 38.5085 19.8193 38.449C19.8519 38.3906 19.8864 38.3333 19.9208 38.2759C19.9516 38.2246 19.9817 38.1725 20.0124 38.1211C20.0386 38.077 20.0606 38.0305 20.0827 37.9841C20.1065 37.9304 20.1357 37.8797 20.1623 37.8274C20.1871 37.7789 20.2106 37.7296 20.2344 37.6806C20.2643 37.6183 20.2967 37.5575 20.3274 37.4958C20.3536 37.4461 20.3789 37.3958 20.4014 37.3443C20.4294 37.2774 20.4642 37.2133 20.4973 37.1487C20.5225 37.1002 20.5465 37.0512 20.5727 37.0033C20.5952 36.9597 20.6195 36.9172 20.6434 36.8743C20.6695 36.8268 20.695 36.7789 20.7207 36.7312C20.7519 36.674 20.7849 36.6181 20.817 36.5615C20.845 36.514 20.872 36.4653 20.8977 36.4165C20.9092 36.3965 20.9197 36.3761 20.9312 36.356C20.973 36.2842 21.0269 36.2545 21.0735 36.2547C21.1223 36.2549 21.1622 36.2883 21.1708 36.3405C21.2966 36.0945 21.4206 35.8486 21.5423 35.6027L22.8611 46.6116C23.1202 48.6093 23.587 50.532 24.2606 52.3764C24.9343 54.1695 25.9959 55.6545 27.4463 56.8325C28.9489 58.0108 31.0231 58.6009 33.6657 58.6009C35.9975 58.6009 37.9657 57.9609 39.5721 56.68C41.2301 55.348 42.5512 53.2473 43.5358 50.3782L45.5567 44.4586H44.0031L42.6818 48.38C42.0082 50.3268 41.2046 51.7614 40.2719 52.6836C39.391 53.5546 38.2239 53.99 36.7731 53.99C34.9595 53.99 33.6385 53.2449 32.8094 51.7596C31.9804 50.2738 31.463 48.4823 31.2558 46.3818L28.981 27.4341C29.3826 26.5635 29.7873 25.713 30.195 24.8833C30.1849 24.8616 30.1794 24.8316 30.1803 24.7942C30.1819 24.7267 30.2157 24.6666 30.2467 24.6084C30.2619 24.5826 30.2784 24.5572 30.2947 24.532C30.292 24.5038 30.2997 24.4697 30.3217 24.4316C30.3539 24.3758 30.3819 24.3178 30.4081 24.259C30.4163 24.2399 30.4251 24.2209 30.4329 24.2017C30.4544 24.1491 30.4673 24.1142 30.4884 24.0601C30.5232 23.9711 30.5594 23.8828 30.596 23.7946C30.676 23.6036 30.768 23.418 30.865 23.235C30.9708 23.0389 31.083 22.8466 31.1995 22.6567C31.2321 22.6038 31.2719 22.5793 31.3067 22.5765C31.3278 22.5747 31.3471 22.581 31.3617 22.5933C31.533 22.2693 31.7047 21.9484 31.8774 21.634C32.1775 21.0934 32.4764 20.5661 32.774 20.0505C32.7341 20.0164 32.7209 19.9444 32.7698 19.8544C32.8115 19.7777 32.8538 19.7016 32.8983 19.6264C32.9938 19.4662 33.0925 19.3077 33.1934 19.1508C33.3224 18.9455 33.4492 18.7389 33.5725 18.5302C33.6174 18.4541 33.6618 18.3777 33.7063 18.3013C33.7219 18.2668 33.7384 18.2331 33.7556 18.1995C33.773 18.1655 33.7905 18.1314 33.8082 18.0977C33.8998 17.9273 34.0028 17.7633 34.1081 17.601C34.1498 17.5378 34.1916 17.4745 34.2343 17.412C34.295 17.3124 34.3564 17.213 34.4174 17.1136C34.3981 17.0649 34.4214 16.9965 34.5094 16.9434C34.5067 16.9211 34.5073 16.8954 34.5122 16.8664C34.5228 16.8053 34.5435 16.7466 34.5654 16.6887C34.6012 16.595 34.6532 16.5093 34.7039 16.4232C34.7555 16.3355 34.8134 16.2517 34.8733 16.1694C34.9438 16.0727 35.015 15.9763 35.0873 15.881C35.1713 15.7713 35.2658 15.6705 35.3619 15.5714C35.422 15.4762 35.4826 15.3813 35.545 15.2876C35.562 15.2626 35.5785 15.2377 35.5958 15.213C35.5446 15.0966 35.541 14.9316 35.621 14.7313C35.7033 14.5248 35.8193 14.334 35.9379 14.1464C36.17 13.7943 36.459 13.4845 36.744 13.1745C36.7701 13.1459 36.7967 13.1192 36.8232 13.0961C36.8319 13.0784 36.8411 13.0607 36.8512 13.0436C36.9338 12.9029 37.0431 12.7812 37.1567 12.6646C37.2246 12.5949 37.4333 12.3939 37.4992 12.3301C37.6554 12.1813 37.8045 12.0258 37.949 11.8662C37.8796 11.7485 37.8911 11.56 38.0453 11.3339C38.1649 11.1581 38.2969 10.9899 38.4272 10.8216C38.5905 10.6043 38.761 10.3928 38.9372 10.1856C39.1087 9.9873 39.2883 9.79664 39.4576 9.59644C39.6237 9.39534 39.7949 9.19869 39.9728 9.00777C40.15 8.82378 40.3451 8.65749 40.5392 8.49133C40.6843 8.36716 40.8246 8.31215 40.9434 8.30748C41.0037 8.30511 41.0583 8.31565 41.1052 8.33653C41.3738 8.04243 41.6375 7.76309 41.8965 7.49737C41.8365 7.41881 41.8402 7.2823 41.9644 7.12872C42.0698 6.99819 42.1922 6.88237 42.3149 6.768C42.5296 6.57316 42.7569 6.39244 42.9862 6.21497C43.2718 5.99881 43.5632 5.79049 43.8501 5.57611C44.1069 5.38246 44.3637 5.1883 44.6163 4.98931C44.8136 4.8331 45.0104 4.67625 45.2126 4.52635C45.3744 4.40953 45.5353 4.29171 45.7032 4.18347C45.8968 4.06016 46.0985 3.94996 46.3014 3.84245C46.5198 3.72613 46.7411 3.61557 46.9689 3.51831C47.1873 3.42709 47.4133 3.35547 47.6425 3.29642C47.8408 3.24786 48.0437 3.22572 48.2469 3.2101C48.3332 3.20375 48.4195 3.19785 48.506 3.1974C48.5924 3.19702 48.6791 3.19934 48.7654 3.20162C48.9296 3.20843 49.0935 3.21796 49.2574 3.22794C49.3836 3.17888 49.5115 3.13395 49.6393 3.08911C49.964 2.97996 50.2881 2.86441 50.6218 2.78422C50.6878 2.76833 50.755 2.75699 50.8215 2.74292C50.8944 2.73112 50.9675 2.72386 51.0402 2.72295C51.1614 2.72127 51.2814 2.73611 51.3994 2.775C51.5279 2.81721 51.6762 2.898 51.796 2.95886C51.8652 2.99426 51.934 3.02916 52.0032 3.06438C52.3187 3.22331 52.6437 3.36274 52.9625 3.51468C53.1378 3.59828 53.2002 3.6311 53.3681 3.71683C53.602 3.83578 53.8238 3.97624 54.0541 4.10146C54.0729 4.11054 54.0922 4.11916 54.111 4.12733C54.0003 3.98736 53.8842 3.85157 53.7604 3.72204C53.6239 3.58761 53.5909 3.54886 53.445 3.42745C53.2296 3.24818 52.9931 3.09578 52.7457 2.96355C52.5592 2.86911 52.5093 2.83961 52.3135 2.75855C51.9684 2.61581 51.608 2.51442 51.2428 2.43632C51.1532 2.41907 51.0642 2.40047 50.9742 2.38517C50.7125 2.34115 50.4467 2.31673 50.1815 2.30638C49.972 2.29821 49.8571 2.20014 49.8362 2.09575C49.8178 2.1916 49.7212 2.28664 49.5354 2.32045C49.182 2.38467 48.8299 2.4532 48.4789 2.52872C48.031 2.62453 47.5828 2.72061 47.1415 2.84346C46.5671 3.00367 45.9931 3.17237 45.4412 3.39883C45.2456 3.48584 45.0396 3.56825 44.8738 3.70654C44.662 3.88336 44.4588 3.8683 44.3956 3.75579C43.9019 4.05029 43.4082 4.38261 42.9145 4.75395C42.5814 5.03624 42.244 5.3396 41.9022 5.66347C42.067 5.69342 42.139 5.90623 41.9283 6.12221C41.9017 6.14944 41.8743 6.17654 41.8477 6.20381C41.6583 6.3937 41.4675 6.58218 41.2779 6.77185C41.1045 6.9503 40.9341 7.13148 40.7651 7.31409C40.6547 7.43168 40.5424 7.54763 40.4301 7.66355C40.3307 7.77106 40.2347 7.88121 40.1346 7.98814C39.97 8.16441 39.8026 8.33801 39.6303 8.50692C39.4578 8.68161 39.2852 8.85611 39.1198 9.03743C39.0201 9.14885 38.925 9.26445 38.8342 9.38313C38.7897 9.43881 38.7443 9.49378 38.699 9.54869C38.8794 9.57955 38.9439 9.81224 38.6976 10.0135C38.6429 10.058 38.5893 10.1048 38.5363 10.1515C38.3819 10.2848 38.2252 10.4158 38.0581 10.5333C37.8985 10.6467 37.7364 10.7567 37.5761 10.8691C37.4635 10.9481 37.3605 10.9707 37.2805 10.9564C37.2164 11.041 37.1523 11.1242 37.0879 11.2101C37.0202 11.2988 36.9532 11.3885 36.8858 11.4779C36.967 11.4457 37.0428 11.431 37.1107 11.4301C37.5034 11.4246 37.6406 11.886 37.1382 12.1839C36.9934 12.2695 36.8481 12.3546 36.7174 12.4611C36.6 12.5593 36.5697 12.5792 36.4627 12.6904C36.2809 12.8793 36.1275 13.0927 35.9816 13.3091C35.734 13.6799 35.4962 14.0571 35.2814 14.4476C35.0782 14.8165 34.8741 15.1852 34.6623 15.5494C34.4879 15.8515 34.3078 16.1498 34.1139 16.4401C34.0617 16.5252 34.0129 16.6128 33.9839 16.708C33.8066 17.2892 33.2939 17.2726 33.2286 16.8496C32.6606 17.7695 32.1018 18.7181 31.5516 19.6949C31.6829 19.5581 31.8205 19.4995 31.9382 19.4998C32.2196 19.5006 32.3877 19.835 32.0811 20.2255L31.9477 20.3948C31.6554 20.775 31.3652 21.1589 31.1285 21.5764C30.9507 21.8936 30.7767 22.2134 30.5976 22.53C30.4628 22.7749 30.3284 23.0202 30.2015 23.2692C30.1362 23.4084 30.0715 23.5481 30.0288 23.6961C29.8829 24.2021 29.473 24.2371 29.3262 23.9568C29.1198 24.3798 28.9172 24.8029 28.7189 25.2256L27.3723 14.0278C27.1647 11.978 26.6977 10.0581 25.9723 8.2649C25.2988 6.42049 24.2352 4.93359 22.7843 3.80646C21.3335 2.62809 19.3098 2.03528 16.719 2.03528ZM50.9655 3.81725C50.9411 3.81717 50.9174 3.81764 50.8943 3.81818C50.8306 3.81968 50.7672 3.8259 50.7036 3.82953C50.3206 3.87555 49.9444 3.98252 49.6001 4.15648C49.5265 4.1937 49.4563 4.23681 49.3843 4.27702C49.0413 4.48411 48.7189 4.72111 48.4041 4.96749C48.0774 5.30887 47.7762 5.68786 47.5013 6.1059C47.1342 6.66442 46.8702 7.2325 46.6877 7.80625C46.9815 7.8235 47.2741 7.85558 47.5678 7.8766C47.3633 6.64211 48.262 5.54698 49.9445 5.54066C50.503 5.53826 51.1486 5.65739 51.8683 5.92997C52.3066 6.09599 52.7456 6.2592 53.1847 6.42249C53.165 6.39435 53.1567 6.36435 53.1609 6.33807C53.0916 6.30857 53.0209 6.27948 52.9545 6.24381C52.858 6.19193 52.8418 6.12912 52.8596 6.07729C52.8266 6.00872 52.8683 5.93728 52.9569 5.92721C52.967 5.92613 52.978 5.92685 52.989 5.92815C52.9045 5.70921 52.8333 5.48546 52.7727 5.25879C52.7575 5.18381 52.7346 5.09082 52.7392 5.01299C52.7411 4.98031 52.7447 4.94791 52.7506 4.91636C52.5911 4.81089 52.4434 4.68817 52.2981 4.56409C52.1012 4.39499 51.9216 4.20582 51.7136 4.04953C51.6764 4.02184 51.6373 3.99629 51.5992 3.96979C51.5602 3.94755 51.5225 3.92213 51.4816 3.90366C51.3316 3.83604 51.136 3.81779 50.9655 3.81725ZM52.9442 4.24173C53.0478 4.32311 53.1557 4.39853 53.2735 4.45939C53.3396 4.49298 53.4124 4.53074 53.4803 4.5607C53.5326 4.58384 53.5854 4.60517 53.6388 4.62591C53.4466 4.51754 53.2582 4.40298 53.0619 4.30177C53.0164 4.27863 52.979 4.25957 52.9442 4.24173ZM54.7028 5.45239C54.7031 5.45454 54.7036 5.4568 54.7038 5.45874C54.7056 5.46328 54.7107 5.47689 54.7088 5.47235C54.7068 5.46554 54.7047 5.45874 54.7028 5.45239ZM54.3167 5.53821C54.3888 5.60733 54.4575 5.67994 54.523 5.75537C54.5405 5.77579 54.557 5.79622 54.5728 5.81777C54.6128 5.77874 54.6547 5.73849 54.699 5.69909C54.6456 5.67958 54.5936 5.65643 54.543 5.63061C54.4947 5.60156 54.4482 5.57506 54.394 5.55976C54.3683 5.55296 54.3425 5.54547 54.3167 5.53821ZM54.2712 5.85531C54.2588 5.87936 54.2336 5.89661 54.2005 5.89525C54.2496 5.95139 54.2968 6.00894 54.341 6.0688C54.3598 6.04565 54.3791 6.02287 54.3984 6.00031C54.3782 5.97127 54.3566 5.94277 54.3334 5.9159C54.3146 5.89411 54.2907 5.87678 54.2712 5.85531ZM55.1157 5.98334C55.1162 5.98251 55.1151 5.9835 55.1157 5.98334C55.1111 5.9906 55.123 5.99927 55.1275 6.00653C55.1317 6.00916 55.1358 6.01198 55.1399 6.0147C55.137 6.0103 55.1335 6.00562 55.1303 6.00154C55.1263 5.99609 55.1198 5.98198 55.1157 5.98334ZM55.2053 6.1386C55.2011 6.14186 55.1966 6.14495 55.1925 6.14858C55.06 6.25737 55.0706 6.25342 54.943 6.38263C54.8556 6.48162 54.7748 6.58555 54.6981 6.6922C54.894 6.65816 55.084 6.69432 55.257 6.81651C55.334 6.87093 55.3818 6.92049 55.4211 6.97458C55.4171 6.85259 55.4101 6.73178 55.3991 6.61246C55.3555 6.50136 55.3095 6.39117 55.2639 6.28084C55.2441 6.23373 55.2261 6.18548 55.2053 6.1386ZM4.53348 54.9788C4.34345 55.1161 4.15612 55.2467 3.97178 55.3701C3.82985 55.4703 3.68553 55.5665 3.53961 55.659C3.64404 55.6131 3.76407 55.5604 3.94809 55.4798C4.1624 55.3814 4.37778 55.2855 4.59139 55.1858C4.56339 55.1224 4.54344 55.0531 4.53348 54.9788Z" fill="#1A1A1A"/>
<path d="M52.7802 4.64108C52.8544 4.82498 52.9153 5.01369 52.9706 5.20385C52.9715 5.20746 52.9757 5.20625 52.9757 5.20265C52.9203 5.01222 52.8593 4.82323 52.7849 4.6391C52.7826 4.63586 52.7837 4.6367 52.7849 4.6391L52.7802 4.64108Z" fill="#F9F9F9"/>
<path d="M52.8875 5.38655C52.8925 5.40334 52.8985 5.42013 52.9035 5.43688C52.9122 5.4691 52.9361 5.5684 52.9434 5.59672C52.9673 5.69435 52.9902 5.79211 53.0135 5.88982C53.0402 5.9992 53.062 6.10962 53.0862 6.21954C53.0912 6.23996 53.0949 6.26084 53.0999 6.28104C53.105 6.29828 53.1123 6.31508 53.1183 6.33205C53.1194 6.33565 53.1233 6.33325 53.1233 6.33085C53.1174 6.31405 53.11 6.29771 53.105 6.28042C53.099 6.26045 53.0953 6.23958 53.0912 6.21893C53.0669 6.10892 53.0452 5.99854 53.0186 5.88912C52.9952 5.79136 52.9724 5.6936 52.9485 5.59602C52.9411 5.56743 52.9177 5.46822 52.9086 5.43586C52.9035 5.41861 52.8975 5.40182 52.8925 5.38508C52.8902 5.38158 52.8913 5.38267 52.8925 5.38508L52.8875 5.38655Z" fill="#F9F9F9"/>
<path d="M52.5009 4.84548C52.5271 4.90085 52.5495 4.95776 52.5726 5.01431C52.6056 5.09319 52.6362 5.1732 52.6697 5.25195C52.6863 5.29143 52.7014 5.33096 52.7138 5.37167C52.7294 5.42595 52.7413 5.48118 52.756 5.53578C52.7693 5.5862 52.7808 5.63699 52.7941 5.68728C52.8079 5.73361 52.8166 5.78104 52.8263 5.82833C52.8336 5.87281 52.8414 5.91719 52.8488 5.96172C52.8538 5.99939 52.8575 6.03687 52.8598 6.07459C52.8622 6.12033 52.8648 6.16608 52.8648 6.21196C52.8649 6.28499 52.8656 6.35802 52.8638 6.43099C52.8634 6.44189 52.8631 6.45323 52.8627 6.46412C52.8517 6.78486 53.3103 6.80042 53.3214 6.47955C53.3218 6.46684 53.3223 6.45369 53.3226 6.44098C53.3238 6.36219 53.3238 6.28345 53.3237 6.20471C53.3228 6.15165 53.32 6.09869 53.3177 6.04563C53.3141 5.99398 53.309 5.94238 53.3021 5.89105C53.2934 5.84072 53.2851 5.79066 53.2768 5.74047C53.2658 5.6826 53.2539 5.6246 53.2374 5.56791C53.2236 5.51822 53.2135 5.46766 53.1993 5.41792C53.1832 5.35874 53.1713 5.29855 53.1532 5.23992C53.1357 5.18382 53.116 5.12873 53.0927 5.07467C53.0601 4.99843 53.031 4.9205 52.9984 4.84412C52.9727 4.78153 52.9478 4.71863 52.919 4.65741C52.7847 4.36527 52.3666 4.55334 52.5009 4.84548Z" fill="#F9F9F9"/>
<path d="M49.3817 3.60402C49.3363 3.61582 49.2445 3.63897 49.1503 3.67114C49.0562 3.70337 48.9596 3.74385 48.8764 3.78533C48.7933 3.82663 48.7238 3.86897 48.64 3.91586C48.5563 3.96278 48.4583 4.01434 48.3592 4.08714C48.2602 4.15993 48.1606 4.25379 48.0767 4.33035C47.9929 4.40696 47.9249 4.46637 47.8537 4.5423C47.7825 4.61823 47.7081 4.7105 47.6472 4.7911C47.5863 4.8717 47.5389 4.94041 47.4756 5.04761C47.4123 5.15481 47.3332 5.30022 47.2787 5.42862C47.2241 5.55701 47.1941 5.66811 47.1442 5.80949C47.0944 5.95086 47.0248 6.12286 46.9623 6.26269C46.8999 6.40252 46.8445 6.51045 46.8113 6.58184C46.7783 6.65318 46.7673 6.68741 46.7158 6.78022C46.6644 6.87303 46.5727 7.02475 46.4827 7.15042C46.3927 7.27613 46.3041 7.37625 46.2251 7.45826C46.146 7.54032 46.0765 7.60435 46.018 7.65514C45.9596 7.70588 45.9121 7.74346 45.8583 7.79039C45.8045 7.83732 45.7444 7.89368 45.6803 7.97115C45.6161 8.04867 45.5482 8.14715 45.5062 8.2209C45.4644 8.29465 45.4485 8.34303 45.4358 8.39323C45.4229 8.44347 45.4138 8.49494 45.4041 8.55911C45.3945 8.62328 45.3853 8.69989 45.3839 8.75953C45.3825 8.81912 45.389 8.86124 45.4064 8.91606C45.4239 8.97089 45.4525 9.03806 45.4756 9.08412C45.4985 9.13019 45.5164 9.15537 45.5393 9.18029C45.5623 9.20525 45.5908 9.23012 45.6469 9.2643C45.7031 9.29833 45.7869 9.34227 45.8897 9.38275C45.9925 9.42314 46.1143 9.46077 46.3412 9.49812C46.568 9.53533 46.9001 9.57296 47.1524 9.60504C47.4046 9.63727 47.577 9.66368 47.7849 9.6871C47.9928 9.7107 48.2363 9.73067 48.4459 9.74492C48.6554 9.75899 48.8308 9.7667 48.9906 9.77306C49.1503 9.77941 49.2942 9.78395 49.4484 9.78486C49.6025 9.78559 49.767 9.78241 49.9274 9.77442C50.0879 9.7667 50.2444 9.754 50.3677 9.73993C50.491 9.72586 50.5811 9.70997 50.7219 9.68433C50.8626 9.65846 51.0539 9.62256 51.2436 9.57173C51.4332 9.5209 51.6214 9.45523 51.7802 9.38956C51.9391 9.32389 52.0687 9.25822 52.1943 9.18011C52.3198 9.10196 52.4416 9.01128 52.5357 8.93549C52.6297 8.85969 52.6961 8.79874 52.7506 8.73711C52.805 8.67548 52.8477 8.61298 52.8888 8.55507C52.9302 8.49716 52.9694 8.4441 53.0224 8.33954C53.0754 8.23493 53.1418 8.07862 53.1972 7.92627C53.2525 7.77391 53.2968 7.62541 53.3442 7.47292C53.3917 7.32043 53.4423 7.16408 53.4731 7.04853C53.5039 6.93293 53.5149 6.85787 53.5214 6.78294C53.5278 6.70801 53.5297 6.6329 53.5234 6.54939C53.5174 6.46584 53.5032 6.37357 53.488 6.29306C53.4729 6.21254 53.4573 6.14378 53.4374 6.05229C53.4177 5.96079 53.3938 5.84665 53.3348 5.67161C53.2756 5.49651 53.1807 5.26042 53.1089 5.08692C53.0369 4.91341 52.9879 4.80231 52.3787 4.56339C51.7695 4.32444 50.5993 3.95859 50.0135 3.77543C49.4277 3.59226 49.4271 3.5924 49.3817 3.60402Z" fill="#800000"/>
<path d="M53.596 4.81737C53.6281 4.88377 53.6912 5.01511 53.7337 5.12767C53.7764 5.24022 53.7984 5.33408 53.8269 5.42158C53.8554 5.50912 53.8903 5.5905 53.9139 5.66552C53.9373 5.74054 53.9501 5.8093 53.9644 5.88899C53.9786 5.96869 53.9947 6.05937 54.0052 6.1407C54.0162 6.22198 54.0227 6.29392 54.0286 6.3924C54.0351 6.49088 54.041 6.61596 54.0346 6.75656C54.0282 6.89716 54.0094 7.05352 53.987 7.1973C53.965 7.34108 53.9395 7.47246 53.8841 7.64274C53.8287 7.81303 53.7434 8.02252 53.6548 8.21476C53.5663 8.40701 53.4746 8.5821 53.394 8.7196C53.3133 8.85707 53.2438 8.95719 53.1601 9.0524C53.0764 9.14762 52.9783 9.23834 52.893 9.3086C52.8077 9.3789 52.735 9.42891 52.6545 9.47734C52.5739 9.52576 52.4854 9.57269 52.3842 9.62429C52.283 9.6759 52.1692 9.73222 52.0665 9.7791C51.9638 9.82598 51.872 9.86352 51.785 9.90101C51.698 9.93868 51.6157 9.97603 51.5465 9.99491C51.4773 10.014 51.4203 10.014 51.3843 10.0185C51.348 10.023 51.3342 10.0326 51.3219 10.0485C51.3096 10.0648 51.3004 10.0861 51.2981 10.1086C51.296 10.1309 51.3007 10.1527 51.3132 10.1747C51.3256 10.1965 51.3444 10.2182 51.7555 10.4888C52.1667 10.7593 52.9696 11.2786 53.4315 11.5614C53.8934 11.8441 54.0141 11.8905 54.1108 11.9295C54.2075 11.9686 54.28 12 54.3503 12.0202C54.4206 12.0406 54.4885 12.0497 54.5397 12.0542C54.5909 12.0587 54.626 12.0587 54.6652 12.0524C54.7042 12.0461 54.7487 12.0334 54.7863 12.017C54.824 12.0007 54.8558 11.9803 54.8826 11.9606C54.9093 11.9411 54.9314 11.9225 54.9591 11.8974C54.9866 11.8725 55.02 11.8411 55.0475 11.8024C55.075 11.7638 55.0971 11.7167 55.124 11.6588C55.1511 11.601 55.1826 11.5321 55.2047 11.4667C55.2268 11.4012 55.2396 11.3387 55.2474 11.2793C55.2552 11.22 55.2584 11.1638 55.2517 11.0959C55.2449 11.028 55.2274 10.9483 55.2045 10.8631C55.1816 10.7779 55.1532 10.6872 55.1325 10.5903C55.1118 10.4934 55.099 10.3901 55.0903 10.3009C55.0815 10.2117 55.0769 10.1366 55.0751 10.0874C55.0735 10.0381 55.0752 10.0145 55.0769 9.97544C55.0786 9.93641 55.0803 9.88172 55.092 9.79481C55.104 9.7079 55.126 9.58913 55.1435 9.47975C55.1609 9.37037 55.1737 9.27026 55.255 8.98474C55.3364 8.69922 55.4866 8.2286 55.5642 7.94816C55.6418 7.66773 55.6465 7.57696 55.6481 7.49495C55.6497 7.41294 55.648 7.33946 55.6448 7.27769C55.6416 7.21592 55.637 7.16596 55.6251 7.09797C55.6132 7.03003 55.5943 6.94403 55.5761 6.86901C55.5578 6.79394 55.5408 6.72986 55.524 6.67199C55.5074 6.61412 55.4914 6.56266 55.4749 6.50869C55.4584 6.45473 55.441 6.3985 55.4219 6.33515C55.4031 6.27179 55.3824 6.2014 55.3696 6.15447C55.3567 6.10754 55.3521 6.08399 55.3425 6.04972C55.3333 6.01568 55.3191 5.97007 55.3108 5.9443C55.303 5.91843 55.3012 5.91252 55.1993 5.69586C55.0973 5.47924 54.895 5.05239 54.6058 4.8593C54.3165 4.66619 53.9402 4.70839 53.7515 4.72959C53.5628 4.75092 53.564 4.75102 53.596 4.81737Z" fill="#800000"/>
<path d="M46.0135 9.93417C45.9777 9.96821 45.9062 10.037 45.8346 10.1078C45.7631 10.1786 45.6914 10.2515 45.6477 10.306C45.6041 10.3605 45.5883 10.3958 45.5694 10.4344C45.5506 10.473 45.5281 10.5151 45.5079 10.575C45.4877 10.6348 45.4698 10.7123 45.4611 10.7788C45.4523 10.8453 45.4523 10.9006 45.5019 10.9947C45.5516 11.0887 45.65 11.2214 45.7531 11.3027C45.8562 11.3841 45.9636 11.415 46.0652 11.428C46.1668 11.4412 46.2629 11.4367 46.3803 11.4267C46.4977 11.4167 46.6364 11.4013 46.7571 11.3881C46.8778 11.375 46.9808 11.3636 47.0802 11.3473C47.1796 11.3305 47.2758 11.3087 47.3832 11.2898C47.4906 11.2711 47.6092 11.2553 47.7344 11.2411C47.8597 11.2266 47.9917 11.2134 48.1314 11.2003C48.2712 11.1871 48.4188 11.1735 48.5597 11.1617C48.7006 11.1494 48.8348 11.1385 48.9376 11.1295C49.0405 11.1204 49.1121 11.114 49.1506 11.1054C49.1892 11.0968 49.1956 11.0859 49.1919 11.0632C49.188 11.0405 49.1722 11.005 49.1435 10.9706C49.115 10.9361 49.0722 10.9029 49.0342 10.872C48.9961 10.8411 48.9626 10.8123 48.9311 10.7824C48.8995 10.7525 48.8707 10.7218 48.846 10.6899C48.8212 10.6581 48.801 10.6247 48.7832 10.5926C48.7653 10.5604 48.7497 10.5295 48.7364 10.5065C48.7231 10.4834 48.7116 10.4675 48.6905 10.4388C48.6694 10.4102 48.638 10.3681 48.608 10.337C48.5781 10.3056 48.549 10.2859 48.1229 10.2148C47.6969 10.1437 46.8739 10.0221 46.4618 9.96117C46.0496 9.90026 46.0493 9.89986 46.0135 9.93417Z" fill="#800000"/>
<path d="M49.2776 10.2627C49.2987 10.2677 49.34 10.2767 49.5328 10.2736C49.7256 10.2702 50.0703 10.2545 50.2615 10.2436C50.4527 10.2327 50.4907 10.2264 50.744 10.3912C50.9971 10.556 51.4652 10.8906 51.7467 11.0891C52.0282 11.2877 52.1231 11.3502 52.2291 11.4206C52.335 11.4909 52.452 11.5691 52.5722 11.6504C52.6924 11.7317 52.8157 11.8162 52.9533 11.8974C53.0909 11.9785 53.2427 12.0567 53.3882 12.1318C53.5336 12.2068 53.6729 12.2788 53.7515 12.3337C53.8302 12.3887 53.8492 12.4263 53.8651 12.4576C53.8812 12.4889 53.8936 12.5139 53.9027 12.5545C53.9119 12.5949 53.9184 12.6514 53.9243 12.6998C53.9308 12.7482 53.9367 12.789 53.9399 12.8263C53.943 12.8635 53.943 12.8983 53.9398 12.934C53.9365 12.9699 53.9301 13.0074 53.9241 13.0386C53.9177 13.07 53.9117 13.0948 53.9021 13.1291C53.8925 13.1636 53.8801 13.2072 53.8672 13.251C53.8544 13.2946 53.842 13.3386 53.8245 13.3855C53.8071 13.4324 53.785 13.4823 53.763 13.5164C53.7409 13.5504 53.7189 13.5692 53.6827 13.5911C53.6465 13.6128 53.596 13.6379 53.5519 13.6551C53.5078 13.6724 53.4699 13.6819 53.4242 13.6865C53.3783 13.6915 53.3249 13.6914 53.2491 13.676C53.1733 13.6606 53.0751 13.6294 52.9375 13.5514C52.7999 13.4735 52.6228 13.3485 52.3872 13.1687C52.1515 12.9889 51.8574 12.7544 51.5032 12.4667C51.1489 12.179 50.7346 11.8382 50.3455 11.4708C49.9564 11.1035 49.5927 10.7095 49.415 10.5026C49.2372 10.2957 49.2466 10.2771 49.2515 10.2675C49.2565 10.258 49.2565 10.2581 49.2776 10.2627Z" fill="#800000"/>
<path d="M47.7786 11.7694C47.8709 11.7682 48.0543 11.7658 48.2365 11.7544C48.4187 11.7431 48.5998 11.7231 48.7542 11.7113C48.9086 11.699 49.036 11.695 49.1679 11.6827C49.2997 11.6705 49.4363 11.6505 49.5179 11.6396C49.5995 11.6282 49.6264 11.626 49.6545 11.626C49.6825 11.6261 49.7116 11.6285 49.753 11.6514C49.7943 11.6741 49.8481 11.7161 49.9197 11.7736C49.9912 11.8311 50.0806 11.904 50.1712 11.9792C50.2618 12.0544 50.3535 12.1318 50.4396 12.2025C50.5257 12.2733 50.6062 12.3374 50.6833 12.4049C50.7604 12.4724 50.8342 12.5432 50.907 12.6027C50.9797 12.6623 51.0514 12.711 51.1118 12.7496C51.1722 12.7882 51.2214 12.817 51.2605 12.8391C51.2995 12.8613 51.3288 12.8767 51.3544 12.891C51.3801 12.9056 51.4024 12.9187 51.4105 12.9319C51.4188 12.945 51.4144 12.9582 51.3766 12.9877C51.3389 13.0172 51.2672 13.0637 51.1745 13.1134C51.0819 13.1631 50.9678 13.2162 50.8851 13.2515C50.8025 13.2869 50.751 13.3046 50.6726 13.3367C50.5943 13.3689 50.4892 13.4151 50.391 13.4484C50.2927 13.4815 50.2011 13.5014 50.1251 13.5147C50.0491 13.5279 49.9888 13.5347 49.9196 13.5315C49.8504 13.5284 49.7722 13.5152 49.6704 13.4975C49.5686 13.4798 49.4434 13.4576 49.3182 13.428C49.193 13.398 49.0678 13.3607 48.9492 13.3176C48.8307 13.2745 48.7189 13.226 48.6037 13.1631C48.4885 13.1002 48.37 13.0228 48.2624 12.918C48.1549 12.8131 48.0587 12.6805 47.968 12.5456C47.8774 12.4107 47.7924 12.2737 47.7397 12.1753C47.6869 12.077 47.6668 12.0172 47.6632 11.9561C47.6595 11.895 47.6728 11.8332 47.6797 11.8018C47.6866 11.7704 47.6862 11.7703 47.7786 11.7694Z" fill="#800000"/>
<path d="M49.9169 3.30102C49.8159 3.43068 49.7071 3.55481 49.5867 3.66732C49.5537 3.69818 49.5186 3.72736 49.4846 3.75736C49.4538 3.78278 49.4235 3.80815 49.3929 3.83361C49.1447 4.04034 49.4404 4.38747 49.6886 4.18071C49.7226 4.15212 49.7568 4.1238 49.7911 4.0952C49.8315 4.05935 49.8728 4.02436 49.9122 3.98737C49.9791 3.92447 50.0643 3.83511 50.1252 3.76635C50.1779 3.70681 50.2531 3.61671 50.2981 3.54936C50.3151 3.52395 50.3279 3.49604 50.3431 3.46949C50.4636 3.17154 50.0374 3.00306 49.9169 3.30102Z" fill="#800000"/>
<path d="M49.341 4.185C49.4537 4.13553 49.5659 4.08401 49.6717 4.02107C49.7052 4.0011 49.7375 3.97931 49.7704 3.95816C49.8641 3.89295 49.9483 3.8162 50.0262 3.73342C50.0432 3.71526 50.0593 3.6962 50.076 3.67746C50.2896 3.43578 49.9439 3.13718 49.7304 3.37888C49.6667 3.45163 49.5992 3.52134 49.5199 3.57789C49.496 3.59332 49.4729 3.61011 49.4485 3.6245C49.3546 3.68068 49.2547 3.72634 49.1545 3.77027C48.8579 3.90062 49.0444 4.31533 49.341 4.185Z" fill="#800000"/>
<path d="M49.5775 3.52278C49.5366 3.57706 49.4846 3.62113 49.4325 3.66456C49.3958 3.69406 49.3592 3.72374 49.3225 3.75343C49.2972 3.77385 49.3261 3.80888 49.3519 3.78837C49.3886 3.75842 49.4257 3.72892 49.4624 3.69901C49.5174 3.65304 49.5722 3.6062 49.6153 3.54861C49.6336 3.52228 49.5963 3.49628 49.5775 3.52278Z" fill="#800000"/>
<path d="M49.4982 3.51474C49.4784 3.55922 49.4434 3.59462 49.4086 3.62784C49.3925 3.64236 49.3755 3.65598 49.358 3.66869C49.3318 3.6882 49.3592 3.72428 49.3855 3.705C49.4044 3.69093 49.4227 3.6764 49.4403 3.66052C49.4793 3.62285 49.5183 3.58296 49.5401 3.53272C49.553 3.50322 49.511 3.48502 49.4982 3.51474Z" fill="#800000"/>
<path d="M49.4967 3.5347C49.4527 3.58104 49.401 3.61948 49.3498 3.65783C49.3241 3.67735 49.3523 3.71342 49.3774 3.69413C49.4308 3.6542 49.4846 3.61381 49.5306 3.56524C49.5522 3.54119 49.5183 3.51096 49.4967 3.5347Z" fill="#F9F9F9"/>
<path d="M49.367 3.66773C49.4213 3.65093 49.473 3.62733 49.5252 3.60518C49.5509 3.59429 49.5772 3.5834 49.6034 3.57341C49.6337 3.56161 49.6168 3.5195 49.5869 3.53121C49.5603 3.5421 49.5336 3.55208 49.5072 3.56343C49.4567 3.58476 49.4066 3.60791 49.354 3.6242C49.3228 3.63373 49.3358 3.67685 49.367 3.66773Z" fill="#F9F9F9"/>
<path d="M49.4117 3.64135C49.4443 3.62365 49.477 3.6055 49.51 3.5883C49.527 3.57967 49.5187 3.58469 49.5348 3.57513C49.5628 3.5588 49.5399 3.51976 49.5119 3.53565C49.4976 3.54427 49.5059 3.53925 49.4889 3.5479C49.4554 3.56515 49.4225 3.58376 49.3892 3.60168C49.3612 3.61757 49.3837 3.65723 49.4117 3.64135Z" fill="#F9F9F9"/>
<path d="M49.402 3.64234C49.4259 3.62918 49.4514 3.61874 49.4755 3.60604C49.4883 3.59877 49.4971 3.59333 49.5095 3.58607C49.5131 3.58367 49.5182 3.58108 49.5218 3.57744C49.5494 3.5602 49.5243 3.52198 49.4971 3.53932C49.4934 3.54172 49.4883 3.54431 49.4851 3.54658C49.4755 3.55248 49.4654 3.55929 49.4553 3.56474C49.4319 3.57744 49.4072 3.58743 49.3838 3.60014C49.3539 3.6133 49.3722 3.65555 49.402 3.64234Z" fill="#800000"/>
<path d="M35.5474 3.32192L35.5482 3.75158L35.4003 3.74747L35.3973 4.09093L35.3431 4.13333L35.4194 4.39332L35.255 4.37009L35.3667 4.72585L35.2836 4.76964L35.3811 4.90238L35.4153 4.96945L35.2148 4.99002L35.4172 5.47439L35.4475 5.50172L35.2814 5.5428L35.5364 6.00254L35.3775 6.00118L35.6398 6.37199L35.5099 6.36928L35.8578 6.75374L35.8244 6.80848L36.2565 7.2244L36.2012 7.2381L36.5345 7.49258L36.4944 7.49675L36.7122 7.61719L36.618 7.66375L37.0029 7.81832L37.2345 7.94698L37.2869 7.96889L37.143 8.00449L37.31 8.0387L37.8276 8.20694L37.7364 8.21788L38.0346 8.28352L38.2696 8.28348L38.2113 8.33268L38.7243 8.29293L38.717 8.33531L38.8208 8.30382L38.9881 8.29147C38.9881 8.29147 39.0268 8.25856 39.0712 8.24768C39.1155 8.23673 39.3022 8.20797 39.3022 8.20797L39.2384 8.28194L39.3491 8.25456L39.3866 8.23955L39.8279 8.76358L40.1192 9.133L40.2617 9.11518L39.627 8.26141L39.5627 8.12046L39.5468 7.96174L39.6277 7.81397L39.8053 7.36923L39.7945 7.32546C39.8669 6.92973 39.8669 6.92973 39.8669 6.92973L39.8993 6.79973L39.8427 6.78458L39.8254 6.33575L39.8167 6.13459L39.7475 6.14009L39.6751 5.65843L39.6335 5.6803L39.4453 5.11108L39.3845 5.10296L39.3073 5.0755L39.2772 5.00161L39.2294 4.87983L39.1405 4.6869L39.1186 4.64578L39.0254 4.45969L38.9795 4.53496L38.8467 4.25994L38.7617 4.10669" fill="#008000"/>
<path d="M38.5391 4.05045L38.2081 3.62891C38.2081 3.62891 38.1701 3.59318 38.1716 3.60714C38.173 3.62109 38.1372 3.74508 38.1372 3.74508L37.724 3.34388L37.6572 3.31717L37.6707 3.35493C37.6707 3.35493 37.6887 3.38543 37.6847 3.40287C37.6808 3.42034 37.6645 3.44696 37.661 3.45802C37.6577 3.46916 37.6333 3.49762 37.6333 3.49762L37.4275 3.27936L37.4113 3.27323L37.3972 3.33415L37.3718 3.38167L37.0592 3.20223L36.9704 3.16246L37.0072 3.24376C37.0072 3.24376 36.9987 3.30139 36.9864 3.31053C36.974 3.31975 36.9549 3.33469 36.9549 3.33469C36.9549 3.33469 36.8878 3.24854 36.8796 3.24033C36.8715 3.232 36.7245 3.16775 36.6922 3.15524C36.6599 3.14272 36.6317 3.12912 36.6053 3.1233C36.579 3.1175 36.5599 3.11603 36.5599 3.11603L36.534 3.12045L36.5854 3.21045L36.5814 3.26083C36.5814 3.26083 36.5739 3.28943 36.5587 3.28695C36.5434 3.28456 36.5162 3.27478 36.5016 3.26607C36.487 3.25736 36.3998 3.19874 36.3998 3.19874L36.2802 3.16055L36.2599 3.18806L36.2866 3.22056L36.2834 3.25834C36.2834 3.25834 36.1219 3.20174 36.1082 3.19689C36.0944 3.19217 36.0168 3.18869 35.9992 3.18483C35.9816 3.18103 35.9897 3.255 35.9897 3.255C35.9897 3.255 35.9983 3.28984 35.9948 3.31743C35.9912 3.34497 35.9887 3.36003 35.9784 3.37696C35.9681 3.39382 35.944 3.40595 35.944 3.40595L35.921 3.42197L36.1229 3.64122L38.5391 4.05045Z" fill="#008000"/>
<path d="M43.5756 14.9865L43.6395 14.542L43.7918 14.5684L43.8466 14.2136L43.909 14.1779L43.8693 13.8976L44.0358 13.9463L43.9739 13.5616L44.0664 13.5287L43.9855 13.3768L43.9602 13.3023L44.1707 13.3111L44.0343 12.7798L44.0071 12.747L44.185 12.7294L43.9905 12.2157L44.1547 12.2409L43.9392 11.8181L44.0732 11.8404L43.7712 11.3906L43.814 11.339L43.4297 10.844L43.4889 10.8381L43.1825 10.525L43.2246 10.5267L43.0175 10.3694L43.1219 10.3354L42.747 10.1178L42.5269 9.95003L42.476 9.91951L42.6302 9.90427L42.4626 9.84384L41.9526 9.59224L42.0486 9.5946L41.75 9.482L41.507 9.44681L41.5747 9.40467L41.0382 9.36886L41.052 9.32611L40.9399 9.34312L40.7651 9.33081C40.7651 9.33081 40.72 9.35904 40.6725 9.36364C40.625 9.36833 40.4276 9.37007 40.4276 9.37007L40.5047 9.30314L40.3861 9.31486L40.3451 9.32477L39.9676 8.71662L39.7219 8.29086L39.5718 8.28792L40.0997 9.26611L40.145 9.42153L40.1375 9.58806L40.0316 9.72877L39.781 10.1621L39.7856 10.209C39.6511 10.6074 39.6511 10.6075 39.6511 10.6075L39.5981 10.7371L39.6543 10.7612L39.6046 11.228L39.5834 11.4374L39.6557 11.442L39.6581 11.9511L39.7045 11.9347L39.8134 12.5516L39.8751 12.5691L39.9508 12.6091L39.9708 12.69L40.0019 12.8232L40.0649 13.036L40.0813 13.0819L40.1496 13.2883L40.2085 13.2173L40.3045 13.5217L40.3693 13.6929" fill="#008000"/>
<path d="M40.588 13.7845L40.8668 14.27C40.8668 14.27 40.9007 14.3127 40.9013 14.298C40.9019 14.2834 40.9576 14.1605 40.9576 14.1605L41.3245 14.6373L41.3896 14.6749L41.3813 14.6339C41.3813 14.6339 41.3673 14.5996 41.3741 14.5822C41.3808 14.5647 41.4016 14.5396 41.4069 14.5287C41.412 14.5177 41.4415 14.492 41.4415 14.492L41.6215 14.7485L41.6373 14.7572L41.661 14.6964L41.6945 14.651L41.9907 14.8834L42.0765 14.9379L42.0507 14.8483C42.0507 14.8483 42.0681 14.79 42.0823 14.7824C42.0965 14.7747 42.1185 14.7621 42.1185 14.7621C42.1185 14.7621 42.1749 14.8612 42.1822 14.871C42.1893 14.8808 42.3317 14.9693 42.3631 14.987C42.3946 15.0048 42.4217 15.0231 42.4482 15.0331C42.4746 15.043 42.4941 15.0474 42.4941 15.0474L42.5215 15.0467L42.4818 14.946L42.4936 14.8945C42.4936 14.8945 42.5057 14.866 42.521 14.8709C42.5365 14.8756 42.5631 14.8898 42.5769 14.901C42.5907 14.9122 42.672 14.9859 42.672 14.9859L42.79 15.0433L42.8151 15.0179L42.7924 14.9803L42.8014 14.9417C42.8014 14.9417 42.9599 15.0245 42.9733 15.0315C42.9869 15.0385 43.0666 15.0537 43.0842 15.0603C43.1018 15.0669 43.1046 14.9892 43.1046 14.9892C43.1046 14.9892 43.1009 14.9519 43.1087 14.9239C43.1166 14.8959 43.1214 14.8807 43.1347 14.8648C43.1478 14.8489 43.1746 14.84 43.1746 14.84L43.2008 14.8269L43.025 14.5699L40.588 13.7845Z" fill="#008000"/>
<path d="M21.2121 33.0122C21.2123 33.012 21.212 33.0124 21.2121 33.0122C21.212 33.0124 21.2099 33.0167 21.2098 33.0169C21.2099 33.0167 21.2096 33.0171 21.2098 33.0169L18.0725 39.0875L14.208 44.7393L11.4166 48.4012L8.38418 51.6382L5.13686 54.6102L2.88295 56.0165L1.4066 56.7065L1.05792 57.4227L1.56792 57.9532L2.23873 57.7675L5.4054 56.2022C5.4054 56.2022 8.76007 53.4161 8.84058 53.31C8.92109 53.2038 16.0596 44.8987 16.0596 44.8987L19.0384 39.9632L21.0513 36.5668L21.5608 35.638L21.2121 33.0122Z" fill="#008000"/>
<path d="M49.4448 3.64957C49.4035 3.67181 49.363 3.69577 49.3239 3.72182C49.3215 3.72326 49.3166 3.72411 49.318 3.72627C49.3253 3.73988 49.3331 3.7544 49.346 3.76303C49.351 3.76627 49.357 3.75758 49.3616 3.75486C49.3703 3.75032 49.3937 3.73398 49.4015 3.72854C49.4075 3.72354 49.4134 3.7181 49.4189 3.71311C49.4401 3.69087 49.4626 3.66708 49.4249 3.64253C49.4139 3.63527 49.3877 3.64037 49.377 3.64159C49.3632 3.64424 49.3522 3.64592 49.3389 3.64976C49.3173 3.65612 49.3086 3.66338 49.3577 3.69152C49.365 3.69536 49.3724 3.68607 49.3797 3.68289C49.3871 3.67989 49.3948 3.67654 49.4022 3.67336C49.4293 3.66065 49.4526 3.66156 49.4073 3.62117C49.4036 3.61769 49.3976 3.62571 49.393 3.62843C49.376 3.63751 49.3779 3.63615 49.3627 3.64568C49.3457 3.65702 49.3448 3.65475 49.3847 3.68561C49.3884 3.68802 49.3921 3.68141 49.3944 3.67926C49.3956 3.67814 49.4155 3.66519 49.4169 3.66293C49.4219 3.65748 49.4212 3.64888 49.4249 3.64253C49.4153 3.633 49.4091 3.62162 49.3967 3.61572C49.388 3.61212 49.3788 3.61777 49.3701 3.61933C49.3508 3.62281 49.3366 3.62704 49.3177 3.63249C49.2975 3.63794 49.3058 3.63669 49.2939 3.63839C49.3026 3.64883 49.3109 3.65926 49.3191 3.6697C49.3179 3.66982 49.3192 3.6709 49.3191 3.6697C49.3228 3.66905 49.3266 3.66982 49.3312 3.66786C49.34 3.6639 49.3468 3.65924 49.3556 3.65652C49.3459 3.64744 49.3358 3.63836 49.3253 3.62974C49.3241 3.62872 49.3202 3.63564 49.3179 3.63882C49.3119 3.64835 49.3069 3.65833 49.3023 3.66877C49.2973 3.68375 49.2973 3.69918 49.3011 3.71465C49.3071 3.72917 49.3149 3.74007 49.3328 3.74052C49.3456 3.74079 49.3599 3.72872 49.3704 3.72282C49.3892 3.71102 49.4067 3.69695 49.4241 3.68334C49.4314 3.67789 49.4392 3.67154 49.447 3.66564C49.4521 3.66228 49.4544 3.66143 49.458 3.65701C49.4605 3.65485 49.4617 3.65248 49.464 3.64975C49.4567 3.63795 49.4521 3.62298 49.4415 3.6139C49.4365 3.61042 49.4305 3.61666 49.425 3.61844C49.4226 3.61949 49.3878 3.63523 49.3874 3.63523C49.3649 3.64521 49.369 3.6434 49.3474 3.65248C49.3263 3.66246 49.3034 3.667 49.2817 3.67472C49.2793 3.67604 49.2744 3.67604 49.2744 3.6788C49.272 3.69151 49.2684 3.70558 49.2739 3.71692C49.2775 3.72373 49.2886 3.72137 49.2964 3.72191C49.3024 3.72241 49.3088 3.72092 49.3152 3.72011C49.3239 3.71897 49.3673 3.71149 49.3734 3.71058C49.4078 3.70423 49.4425 3.70014 49.4755 3.68789C49.4897 3.6829 49.4906 3.68199 49.504 3.67518C49.5292 3.66247 49.5566 3.65567 49.5825 3.64523C49.5885 3.64307 49.5936 3.64023 49.5986 3.63796C49.6165 3.62889 49.6335 3.61936 49.6488 3.60665C49.6681 3.58986 49.6768 3.57579 49.6437 3.55355C49.6387 3.55043 49.5983 3.56308 49.5967 3.56308C49.5349 3.58169 49.473 3.59984 49.4123 3.62195C49.4036 3.62519 49.3961 3.63205 49.3874 3.63523C49.3823 3.63727 49.3756 3.63641 49.3696 3.63783C49.3672 3.63889 49.3623 3.63851 49.3623 3.64095C49.3647 3.65547 49.3705 3.67109 49.3797 3.68289C49.3821 3.68674 49.3898 3.6807 49.3944 3.67926C49.3994 3.67758 49.3971 3.6753 49.4022 3.67336C49.4169 3.66791 49.4297 3.66594 49.4449 3.6614C49.4738 3.65278 49.5035 3.64461 49.5304 3.63054C49.5414 3.62419 49.5506 3.61602 49.5602 3.6083C49.5662 3.60376 49.5722 3.59923 49.5786 3.59514C49.5933 3.58379 49.6103 3.57517 49.6249 3.56383C49.6336 3.55566 49.6455 3.54522 49.6322 3.52979C49.6249 3.52117 49.6111 3.52162 49.6001 3.52162C49.5941 3.52149 49.5904 3.52616 49.5849 3.52888C49.579 3.53224 49.5721 3.53614 49.5661 3.53932C49.5588 3.54292 49.5523 3.54658 49.545 3.55021C49.5188 3.56337 49.4929 3.57653 49.4644 3.58334C49.4556 3.58574 49.4464 3.58767 49.4377 3.5906C49.4365 3.59116 49.4318 3.59079 49.4327 3.59241C49.4386 3.60647 49.4483 3.61873 49.4561 3.63189C49.4804 3.61873 49.5049 3.60466 49.5282 3.58968C49.5452 3.57879 49.5627 3.5679 49.5775 3.55383C49.5812 3.55191 49.5826 3.54748 49.5849 3.54521C49.5862 3.54521 49.5857 3.54465 49.5849 3.54521C49.5762 3.54571 49.5646 3.55169 49.5581 3.54679C49.5508 3.5418 49.5494 3.52955 49.5494 3.52002C49.5398 3.52955 49.5292 3.53772 49.5173 3.54362C49.5126 3.54178 49.5086 3.5465 49.5173 3.54362C49.5209 3.54479 49.5269 3.54751 49.5296 3.55029C49.537 3.55801 49.5304 3.56028 49.5347 3.55891C49.5383 3.55165 49.5407 3.54212 49.5489 3.53758C49.5526 3.5369 49.5627 3.5276 49.5655 3.52896C49.5751 3.53233 49.5887 3.53241 49.5988 3.53493C49.6025 3.53733 49.5915 3.53349 49.5915 3.53049C49.5903 3.48828 49.6144 3.49327 49.5818 3.49373C49.5644 3.49492 49.547 3.49696 49.5299 3.50098C49.5143 3.50688 49.4982 3.51279 49.4836 3.5205C49.4812 3.52266 49.4776 3.5247 49.4749 3.52685C49.4639 3.53593 49.4725 3.53046 49.4639 3.53775C49.4588 3.54171 49.4542 3.54501 49.4492 3.54909C49.4432 3.55545 49.4363 3.56226 49.4299 3.56861C49.4263 3.57185 49.4226 3.57451 49.4189 3.57769C49.4051 3.58722 49.3895 3.59357 49.3744 3.60129C49.3555 3.60991 49.3358 3.61581 49.3168 3.62353C49.2952 3.63124 49.2732 3.63714 49.2516 3.6444C49.2245 3.65348 49.2089 3.6562 49.2507 3.69528C49.2557 3.69936 49.2626 3.69288 49.2686 3.69131C49.2759 3.68939 49.2837 3.68723 49.2911 3.68541C49.3502 3.66681 49.4096 3.6482 49.4672 3.62542C49.4833 3.61725 49.5026 3.6109 49.5158 3.59819C49.5208 3.59365 49.5218 3.59093 49.5254 3.58593C49.5291 3.57686 49.5324 3.5689 49.5347 3.55891C49.5371 3.54666 49.5351 3.55326 49.5375 3.5469C49.5387 3.5401 49.5399 3.5351 49.5462 3.53102C49.5549 3.5233 49.5637 3.52058 49.5742 3.51786C49.5852 3.51509 49.5976 3.51485 49.6091 3.51497C49.6151 3.51535 49.6233 3.51585 49.6284 3.51996C49.6357 3.52632 49.6458 3.53041 49.65 3.53903C49.6371 3.52315 49.6596 3.51452 49.6692 3.50998C49.668 3.50878 49.668 3.50584 49.6668 3.50465C49.6517 3.49103 49.6324 3.48422 49.6124 3.48059C49.5986 3.47819 49.5849 3.47891 49.5711 3.47945C49.5578 3.47983 49.5445 3.47912 49.5312 3.48113C49.5287 3.48172 49.5275 3.48212 49.5252 3.48293C49.5192 3.48557 49.5124 3.48883 49.5073 3.49337C49.5013 3.49836 49.5049 3.49881 49.5013 3.49836C49.4917 3.50653 49.4816 3.51425 49.472 3.52287C49.4623 3.53376 49.4536 3.54329 49.4417 3.55146C49.4252 3.56326 49.4137 3.58005 49.4004 3.59503C49.3843 3.60955 49.3664 3.6218 49.3494 3.63496C49.3173 3.65947 49.2816 3.67854 49.2458 3.69651C49.1628 3.73872 49.0741 3.76758 48.986 3.79694C48.9553 3.80693 48.97 3.85018 49.0007 3.84006C49.091 3.81011 49.1818 3.78029 49.2667 3.73704C49.3053 3.71752 49.3437 3.6971 49.378 3.67078C49.3972 3.6558 49.4179 3.64173 49.4351 3.62475C49.4461 3.6125 49.4553 3.59843 49.4686 3.58845C49.4819 3.57891 49.4933 3.56802 49.5039 3.55532C49.5112 3.54806 49.5195 3.54306 49.5269 3.5358C49.5328 3.53148 49.5365 3.52763 49.5406 3.52536C49.5382 3.52392 49.5398 3.52499 49.5457 3.52497C49.5544 3.52495 49.5636 3.52487 49.5723 3.52463C49.5833 3.52426 49.593 3.52348 49.6035 3.525C49.6155 3.52704 49.6265 3.53045 49.6357 3.53816C49.6407 3.5427 49.6554 3.55587 49.6623 3.55496C49.6916 3.55052 49.6976 3.53817 49.6875 3.51411C49.6765 3.49959 49.6655 3.49051 49.6508 3.48053C49.6379 3.47372 49.6237 3.46918 49.609 3.46964C49.593 3.46951 49.5769 3.47017 49.5617 3.47408C49.5442 3.47861 49.5286 3.48497 49.5148 3.49722C49.5019 3.50948 49.4964 3.51855 49.4928 3.5358C49.4916 3.54125 49.4915 3.54624 49.4903 3.55169C49.4895 3.55517 49.4879 3.55849 49.4867 3.56167C49.4757 3.56893 49.4625 3.57768 49.4506 3.58312C49.3947 3.60536 49.3369 3.62352 49.2794 3.64144C49.2721 3.64336 49.2657 3.64528 49.2588 3.64689C49.2551 3.64791 49.2478 3.64588 49.2469 3.64977C49.2395 3.70628 49.2444 3.69379 49.2666 3.68699C49.2891 3.67927 49.3086 3.67603 49.3312 3.66786C49.3514 3.65969 49.376 3.65068 49.3959 3.64115C49.4138 3.63207 49.4331 3.62436 49.449 3.6121C49.46 3.60303 49.471 3.59395 49.4807 3.58306C49.4894 3.57534 49.5 3.56989 49.5068 3.56036C49.5105 3.55868 49.5128 3.55653 49.5165 3.55492C49.5252 3.55132 49.5339 3.54947 49.5417 3.54493C49.5555 3.54169 49.5693 3.53994 49.5835 3.53903C49.5859 3.53901 49.6129 3.53907 49.6138 3.53699C49.6312 3.50658 49.634 3.49751 49.6078 3.49011C49.5968 3.48831 49.5849 3.48806 49.5739 3.48511C49.55 3.48295 49.5408 3.48956 49.522 3.50145C49.5196 3.50385 49.516 3.50599 49.5133 3.50872C49.5023 3.51961 49.4954 3.53762 49.4903 3.55169C49.4891 3.56122 49.4876 3.56454 49.4937 3.57498C49.5033 3.59222 49.524 3.59131 49.5391 3.58405C49.5561 3.57543 49.5712 3.56454 49.5846 3.55092C49.5942 3.53867 49.607 3.52869 49.587 3.50962C49.5718 3.49465 49.5539 3.51462 49.5457 3.52497C49.5347 3.53768 49.5172 3.54533 49.5039 3.55532C49.4823 3.56939 49.4603 3.57835 49.4377 3.5906C49.4414 3.60558 49.4451 3.62036 49.4496 3.63488C49.4499 3.63562 49.4549 3.63213 49.4561 3.63189C49.4538 3.63253 49.4585 3.63126 49.4561 3.63189C49.4671 3.62865 49.4556 3.63278 49.4709 3.62898C49.4733 3.62849 49.4745 3.62789 49.4769 3.6273C49.509 3.61913 49.5385 3.60551 49.5678 3.59008C49.5954 3.57556 49.583 3.58237 49.6068 3.56875C49.6093 3.56743 49.6156 3.56683 49.6142 3.56467C49.5889 3.53381 49.5903 3.57647 49.5977 3.52746C49.5834 3.5388 49.5665 3.54652 49.5522 3.55832C49.538 3.56875 49.5242 3.5801 49.5095 3.59054C49.4857 3.6037 49.4582 3.6096 49.4322 3.61822C49.4147 3.62367 49.41 3.62253 49.393 3.62843C49.3894 3.62987 49.3817 3.63484 49.3785 3.63638C49.3775 3.6368 49.377 3.64047 49.377 3.64159C49.3794 3.65611 49.3834 3.6662 49.3857 3.68072C49.3858 3.68152 49.386 3.68539 49.3847 3.68561C49.4004 3.68108 49.4145 3.67186 49.4287 3.66414C49.4882 3.64236 49.5491 3.62466 49.6096 3.60641C49.617 3.60437 49.6248 3.60257 49.6321 3.60006C49.6335 3.60163 49.6333 3.59954 49.6321 3.60006C49.6211 3.55785 49.6307 3.56078 49.6192 3.57076C49.6068 3.58074 49.5928 3.58788 49.5786 3.59514C49.5474 3.60966 49.5131 3.61751 49.4823 3.63384C49.446 3.65291 49.4053 3.6579 49.3652 3.66471C49.3628 3.66518 49.3166 3.67288 49.3098 3.67378C49.3048 3.67446 49.2988 3.6721 49.2956 3.67535C49.2932 3.67739 49.303 3.67762 49.303 3.68034C49.3054 3.71619 49.3135 3.71511 49.3011 3.71465C49.3098 3.71117 49.299 3.71507 49.3126 3.7112C49.3305 3.70621 49.3479 3.70031 49.3649 3.69305C49.386 3.68442 49.4081 3.67322 49.4287 3.66414C49.4338 3.66198 49.4403 3.66379 49.4449 3.6614C49.4461 3.6622 49.4456 3.66101 49.4449 3.6614C49.4398 3.64915 49.43 3.63024 49.425 3.61844C49.425 3.61784 49.4257 3.61792 49.425 3.61844C49.424 3.61944 49.4262 3.6225 49.425 3.62334C49.4154 3.63105 49.4048 3.63877 49.3947 3.64649C49.3791 3.65919 49.363 3.67144 49.3462 3.68234C49.3426 3.6845 49.3389 3.68654 49.3352 3.68869C49.3328 3.69001 49.3293 3.69049 49.3293 3.69277C49.3288 3.69422 49.3329 3.69295 49.3343 3.69359C49.3379 3.69527 49.3416 3.69731 49.3453 3.69994C49.3459 3.69874 49.3477 3.7015 49.3453 3.69994C49.3429 3.69404 49.3454 3.68869 49.3462 3.68234C49.3499 3.67144 49.3566 3.66394 49.3621 3.65396C49.3645 3.65024 49.3708 3.64669 49.3694 3.64261C49.3635 3.63035 49.3501 3.62219 49.3405 3.6122C49.3309 3.61592 49.3217 3.62083 49.312 3.62536C49.307 3.62765 49.3024 3.62921 49.2983 3.63217C49.2923 3.63613 49.2785 3.63418 49.2794 3.64144C49.2807 3.65551 49.2956 3.66808 49.303 3.68034C49.3209 3.67722 49.3373 3.67256 49.3547 3.66802C49.3635 3.66598 49.3708 3.6643 49.3791 3.66258C49.3841 3.66149 49.3928 3.66426 49.3937 3.65933C49.395 3.6498 49.3864 3.64164 49.3827 3.63256C49.3852 3.63004 49.3924 3.62711 49.3901 3.62484C49.3876 3.62268 49.3855 3.63019 49.3827 3.63256C49.3791 3.6352 49.3733 3.63511 49.3696 3.63783C49.3672 3.63889 49.3623 3.63851 49.3623 3.64095C49.3756 3.68874 49.3696 3.69157 49.3857 3.68072C49.3995 3.6721 49.3983 3.67567 49.4144 3.66705C49.4181 3.66501 49.4292 3.66836 49.4287 3.66414C49.4251 3.61077 49.4213 3.6134 49.4025 3.62212C49.3965 3.62476 49.3887 3.62984 49.3827 3.63256C49.3754 3.63556 49.3696 3.63777 49.3623 3.64095C49.3563 3.64359 49.3456 3.63999 49.3437 3.64663C49.3387 3.6616 49.343 3.67839 49.3449 3.69401C49.3452 3.69593 49.3486 3.69233 49.3509 3.69185C49.3619 3.68848 49.3733 3.68788 49.3847 3.68561C49.3898 3.68481 49.3931 3.68315 49.3991 3.68219C49.4003 3.68185 49.4042 3.68244 49.4042 3.68062C49.4045 3.67518 49.4005 3.67018 49.4005 3.66428C49.4005 3.662 49.4056 3.65657 49.4042 3.65884C49.3991 3.66701 49.3954 3.67018 49.389 3.67745C49.384 3.68141 49.3803 3.68561 49.3762 3.68924C49.3702 3.69424 49.3481 3.70876 49.3408 3.71285C49.3372 3.71513 49.3289 3.71489 49.3298 3.7192C49.3322 3.73372 49.3391 3.75032 49.346 3.76303C49.3467 3.76435 49.3501 3.75825 49.3513 3.75728C49.3881 3.73278 49.4262 3.71076 49.4645 3.68916C49.4944 3.67645 49.4746 3.63696 49.4448 3.64957Z" fill="#800000"/>
<path d="M49.519 3.57602C49.5415 3.5556 49.5691 3.54198 49.5952 3.52696C49.6094 3.51788 49.6232 3.50835 49.6365 3.49837C49.6525 3.48748 49.6695 3.4784 49.6857 3.4675C49.7017 3.45661 49.7151 3.44209 49.7316 3.4312C49.7412 3.42258 49.7532 3.4194 49.7651 3.41532C49.7871 3.40851 49.8073 3.39761 49.8279 3.38763C49.8517 3.37628 49.8772 3.36766 49.9028 3.3604C49.9281 3.35359 49.9536 3.34905 49.9788 3.3427C49.9907 3.34017 49.9847 3.34125 49.9957 3.33933C50.0279 3.33343 50.0196 3.28891 49.987 3.29486C49.9742 3.29713 49.9811 3.29588 49.9673 3.29882C49.9416 3.30518 49.9154 3.31017 49.8898 3.31697C49.8614 3.32514 49.8332 3.33467 49.8066 3.34738C49.7878 3.35691 49.769 3.3669 49.7488 3.37325C49.7337 3.3787 49.7181 3.38369 49.7057 3.39413C49.6892 3.40547 49.6749 3.41909 49.6588 3.43089C49.6428 3.44269 49.6244 3.4504 49.6088 3.4622C49.5969 3.47128 49.5849 3.47945 49.5721 3.48807C49.5422 3.50486 49.5115 3.52075 49.4865 3.5443C49.4635 3.567 49.4961 3.59858 49.519 3.57602Z" fill="#800000"/>
<path d="M49.8405 3.3674C49.8736 3.3438 49.9091 3.32247 49.9428 3.29937C49.9584 3.28575 49.974 3.27214 49.9928 3.26215C50.0153 3.2499 50.04 3.24264 50.0648 3.23674C50.0864 3.23129 50.1084 3.2272 50.1303 3.22312C50.162 3.21677 50.1532 3.17238 50.1216 3.17864C50.0991 3.18309 50.0761 3.18727 50.0538 3.19271C50.0254 3.19998 49.9972 3.20814 49.9713 3.22221C49.9511 3.2331 49.9337 3.24672 49.9168 3.2617C49.8828 3.28484 49.8476 3.30617 49.8142 3.33C49.788 3.34861 49.8142 3.38623 49.8405 3.3674Z" fill="#800000"/>
<path d="M50.0878 3.14561C50.0649 3.15105 50.0428 3.15832 50.0201 3.16512C50.0031 3.17012 49.987 3.17783 49.9706 3.18463C49.9578 3.19053 49.9454 3.19734 49.9334 3.20415C49.9119 3.21504 49.8921 3.22775 49.8729 3.24227C49.8577 3.25226 49.8435 3.26315 49.8293 3.2745C49.8114 3.28811 49.7921 3.29901 49.7728 3.31081C49.7535 3.32261 49.7361 3.33668 49.718 3.34984C49.6896 3.37072 49.6566 3.38478 49.6265 3.40334C49.6067 3.41469 49.5884 3.42876 49.5697 3.44147C49.55 3.45554 49.5303 3.47052 49.5085 3.48141C49.4842 3.49412 49.4603 3.50682 49.4368 3.52044C49.424 3.52952 49.4075 3.53451 49.396 3.54585C49.3936 3.54862 49.3909 3.55175 49.3886 3.55493C49.379 3.56809 49.3735 3.58307 49.3666 3.59759C49.3579 3.61801 49.3446 3.63435 49.3317 3.65183C49.3134 3.67407 49.2918 3.69312 49.272 3.71373C49.261 3.72326 49.2518 3.73461 49.2426 3.7455C49.2219 3.77001 49.2573 3.79914 49.2779 3.77454C49.2867 3.76456 49.2949 3.75412 49.3055 3.74505C49.327 3.72281 49.35 3.70239 49.3694 3.67833C49.3836 3.65882 49.3992 3.63975 49.4084 3.61706C49.4144 3.60526 49.418 3.59346 49.4258 3.58257C49.4255 3.57981 49.4254 3.58186 49.4309 3.57813C49.4405 3.57041 49.4525 3.56678 49.4625 3.55952C49.485 3.5459 49.508 3.5341 49.5313 3.52185C49.5547 3.51005 49.5762 3.49462 49.5977 3.47919C49.616 3.46693 49.6335 3.45332 49.6528 3.44197C49.6836 3.42246 49.718 3.40839 49.7473 3.38651C49.7643 3.3738 49.7808 3.36064 49.799 3.34975C49.8192 3.33704 49.8403 3.32524 49.8594 3.31072C49.8736 3.29983 49.8874 3.28848 49.9025 3.27895C49.9195 3.26579 49.9383 3.25444 49.9576 3.24446C49.9687 3.23856 49.9797 3.2322 49.9907 3.22721C50.0054 3.22086 50.0196 3.21451 50.0348 3.20951C50.0568 3.20316 50.0784 3.1959 50.1008 3.19045C50.1325 3.18274 50.119 3.1378 50.0878 3.14561Z" fill="#800000"/>
<path d="M49.315 3.67455C49.3175 3.67167 49.321 3.66911 49.3238 3.66593C49.344 3.64415 49.3262 3.66149 49.3462 3.64052C49.3559 3.63008 49.3674 3.62009 49.3779 3.61056C49.3954 3.59649 49.4119 3.58197 49.4268 3.56563C49.4342 3.55565 49.4457 3.54929 49.4562 3.54203C49.4709 3.53386 49.4865 3.52796 49.5021 3.52161C49.5228 3.51253 49.5448 3.50709 49.5665 3.50028C49.5922 3.4912 49.6182 3.48484 49.6443 3.47849C49.6728 3.47123 49.7004 3.4617 49.7282 3.45262C49.7581 3.444 49.788 3.43765 49.818 3.43039C49.846 3.42403 49.8736 3.41541 49.9009 3.40588C49.9216 3.39816 49.9436 3.39272 49.9631 3.38228C49.9911 3.36639 49.9691 3.32695 49.9406 3.34279C49.937 3.34567 49.9397 3.34372 49.931 3.34688C49.9159 3.35278 49.9007 3.35777 49.8855 3.36276C49.8598 3.37184 49.8336 3.37956 49.8069 3.38591C49.7757 3.39317 49.7442 3.39998 49.7134 3.40905C49.6867 3.41768 49.6602 3.42675 49.6331 3.43401C49.606 3.44082 49.5789 3.44717 49.5524 3.45625C49.5295 3.46351 49.506 3.46941 49.4839 3.47894C49.4656 3.48666 49.4472 3.49347 49.43 3.50391C49.4167 3.51298 49.4029 3.52115 49.3928 3.53432C49.3786 3.54975 49.363 3.56291 49.3467 3.57652C49.3347 3.58742 49.3228 3.59831 49.3113 3.61011C49.2723 3.65141 49.3223 3.60012 49.2907 3.63371C49.2882 3.63671 49.2847 3.63961 49.2819 3.64233C49.259 3.66502 49.2921 3.69711 49.315 3.67455Z" fill="#800000"/>
<path d="M28.6995 24.9979L29.0484 27.6248L30.5244 24.1223L31.8125 21.8138L34.0668 17.8071L36.5894 13.9066L39.6488 9.84685L40.1319 9.3427L42.3593 7.14037L42.9497 6.45047L44.5062 5.0707L47.163 3.77052L49.2026 3.58476L49.3274 3.58332L49.4603 3.48012L49.5599 3.44744L49.8018 3.29263L49.9395 3.18943L50.0675 3.14255H50.1813L50.2667 3.17522L50.3331 3.25496L50.3712 3.32531L50.3662 3.39566L50.3139 3.54107L50.1004 3.79436L50.0954 3.80389L50.7358 4.0009L51.4664 4.2448L52.2492 4.50277L52.8042 4.75138L52.9988 4.8874L53.5728 4.76545L53.6155 4.74685L53.791 4.72824L54.014 4.71417L54.1421 4.7237L54.3651 4.75184L54.6497 4.86439L54.6022 4.84579L54.7445 4.96306L54.9865 5.27735L55.124 5.52124L55.181 5.67133L55.2191 5.53531L54.8918 4.63002L54.4031 3.83731L53.6725 3.00238L52.4762 2.34503L51.2015 2.09296L49.6584 2.02661L48.4105 2.17919L47.2162 2.47106L44.9486 3.33342L43.5397 4.28866L41.9563 5.46943L40.4266 7.19415L39.0445 8.73314L37.2331 10.9885L35.8912 12.7663L33.4823 16.4082L31.9262 18.9974L30.7687 21.0613L29.7439 23.219L28.6995 24.9979Z" fill="#008000"/>
<path d="M50.066 3.96051C50.2221 3.98547 50.3765 4.01888 50.5305 4.05418C50.6519 4.08323 50.7737 4.113 50.8909 4.1563C50.9431 4.17536 50.9746 4.19034 51.0253 4.21299C51.1502 4.27131 51.2749 4.33026 51.3995 4.38935C51.4169 4.39798 51.4343 4.4066 51.4521 4.41477C51.4935 4.43474 51.5068 4.44018 51.5462 4.4602C51.5992 4.48697 51.6514 4.5157 51.7042 4.54339C51.8064 4.59853 51.9103 4.65063 52.0142 4.70273C52.072 4.73178 52.1312 4.75783 52.1883 4.78778C52.2099 4.79913 52.2223 4.80684 52.2425 4.81955C52.2963 4.85359 52.3532 4.88186 52.4084 4.91354C52.447 4.93805 52.4882 4.95893 52.5285 4.98094C52.5336 4.98358 52.5382 4.98639 52.5428 4.98911C52.5538 4.99546 52.5639 5.00045 52.5744 5.00681C52.5868 5.01452 52.5988 5.02269 52.6107 5.03086C52.6249 5.04085 52.6346 5.0472 52.6511 5.06127C52.6475 5.05815 52.6438 5.05355 52.6392 5.05174C52.6355 5.05054 52.6488 5.06218 52.6465 5.05946C52.6355 5.04811 52.6392 5.05265 52.6309 5.04085C52.6297 5.03752 52.6273 5.03653 52.6309 5.04085C52.6369 5.05673 52.6395 5.06914 52.6445 5.08525C52.6482 5.09432 52.6505 5.10295 52.6519 5.11248C52.6523 5.11488 52.6516 5.11747 52.6516 5.11974C52.6517 5.12406 52.6518 5.12836 52.6519 5.1329C52.6528 5.18164 52.6523 5.23039 52.6483 5.279C52.6459 5.29488 52.6471 5.28671 52.6446 5.3035C52.5942 5.62051 53.0477 5.69104 53.0981 5.37403C53.104 5.33908 53.1005 5.35815 53.1068 5.31598C53.1118 5.24886 53.1141 5.18155 53.1118 5.1142C53.1106 5.08561 53.1106 5.07336 53.1068 5.04472C53.1017 5.01204 53.0939 4.97982 53.0838 4.94846C53.0728 4.91442 53.0618 4.88074 53.0471 4.8482C53.0398 4.83277 53.0352 4.82234 53.026 4.80736C53.0035 4.77014 52.9751 4.73787 52.9422 4.70928C52.9335 4.70202 52.9211 4.69249 52.9119 4.68568C52.9107 4.6848 52.9169 4.68977 52.9155 4.6888C52.8995 4.6761 52.8834 4.66293 52.8657 4.65204C52.8285 4.62753 52.791 4.60412 52.7517 4.58333C52.7145 4.56291 52.6763 4.54384 52.6403 4.52079C52.588 4.49083 52.5341 4.46383 52.4829 4.43179C52.4443 4.40864 52.4369 4.40365 52.3962 4.38228C52.3395 4.35278 52.2809 4.32645 52.2236 4.29795C52.1222 4.24707 52.0209 4.19629 51.9211 4.14242C51.8648 4.11292 51.8091 4.08246 51.7524 4.05383C51.7083 4.03159 51.7003 4.02841 51.6561 4.00726C51.6373 3.99819 51.6184 3.98911 51.5996 3.98003C51.4712 3.91908 51.3427 3.85826 51.2138 3.79836C51.1437 3.7675 51.1145 3.75343 51.0415 3.72688C50.9093 3.67868 50.7725 3.64419 50.6357 3.61187C50.47 3.5742 50.3037 3.53794 50.1357 3.51153C49.8147 3.46392 49.745 3.9129 50.066 3.96051Z" fill="#800000"/>
<path d="M50.1425 3.49099C50.1413 3.49081 50.1366 3.48981 50.1375 3.49045C50.1462 3.49406 50.1545 3.49681 50.1632 3.49998C50.1779 3.50543 50.1921 3.51043 50.2068 3.51542C50.2611 3.53448 50.3158 3.55218 50.3704 3.57033C50.426 3.58848 50.479 3.61299 50.5321 3.63714C50.5596 3.64939 50.587 3.66165 50.6144 3.6739C50.6923 3.70703 50.7679 3.74493 50.8435 3.78287C50.9353 3.83125 51.0282 3.87745 51.1211 3.92383C51.221 3.97303 51.3171 4.02931 51.4124 4.08658C51.499 4.13759 51.5823 4.19337 51.6633 4.25264C51.7203 4.29394 51.7758 4.33715 51.8342 4.37641C51.8484 4.38594 51.8631 4.39502 51.8773 4.40455C51.9452 4.44812 52.0166 4.4856 52.0878 4.52364C52.1414 4.55178 52.1939 4.58227 52.2475 4.61091C52.2819 4.63088 52.3166 4.6504 52.3496 4.67259C52.3556 4.67679 52.3895 4.70118 52.3932 4.7039C52.4364 4.73749 52.4778 4.77294 52.52 4.80775C52.5388 4.82499 52.5544 4.83725 52.5717 4.85222C52.5742 4.85402 52.5754 4.85558 52.5777 4.85767C52.5777 4.85839 52.5786 4.85858 52.5777 4.85767C52.5753 4.85514 52.5629 4.84177 52.562 4.84131C52.5619 4.84012 52.5609 4.84067 52.562 4.84131C52.5656 4.86355 52.5718 4.89071 52.5658 4.91304C52.5653 4.91532 52.5645 4.92302 52.5621 4.92575C52.5623 4.92538 52.5619 4.92609 52.5621 4.92575C52.5597 4.92911 52.5573 4.9327 52.5559 4.93633C52.5485 4.95131 52.5522 4.94677 52.5462 4.95313C52.5366 4.96356 52.5274 4.97355 52.5168 4.98308C52.5035 4.99533 52.5095 4.9917 52.4999 4.99715C52.4879 5.00305 52.4948 4.99931 52.4787 5.00895C52.2012 5.17537 52.4393 5.56342 52.7167 5.39703C52.7599 5.37116 52.7369 5.38569 52.7845 5.35301C52.7955 5.34393 52.8074 5.33485 52.8185 5.32532C52.8547 5.29401 52.8894 5.25634 52.9179 5.21817C52.9267 5.20682 52.934 5.19457 52.9418 5.18277C52.9491 5.16961 52.9569 5.1569 52.9638 5.14329C52.9946 5.08438 53.0148 5.02007 53.0223 4.95421C53.0233 4.94014 53.0247 4.92562 53.0259 4.91155C53.0283 4.83472 53.0149 4.75779 52.991 4.68499C52.9851 4.67002 52.98 4.65458 52.9727 4.63961C52.9488 4.59036 52.9161 4.54661 52.8742 4.51112C52.8526 4.49252 52.8356 4.4789 52.8145 4.45988C52.7651 4.41904 52.7164 4.37719 52.6652 4.33857C52.6395 4.31996 52.6229 4.30771 52.5963 4.29001C52.5541 4.26187 52.5097 4.23714 52.4659 4.2119C52.4123 4.18331 52.3597 4.15277 52.3059 4.12449C52.2461 4.09272 52.1857 4.06132 52.1284 4.02483C52.062 3.98217 51.9996 3.93451 51.9362 3.88795C51.8438 3.82046 51.7493 3.7572 51.6506 3.69892C51.5451 3.63561 51.4386 3.57352 51.3281 3.51906C51.2355 3.47282 51.1429 3.42675 51.0514 3.37855C50.9695 3.33725 50.8875 3.29645 50.8032 3.2605C50.7091 3.2183 50.6159 3.17382 50.5179 3.14096C50.4657 3.12326 50.4134 3.10647 50.3614 3.08854C50.338 3.08037 50.3154 3.07175 50.2923 3.06358C50.2795 3.05914 50.2666 3.05541 50.2538 3.05087C49.9389 2.97304 49.8277 3.41316 50.1425 3.49099Z" fill="#800000"/>
<path d="M49.6547 3.94223C49.6559 3.92861 49.6607 3.92408 49.6685 3.91364C49.6744 3.90638 49.6795 3.89866 49.685 3.89094C49.7089 3.86054 49.7079 3.86326 49.7346 3.83571C49.7714 3.80031 49.8118 3.76854 49.8498 3.73423C49.8649 3.72016 49.8801 3.70609 49.8952 3.69202C49.9273 3.66343 49.9563 3.63107 49.9862 3.60003C49.9898 3.59631 49.9935 3.59231 49.9972 3.58868C49.9968 3.58881 49.9975 3.58841 49.9972 3.58868C49.9984 3.58803 49.9994 3.58807 50.002 3.58699C50.013 3.57928 50.0227 3.56975 50.0346 3.56339C50.0553 3.55023 50.0773 3.54025 50.0998 3.53026C50.1095 3.52629 50.12 3.523 50.1301 3.51982C50.1338 3.51888 50.1444 3.51483 50.1494 3.51483C50.147 3.51539 50.1398 3.51627 50.1421 3.51651C50.148 3.51712 50.1545 3.51507 50.1604 3.51471C50.1664 3.51441 50.182 3.51503 50.1554 3.51503C50.1494 3.52456 50.1388 3.50686 50.132 3.51119C50.1308 3.51235 50.1356 3.51359 50.137 3.51479C50.1407 3.51695 50.143 3.51899 50.1467 3.52114C50.176 3.5393 50.1554 3.52614 50.1751 3.53884C50.1715 3.53987 50.1655 3.53113 50.1632 3.53158C50.1608 3.53193 50.1656 3.53459 50.1668 3.53603C50.1811 3.55327 50.1705 3.53963 50.1806 3.55327C50.1866 3.56416 50.193 3.57506 50.199 3.58595C50.2063 3.59684 50.21 3.60864 50.215 3.62089C50.3403 3.91694 50.7637 3.7418 50.6385 3.44575C50.6274 3.41852 50.6155 3.3912 50.6004 3.36579C50.5825 3.33447 50.5655 3.30288 50.5428 3.27456C50.5084 3.23145 50.4724 3.18915 50.4254 3.15874C50.3637 3.11926 50.3005 3.08054 50.227 3.06725C50.2109 3.06544 50.1949 3.0628 50.1789 3.0618C50.138 3.05904 50.0974 3.06492 50.0572 3.07042C50.007 3.08132 49.9578 3.09629 49.9106 3.11658C49.8651 3.137 49.8202 3.15924 49.7784 3.18652C49.7338 3.21647 49.6903 3.24865 49.6534 3.2875C49.63 3.31201 49.6074 3.33756 49.582 3.3603C49.5613 3.37936 49.5411 3.39842 49.5202 3.41675C49.4784 3.45306 49.4355 3.4881 49.3971 3.5279C49.3801 3.54651 49.3622 3.56466 49.346 3.58386C49.2784 3.66442 49.2219 3.75691 49.2029 3.86107C49.1448 4.17681 49.5966 4.25797 49.6547 3.94223Z" fill="#800000"/>
<path d="M28.6988 24.9964L28.6827 25.0114L29.0043 27.67L29.0508 27.6222L28.7055 24.9879L28.6988 24.9964Z" fill="#008000"/>
<path d="M21.2325 32.9948L21.2128 33.0107L21.2109 33.0149C21.211 33.0147 21.2108 33.0151 21.2109 33.0149C21.2107 33.0152 21.2082 33.0189 21.2081 33.0192C21.2083 33.0188 21.208 33.0193 21.2081 33.0192L21.5463 35.6661L21.5619 35.6439L21.2325 32.9948Z" fill="#008000"/>
</g>
<defs>
<clipPath id="clip0_603_3">
<rect width="56" height="59" fill="white"/>
</clipPath>
</defs>
</svg>
