<svg width="22" height="22" viewBox="0 0 22 22" fill="none" xmlns="http://www.w3.org/2000/svg">
<path d="M19.381 0H2.61905C1.1749 0 0 1.1749 0 2.61905V19.381C0 20.8251 1.1749 22 2.61905 22H19.381C20.8251 22 22 20.8251 22 19.381V2.61905C22 1.1749 20.8251 0 19.381 0ZM17.2889 9.59776C17.17 9.60876 17.0495 9.61609 16.9274 9.61609C15.5535 9.61609 14.3461 8.90948 13.6437 7.84143C13.6437 10.6433 13.6437 13.8312 13.6437 13.8846C13.6437 16.3512 11.6438 18.3511 9.17714 18.3511C6.71052 18.3511 4.71062 16.3512 4.71062 13.8846C4.71062 11.418 6.71052 9.41809 9.17714 9.41809C9.27038 9.41809 9.36152 9.42648 9.45319 9.43224V11.6333C9.36152 11.6223 9.27143 11.6055 9.17714 11.6055C7.91791 11.6055 6.89752 12.6259 6.89752 13.8851C6.89752 15.1444 7.91791 16.1648 9.17714 16.1648C10.4364 16.1648 11.5484 15.1727 11.5484 13.9134C11.5484 13.8637 11.5704 3.6499 11.5704 3.6499H13.674C13.872 5.53091 15.3906 7.01538 17.2889 7.15157V9.59776Z" fill="#1A1A1A"/>
</svg>
