<svg width="28" height="23" viewBox="0 0 28 23" fill="none" xmlns="http://www.w3.org/2000/svg">
<path d="M28 2.7195C26.9708 3.1845 25.8642 3.4945 24.6968 3.641C25.8838 2.9225 26.7968 1.7765 27.2253 0.4225C26.1148 1.0865 24.8846 1.574 23.5755 1.831C22.5301 0.701 21.0391 0 19.3873 0C16.214 0 13.6423 2.6 13.6423 5.8055C13.6423 6.259 13.6943 6.701 13.7924 7.13C9.01872 6.8855 4.78491 4.5715 1.95241 1.0595C1.45474 1.9175 1.17478 2.9225 1.17478 3.983C1.17478 5.9985 2.18677 7.7725 3.72977 8.818C2.78789 8.7885 1.90141 8.5215 1.12526 8.093C1.12526 8.1105 1.12526 8.1365 1.12526 8.161C1.12526 10.9775 3.1061 13.3225 5.7317 13.8565C5.25169 13.9905 4.74471 14.065 4.22204 14.065C3.85088 14.065 3.48952 14.022 3.13944 13.958C3.87049 16.2595 5.99156 17.942 8.50439 17.9915C6.53825 19.546 4.0622 20.477 1.36943 20.477C0.904127 20.477 0.449612 20.45 0 20.3945C2.54323 22.037 5.56401 23 8.80642 23C19.3721 23 25.1518 14.152 25.1518 6.4765C25.1518 6.225 25.144 5.9745 25.1322 5.727C26.2604 4.915 27.2322 3.89 28 2.7195Z" fill="#1A1A1A"/>
</svg>
