<?xml version="1.0" encoding="UTF-8" standalone="no"?>
<svg
   width="186"
   height="65"
   viewBox="0 0 186 65"
   fill="none"
   version="1.1"
   id="svg2068"
   sodipodi:docname="AWARDS-jewelleryMasterpiece.svg"
   inkscape:export-filename="AWARDS-jewelleryMasterpiece.svg"
   inkscape:export-xdpi="96"
   inkscape:export-ydpi="96"
   inkscape:version="1.2.2 (732a01da63, 2022-12-09)"
   xmlns:inkscape="http://www.inkscape.org/namespaces/inkscape"
   xmlns:sodipodi="http://sodipodi.sourceforge.net/DTD/sodipodi-0.dtd"
   xmlns="http://www.w3.org/2000/svg"
   xmlns:svg="http://www.w3.org/2000/svg">
  <defs
     id="defs2072" />
  <sodipodi:namedview
     id="namedview2070"
     pagecolor="#f97b7b"
     bordercolor="#000000"
     borderopacity="0"
     inkscape:showpageshadow="2"
     inkscape:pageopacity="0"
     inkscape:pagecheckerboard="0"
     inkscape:deskcolor="#d1d1d1"
     showgrid="false"
     inkscape:zoom="5.6568543"
     inkscape:cx="100.40916"
     inkscape:cy="12.197592"
     inkscape:window-width="1920"
     inkscape:window-height="1009"
     inkscape:window-x="-8"
     inkscape:window-y="-8"
     inkscape:window-maximized="1"
     inkscape:current-layer="svg2068" />
  <path
     fill-rule="evenodd"
     clip-rule="evenodd"
     d="M44.6417 65C34.2335 57.8783 23.7137 51.3963 13.5846 42.8836C2.42301 32.9521 -3.967 21.6297 2.72995 11.5312C7.86429 4.82677 15.4263 4.27039 20.5606 7.71998C24.5509 10.4741 28.1505 14.7583 31.5827 20.3221C34.3173 11.0583 40.4282 3.79746 48.2692 0.959886C52.9292 -0.931829 59.8494 -0.264165 63.1421 5.10497C68.0532 13.8402 59.3192 29.28 44.5022 46.055C47.6833 41.7152 50.0272 37.5423 52.6781 33.4251C60.5191 21.7131 65.5697 10.0012 55.2452 5.5779C44.4464 2.60123 34.094 10.8636 33.8987 18.7921C33.8708 21.2958 33.8429 25.3018 32.5872 25.5522C32.2803 21.0454 22.5697 12.3102 16.7657 11.0861C4.46 8.86058 1.55799 23.8274 13.5009 37.6814C21.4256 47.5016 36.6054 57.5722 44.6417 65Z"
     fill="white"
     id="path2008"
     style="fill:#000000" />
  <path
     d="M85.3536 7.7478C85.2978 8.30419 85.2699 8.86058 85.2699 9.38915C85.242 9.91771 85.242 10.3072 85.242 10.5854C85.242 10.8358 85.242 11.0861 85.2699 11.3087C85.2699 11.5312 85.2978 11.726 85.2978 11.8929H84.9072C84.7118 10.947 84.4886 10.1959 84.2375 9.63952C83.9584 9.08313 83.6515 8.72148 83.2608 8.47111C82.8702 8.24855 82.4237 8.10946 81.8656 8.10946H81.475V17.7906C81.475 18.2357 81.5308 18.5695 81.6145 18.8199C81.6982 19.0425 81.8935 19.2094 82.1447 19.265C82.3958 19.3485 82.7865 19.3763 83.2887 19.4041V19.7379C82.926 19.7379 82.4795 19.7101 81.8935 19.7101C81.3075 19.7101 80.7216 19.6823 80.1077 19.6823C79.4938 19.6823 78.9078 19.6823 78.3497 19.7101C77.7916 19.7101 77.3731 19.7379 77.0103 19.7379V19.4041C77.5126 19.4041 77.9033 19.3485 78.1544 19.265C78.4055 19.1816 78.6009 19.0425 78.6846 18.8199C78.7683 18.5973 78.8241 18.2635 78.8241 17.7906V8.13727H78.4055C77.8475 8.13727 77.401 8.24855 77.0103 8.49893C76.6197 8.72148 76.3127 9.11095 76.0337 9.66734C75.7547 10.2237 75.5314 10.947 75.364 11.9207H74.9734C75.0013 11.7538 75.0013 11.5591 75.0292 11.3365C75.0292 11.1139 75.0292 10.8636 75.0292 10.6132C75.0292 10.335 75.0291 9.94553 75.0012 9.41697C74.9733 8.8884 74.9454 8.33201 74.9175 7.77562C75.4198 7.77562 76.0058 7.80344 76.6197 7.80344C77.2336 7.80344 77.8475 7.83126 78.4613 7.83126H81.8098C82.4237 7.83126 83.0376 7.83126 83.6515 7.80344C84.2933 7.77562 84.8513 7.7478 85.3536 7.7478Z"
     fill="white"
     id="path2010"
     style="fill:#000000" />
  <path
     d="M89.8462 6.49593V12.3658C90.1252 11.7538 90.5159 11.3365 90.9902 11.1139C91.4646 10.8636 92.0227 10.7523 92.6366 10.7523C93.1109 10.7523 93.5016 10.8079 93.8085 10.9192C94.1155 11.0305 94.3387 11.1974 94.5061 11.3921C94.7015 11.6147 94.841 11.8929 94.9247 12.2267C95.0084 12.5605 95.0363 13.0335 95.0363 13.5899V18.1522C95.0363 18.6252 95.12 18.959 95.2874 19.1259C95.4549 19.2928 95.7339 19.3763 96.1246 19.3763V19.7379C95.9292 19.7379 95.5944 19.7101 95.1758 19.6823C94.7294 19.6545 94.3108 19.6545 93.9201 19.6545C93.5016 19.6545 93.083 19.6545 92.6645 19.6823C92.2459 19.7101 91.939 19.7101 91.7157 19.7379V19.3763C92.0785 19.3763 92.3017 19.2928 92.4412 19.1259C92.5807 18.959 92.6366 18.6252 92.6366 18.1522V12.9222C92.6366 12.6162 92.6087 12.3658 92.5529 12.1711C92.497 11.9485 92.3854 11.7816 92.2459 11.6703C92.0785 11.5591 91.8552 11.4756 91.5762 11.4756C91.1018 11.4756 90.6833 11.6703 90.3484 12.032C90.0136 12.4215 89.8462 12.8944 89.8462 13.5064V18.1801C89.8462 18.653 89.9299 18.9868 90.0694 19.1537C90.2089 19.3206 90.4601 19.4041 90.7949 19.4041V19.7658C90.5996 19.7658 90.2926 19.7379 89.902 19.7101C89.5113 19.6823 89.1207 19.6823 88.7021 19.6823C88.2835 19.6823 87.8371 19.6823 87.3906 19.7101C86.9442 19.7379 86.6093 19.7379 86.3861 19.7658V19.4041C86.7767 19.4041 87.0558 19.3206 87.2232 19.1537C87.3906 18.9868 87.4743 18.653 87.4743 18.1801V8.52675C87.4743 8.026 87.3906 7.63653 87.2232 7.38615C87.0558 7.13578 86.7767 7.0245 86.3582 7.0245V6.66285C86.7209 6.69067 87.0837 6.71849 87.4185 6.71849C87.8929 6.71849 88.3114 6.69067 88.73 6.66285C89.1486 6.63503 89.5113 6.57939 89.8462 6.49593Z"
     fill="white"
     id="path2012"
     style="fill:#000000" />
  <path
     d="M101.51 10.7523C102.515 10.7523 103.296 11.0583 103.854 11.6425C104.412 12.2267 104.719 13.2004 104.719 14.5079H99.0545L99.0266 14.1741H102.57C102.598 13.6177 102.57 13.1169 102.487 12.644C102.403 12.1711 102.263 11.8094 102.096 11.5034C101.929 11.2252 101.677 11.0861 101.398 11.0861C101.008 11.0861 100.673 11.3365 100.366 11.8372C100.087 12.338 99.9195 13.1726 99.8358 14.3132L99.8916 14.4244C99.8916 14.5635 99.8637 14.7026 99.8637 14.8696C99.8637 15.0087 99.8637 15.1756 99.8637 15.3425C99.8637 16.1214 99.9753 16.7613 100.199 17.262C100.422 17.7628 100.701 18.1244 101.036 18.3192C101.371 18.5417 101.733 18.653 102.096 18.653C102.459 18.653 102.822 18.5695 103.24 18.4026C103.631 18.2357 104.021 17.8462 104.356 17.2898L104.663 17.4011C104.552 17.8184 104.328 18.2357 104.021 18.6252C103.714 19.0146 103.352 19.3485 102.905 19.6267C102.459 19.877 101.901 20.0161 101.259 20.0161C100.505 20.0161 99.8358 19.8492 99.2219 19.5154C98.6359 19.1816 98.1616 18.6808 97.8267 18.0131C97.4919 17.3455 97.3244 16.4831 97.3244 15.4816C97.3244 14.4523 97.4919 13.562 97.8546 12.8666C98.2174 12.1711 98.6917 11.6425 99.3335 11.2809C100.003 10.9192 100.701 10.7523 101.51 10.7523Z"
     fill="white"
     id="path2014"
     style="fill:#000000" />
  <path
     d="M109.574 22.9372V22.6033C110.021 22.5755 110.411 22.4364 110.746 22.2139C111.081 21.9913 111.304 21.6018 111.5 21.0733C111.667 20.5447 111.751 19.7936 111.751 18.8199V9.52824C111.751 9.11095 111.723 8.80494 111.667 8.6102C111.611 8.41547 111.472 8.27637 111.304 8.19291C111.109 8.10946 110.858 8.08164 110.495 8.05382V7.71998C110.774 7.71998 111.137 7.7478 111.583 7.7478C112.03 7.7478 112.532 7.77562 113.034 7.77562C113.537 7.77562 114.011 7.77562 114.513 7.7478C114.988 7.7478 115.378 7.71998 115.685 7.71998V8.05382C115.322 8.05382 115.043 8.10946 114.876 8.19291C114.681 8.27637 114.569 8.41547 114.513 8.6102C114.457 8.80494 114.43 9.11095 114.43 9.52824V15.732C114.43 16.2049 114.43 16.7056 114.43 17.2342C114.43 17.7628 114.402 18.2913 114.374 18.7921C114.346 19.2928 114.262 19.7658 114.151 20.1552C113.927 20.9342 113.425 21.6018 112.7 22.1304C111.862 22.6868 110.858 22.9372 109.574 22.9372Z"
     fill="white"
     id="path2016"
     style="fill:#000000" />
  <path
     d="M120.931 10.7523C121.936 10.7523 122.717 11.0583 123.275 11.6425C123.833 12.2267 124.14 13.2004 124.14 14.5079H118.504L118.476 14.1741H122.019C122.047 13.6177 122.019 13.1169 121.936 12.644C121.852 12.1711 121.713 11.8094 121.545 11.5034C121.378 11.2252 121.127 11.0861 120.847 11.0861C120.457 11.0861 120.122 11.3365 119.815 11.8372C119.536 12.338 119.369 13.1726 119.285 14.3132L119.341 14.4244C119.341 14.5635 119.313 14.7026 119.313 14.8696C119.313 15.0087 119.313 15.1756 119.313 15.3425C119.313 16.1214 119.424 16.7613 119.648 17.262C119.871 17.7628 120.15 18.1244 120.485 18.3192C120.82 18.5417 121.182 18.653 121.545 18.653C121.908 18.653 122.271 18.5695 122.689 18.4026C123.08 18.2357 123.47 17.8462 123.805 17.2898L124.112 17.4011C124.001 17.8184 123.777 18.2357 123.47 18.6252C123.164 19.0146 122.801 19.3485 122.354 19.6267C121.908 19.877 121.35 20.0161 120.708 20.0161C119.955 20.0161 119.285 19.8492 118.671 19.5154C118.085 19.1816 117.611 18.6808 117.276 18.0131C116.941 17.3455 116.773 16.4831 116.773 15.4816C116.773 14.4523 116.941 13.562 117.304 12.8666C117.666 12.1711 118.141 11.6425 118.783 11.2809C119.424 10.9192 120.122 10.7523 120.931 10.7523Z"
     fill="white"
     id="path2018"
     style="fill:#000000" />
  <path
     d="M129.33 10.9748V11.3365C129.079 11.3365 128.856 11.3643 128.661 11.3921C128.493 11.42 128.354 11.5034 128.298 11.6425C128.242 11.7816 128.242 12.0042 128.354 12.3102L130 17.3455L129.777 17.568L131.814 10.947L132.176 11.0861L129.526 19.7658C129.358 19.7658 129.191 19.7379 128.995 19.7379C128.828 19.7379 128.633 19.7379 128.465 19.7658L125.786 12.2545C125.619 11.8094 125.452 11.5312 125.256 11.4478C125.061 11.3643 124.921 11.3087 124.81 11.3087V10.947C125.173 10.9748 125.535 11.0027 125.898 11.0305C126.289 11.0583 126.707 11.0583 127.154 11.0583C127.517 11.0583 127.879 11.0583 128.27 11.0305C128.633 11.0305 128.995 11.0027 129.33 10.9748ZM138.26 10.9748V11.3087C138.036 11.3643 137.841 11.5034 137.646 11.6982C137.45 11.8929 137.255 12.2545 137.115 12.7553L134.827 19.7936C134.66 19.7936 134.493 19.7658 134.297 19.7658C134.102 19.7658 133.934 19.7658 133.767 19.7936L131.339 13.256L131.786 10.9748C131.981 10.9748 132.176 11.0027 132.372 10.9748C132.567 10.9748 132.762 10.9748 132.986 10.9748L135.33 17.8184L135.134 17.6515L136.306 13.9515C136.585 13.0613 136.613 12.3936 136.39 12.0042C136.167 11.5869 135.776 11.3643 135.19 11.3365V11.0027C135.385 11.0027 135.581 11.0305 135.776 11.0305C135.999 11.0305 136.195 11.0305 136.39 11.0583C136.585 11.0583 136.753 11.0583 136.92 11.0583C137.171 11.0583 137.395 11.0583 137.646 11.0305C137.925 11.0027 138.12 11.0027 138.26 10.9748Z"
     fill="white"
     id="path2020"
     style="fill:#000000" />
  <path
     d="M143.143 10.7523C144.147 10.7523 144.929 11.0583 145.487 11.6425C146.045 12.2267 146.352 13.2004 146.352 14.5079H140.715L140.687 14.1741H144.231C144.259 13.6177 144.231 13.1169 144.147 12.644C144.064 12.1711 143.924 11.8094 143.757 11.5034C143.589 11.2252 143.338 11.0861 143.059 11.0861C142.668 11.0861 142.334 11.3365 142.027 11.8372C141.748 12.338 141.58 13.1726 141.496 14.3132L141.552 14.4244C141.552 14.5635 141.524 14.7026 141.524 14.8696C141.524 15.0087 141.524 15.1756 141.524 15.3425C141.524 16.1214 141.636 16.7613 141.859 17.262C142.082 17.7628 142.361 18.1244 142.696 18.3192C143.031 18.5417 143.394 18.653 143.757 18.653C144.119 18.653 144.482 18.5695 144.901 18.4026C145.291 18.2357 145.682 17.8462 146.017 17.2898L146.324 17.4011C146.212 17.8184 145.989 18.2357 145.682 18.6252C145.375 19.0146 145.012 19.3485 144.566 19.6267C144.119 19.877 143.561 20.0161 142.92 20.0161C142.166 20.0161 141.496 19.8492 140.883 19.5154C140.297 19.1816 139.822 18.6808 139.487 18.0131C139.152 17.3455 138.985 16.4831 138.985 15.4816C138.985 14.4523 139.152 13.562 139.515 12.8666C139.878 12.1711 140.352 11.6425 140.994 11.2809C141.636 10.9192 142.334 10.7523 143.143 10.7523Z"
     fill="white"
     id="path2022"
     style="fill:#000000" />
  <path
     d="M151.095 6.46811V18.1801C151.095 18.653 151.179 18.9868 151.347 19.1537C151.514 19.3206 151.793 19.4041 152.212 19.4041V19.7658C151.988 19.7658 151.681 19.7379 151.263 19.7101C150.844 19.6823 150.398 19.6823 149.951 19.6823C149.533 19.6823 149.086 19.6823 148.64 19.7101C148.193 19.7379 147.859 19.7379 147.635 19.7658V19.4041C148.026 19.4041 148.305 19.3206 148.472 19.1537C148.64 18.9868 148.724 18.653 148.724 18.1801V8.49893C148.724 7.99818 148.64 7.60871 148.5 7.35833C148.361 7.10796 148.054 6.99668 147.635 6.99668V6.66285C147.998 6.69067 148.361 6.71849 148.696 6.71849C149.17 6.71849 149.589 6.69067 150.007 6.66285C150.37 6.60721 150.761 6.55157 151.095 6.46811Z"
     fill="white"
     id="path2024"
     style="fill:#000000" />
  <path
     d="M175.104 10.7523C175.467 10.7523 175.774 10.8358 175.997 10.9748C176.22 11.1139 176.387 11.3087 176.499 11.5591C176.611 11.8094 176.666 12.032 176.666 12.2824C176.666 12.6996 176.555 13.0335 176.304 13.2839C176.053 13.562 175.746 13.6733 175.355 13.6733C174.964 13.6733 174.657 13.562 174.434 13.3673C174.211 13.1726 174.099 12.8944 174.099 12.5884C174.099 12.2824 174.183 12.032 174.323 11.8372C174.462 11.6425 174.629 11.4756 174.853 11.3365C174.713 11.2809 174.546 11.2809 174.406 11.3087C174.099 11.3643 173.82 11.5034 173.569 11.7538C173.318 12.0042 173.151 12.2824 173.011 12.6162C172.872 12.95 172.816 13.256 172.816 13.5899V18.0131C172.816 18.5695 172.955 18.9312 173.206 19.1259C173.485 19.3206 173.876 19.4041 174.434 19.4041V19.7658C174.183 19.7658 173.792 19.7379 173.29 19.7101C172.788 19.6823 172.258 19.6823 171.727 19.6823C171.281 19.6823 170.807 19.6823 170.36 19.7101C169.914 19.7379 169.551 19.7379 169.328 19.7658V19.4041C169.718 19.4041 169.997 19.3206 170.165 19.1537C170.332 18.9868 170.416 18.653 170.416 18.1801V12.8387C170.416 12.338 170.332 11.9485 170.193 11.6982C170.053 11.4478 169.746 11.3365 169.328 11.3365V10.9748C169.69 11.0027 170.053 11.0305 170.388 11.0305C170.835 11.0305 171.281 11.0027 171.672 10.9748C172.09 10.947 172.453 10.8636 172.816 10.8079V12.4215C172.955 12.1154 173.123 11.8372 173.346 11.5869C173.569 11.3365 173.82 11.1418 174.127 10.9748C174.406 10.8079 174.741 10.7523 175.104 10.7523Z"
     fill="white"
     id="path2026"
     style="fill:#000000" />
  <path
     d="M185.847 10.9748V11.3087C185.624 11.3643 185.428 11.5034 185.233 11.6982C185.038 11.8929 184.87 12.2545 184.675 12.7553L182.247 19.5154L181.633 20.6282L177.95 12.2824C177.755 11.8372 177.559 11.5591 177.364 11.4756C177.169 11.3921 177.001 11.3365 176.89 11.3365V10.9748C177.252 11.0027 177.643 11.0305 178.034 11.0583C178.424 11.0861 178.815 11.0861 179.178 11.0861C179.624 11.0861 180.043 11.0861 180.433 11.0583C180.824 11.0305 181.187 11.0027 181.522 11.0027V11.3643C181.271 11.3643 181.075 11.3921 180.88 11.42C180.685 11.4478 180.545 11.5312 180.461 11.6703C180.378 11.8094 180.406 12.032 180.545 12.3658L182.694 17.5124L182.554 17.6237L183.866 13.9793C184.173 13.0891 184.228 12.4493 184.005 12.032C183.782 11.6147 183.419 11.3921 182.861 11.3365V11.0027C183.112 11.0027 183.391 11.0305 183.698 11.0305C184.005 11.0305 184.256 11.0583 184.48 11.0583C184.703 11.0583 184.954 11.0583 185.177 11.0305C185.484 11.0027 185.679 11.0027 185.847 10.9748ZM182.275 19.5154L181.605 21.3236C181.41 21.9078 181.159 22.2973 180.88 22.5199C180.713 22.659 180.489 22.7702 180.266 22.8259C180.015 22.9093 179.736 22.9372 179.401 22.9372C179.122 22.9372 178.843 22.8815 178.564 22.7981C178.285 22.7146 178.062 22.5755 177.866 22.353C177.671 22.1582 177.587 21.9078 177.587 21.574C177.587 21.2402 177.699 20.962 177.95 20.7673C178.201 20.5725 178.508 20.4612 178.927 20.4612C179.289 20.4612 179.596 20.5447 179.82 20.7116C180.043 20.8785 180.154 21.1567 180.154 21.4906C180.154 21.7131 180.099 21.9078 179.959 22.1026C179.82 22.2973 179.624 22.4364 179.345 22.5477C179.401 22.5477 179.457 22.5755 179.541 22.5755H179.708C180.043 22.5755 180.35 22.4642 180.601 22.2417C180.852 22.0191 181.075 21.6853 181.243 21.2124L181.857 19.4876L182.275 19.5154Z"
     fill="white"
     id="path2028"
     style="fill:#000000" />
  <path
     d="M89.6229 28.1116V28.4454C89.2602 28.4454 89.009 28.501 88.8137 28.5845C88.6184 28.6679 88.5068 28.807 88.451 29.0018C88.3952 29.1965 88.3673 29.5025 88.3673 29.9198V38.3491C88.3673 38.7664 88.3952 39.0724 88.4789 39.2671C88.5347 39.4618 88.6742 39.6009 88.8416 39.6844C89.009 39.74 89.2881 39.7957 89.6508 39.8235V40.1573C89.3439 40.1295 88.9532 40.1295 88.4789 40.1017C88.0045 40.1017 87.5022 40.1017 87.0279 40.1017C86.4977 40.1017 85.9954 40.1017 85.521 40.1017C85.0467 40.1017 84.656 40.1295 84.377 40.1573V39.8235C84.7676 39.7957 85.0467 39.7679 85.242 39.6844C85.4373 39.6288 85.5769 39.4897 85.6327 39.2671C85.6885 39.0724 85.7443 38.7664 85.7443 38.3491V29.1409L85.8838 29.1687L81.6424 40.1852H81.3634L76.7592 29.1965V37.3754C76.7592 37.9874 76.7871 38.4604 76.8708 38.7664C76.9266 39.1002 77.0941 39.3228 77.3173 39.4618C77.5405 39.6009 77.9033 39.7122 78.4055 39.7679V40.1017C78.1823 40.0739 77.9033 40.0739 77.5684 40.0461C77.2336 40.0461 76.8987 40.0461 76.5918 40.0461C76.3127 40.0461 76.0337 40.0461 75.7826 40.0461C75.5035 40.0461 75.2803 40.0739 75.1129 40.1017V39.7679C75.4756 39.7122 75.7547 39.6288 75.95 39.4897C76.1453 39.3506 76.2569 39.128 76.3127 38.8498C76.3685 38.5438 76.3964 38.1265 76.3964 37.598V29.9198C76.3964 29.5025 76.3685 29.1965 76.3127 29.0018C76.2569 28.807 76.1174 28.6679 75.95 28.5845C75.7547 28.501 75.4756 28.4732 75.1129 28.4454V28.1116C75.3082 28.1116 75.5314 28.1394 75.7826 28.1394C76.0616 28.1394 76.3406 28.1672 76.5918 28.1672C77.0661 28.1672 77.5405 28.1672 77.987 28.1394C78.4334 28.1394 78.852 28.1116 79.1868 28.1116L82.7865 36.819L82.3679 37.1807L85.828 28.1394H87C87.5022 28.1394 87.9766 28.1394 88.451 28.1116C88.9253 28.1394 89.316 28.1116 89.6229 28.1116Z"
     fill="white"
     id="path2030"
     style="fill:#000000" />
  <path
     d="M93.1109 40.2408C92.3575 40.2408 91.8273 40.0461 91.4646 39.6566C91.1297 39.2671 90.9344 38.7942 90.9344 38.21C90.9344 37.737 91.046 37.3198 91.2693 37.0137C91.4925 36.7077 91.7994 36.4574 92.1343 36.2626C92.497 36.0679 92.8598 35.901 93.2505 35.7619C93.6411 35.6228 94.0039 35.5115 94.3666 35.3724C94.7294 35.2333 95.0084 35.0942 95.2316 34.9273C95.4549 34.7604 95.5665 34.5378 95.5665 34.2875V32.9799C95.5665 32.6739 95.5107 32.3957 95.427 32.1732C95.3432 31.9506 95.1758 31.7559 94.9805 31.6446C94.7852 31.5333 94.5061 31.4499 94.1992 31.4499C93.976 31.4499 93.7527 31.4777 93.5016 31.5333C93.2784 31.589 93.083 31.7003 92.9156 31.8672C93.2225 31.9784 93.4737 32.1454 93.669 32.3679C93.8364 32.5905 93.9201 32.8687 93.9201 33.1469C93.9201 33.5363 93.7806 33.8423 93.5295 34.0371C93.2784 34.2596 92.9435 34.3709 92.5807 34.3709C92.1901 34.3709 91.8831 34.2596 91.6599 34.0093C91.4367 33.7589 91.353 33.4529 91.353 33.119C91.353 32.7852 91.4367 32.507 91.6041 32.3123C91.7715 32.0897 91.9948 31.895 92.3017 31.7281C92.6087 31.5333 92.9714 31.3942 93.4458 31.283C93.8922 31.1717 94.3666 31.1439 94.8968 31.1439C95.427 31.1439 95.8734 31.1995 96.292 31.3108C96.7105 31.4221 97.0454 31.6168 97.3523 31.895C97.6035 32.1454 97.7709 32.4792 97.8546 32.8408C97.9383 33.2303 97.9662 33.7032 97.9662 34.2596V38.9055C97.9662 39.1837 97.9941 39.3784 98.0499 39.4897C98.1057 39.6009 98.2174 39.6566 98.3569 39.6566C98.4685 39.6566 98.5801 39.6288 98.6917 39.5731C98.7754 39.5175 98.887 39.434 98.9987 39.3506L99.1661 39.6288C98.915 39.8235 98.6638 39.9904 98.3569 40.1017C98.0499 40.213 97.7151 40.2686 97.3244 40.2686C96.6547 40.2686 96.2083 40.1295 95.985 39.8513C95.7618 39.5731 95.6502 39.2393 95.6223 38.8776C95.3153 39.3506 94.9805 39.7122 94.5619 39.9348C94.1434 40.1295 93.669 40.2408 93.1109 40.2408ZM94.3945 39.1837C94.6177 39.1837 94.8131 39.128 95.0084 39.0167C95.2037 38.9055 95.399 38.7107 95.5665 38.4604V34.9829C95.427 35.2055 95.2316 35.4002 94.9805 35.5393C94.7294 35.6784 94.4782 35.8453 94.2271 36.0401C93.976 36.207 93.7527 36.4295 93.5853 36.7077C93.4179 36.9859 93.3063 37.3476 93.3063 37.8205C93.3063 38.2934 93.4179 38.6551 93.6132 38.8776C93.8085 39.0724 94.0876 39.1837 94.3945 39.1837Z"
     fill="white"
     id="path2032"
     style="fill:#000000" />
  <path
     d="M103.324 31.116C103.798 31.116 104.217 31.1717 104.579 31.3108C104.942 31.4221 105.193 31.5612 105.333 31.6446C105.724 31.9228 105.975 31.7559 106.058 31.1439H106.421C106.393 31.4499 106.393 31.8393 106.365 32.3123C106.365 32.7574 106.337 33.3694 106.337 34.1205H105.975C105.919 33.7032 105.807 33.286 105.64 32.8965C105.472 32.507 105.249 32.1732 104.942 31.895C104.635 31.6446 104.245 31.5055 103.77 31.5055C103.435 31.5055 103.156 31.589 102.933 31.7837C102.71 31.9784 102.598 32.2566 102.598 32.5905C102.598 32.9243 102.71 33.2303 102.905 33.4807C103.101 33.7311 103.38 33.9814 103.687 34.204C104.021 34.4265 104.356 34.6769 104.691 34.9551C105.277 35.3724 105.751 35.7897 106.142 36.207C106.533 36.6243 106.728 37.1807 106.728 37.8483C106.728 38.3769 106.589 38.822 106.282 39.1837C105.975 39.5453 105.584 39.8513 105.11 40.0461C104.635 40.2408 104.105 40.3521 103.491 40.3521C103.156 40.3521 102.877 40.3242 102.598 40.2686C102.347 40.213 102.124 40.1295 101.929 40.0182C101.761 39.9348 101.622 39.8791 101.51 39.7957C101.398 39.74 101.259 39.6844 101.147 39.6288C101.036 39.6009 100.924 39.6288 100.84 39.74C100.757 39.8513 100.701 40.0182 100.645 40.213H100.282C100.31 39.8513 100.31 39.4062 100.338 38.8776C100.338 38.3491 100.366 37.6536 100.366 36.819H100.729C100.785 37.431 100.924 37.9596 101.091 38.4325C101.259 38.9055 101.51 39.2671 101.845 39.5453C102.152 39.8235 102.57 39.9348 103.045 39.9348C103.352 39.9348 103.631 39.8513 103.882 39.6566C104.133 39.4618 104.273 39.1558 104.273 38.7107C104.273 38.21 104.105 37.7927 103.77 37.4589C103.435 37.125 103.017 36.7634 102.515 36.4017C102.152 36.0957 101.789 35.8175 101.454 35.5393C101.119 35.2611 100.868 34.9551 100.645 34.5935C100.422 34.2596 100.338 33.8423 100.338 33.3972C100.338 32.8965 100.478 32.4514 100.757 32.1175C101.036 31.7837 101.398 31.5055 101.817 31.3386C102.347 31.1995 102.822 31.116 103.324 31.116Z"
     fill="white"
     id="path2034"
     style="fill:#000000" />
  <path
     d="M111.583 28.5567V31.3386H113.62V31.6724H111.583V38.516C111.583 38.8776 111.639 39.128 111.779 39.2671C111.918 39.4062 112.086 39.4897 112.337 39.4897C112.56 39.4897 112.755 39.4062 112.979 39.2393C113.174 39.0724 113.369 38.7942 113.537 38.4047L113.816 38.5438C113.62 39.0724 113.369 39.4897 112.979 39.8235C112.616 40.1573 112.114 40.3242 111.472 40.3242C111.109 40.3242 110.774 40.2686 110.495 40.1852C110.216 40.1017 109.993 39.9348 109.798 39.74C109.546 39.4897 109.379 39.1837 109.295 38.822C109.212 38.4604 109.156 37.9874 109.156 37.3754V31.7003H107.733V31.3664H109.156V29.1131C109.63 29.1131 110.049 29.0574 110.439 28.974C110.858 28.8627 111.249 28.7514 111.583 28.5567Z"
     fill="white"
     id="path2036"
     style="fill:#000000" />
  <path
     d="M118.81 31.116C119.815 31.116 120.596 31.4221 121.154 32.0063C121.713 32.5905 122.019 33.5641 122.019 34.8717H116.383L116.355 34.5378H119.899C119.927 33.9814 119.899 33.4807 119.815 33.0078C119.731 32.5348 119.592 32.1732 119.424 31.8672C119.257 31.589 119.006 31.4499 118.727 31.4499C118.336 31.4499 118.001 31.7003 117.694 32.201C117.415 32.7018 117.248 33.5363 117.164 34.6769L117.22 34.7882C117.22 34.9273 117.192 35.0664 117.192 35.2333C117.192 35.3724 117.192 35.5393 117.192 35.7062C117.192 36.4852 117.304 37.125 117.527 37.6258C117.75 38.1265 118.029 38.4882 118.364 38.6829C118.699 38.9055 119.062 39.0167 119.424 39.0167C119.787 39.0167 120.15 38.9333 120.568 38.7664C120.959 38.5994 121.35 38.21 121.685 37.6536L121.992 37.7649C121.88 38.1822 121.657 38.5994 121.35 38.9889C121.043 39.3784 120.68 39.7122 120.234 39.9904C119.787 40.2408 119.229 40.3799 118.587 40.3799C117.834 40.3799 117.164 40.213 116.55 39.8791C115.964 39.5453 115.49 39.0446 115.155 38.3769C114.82 37.7092 114.653 36.8468 114.653 35.8453C114.653 34.816 114.82 33.9258 115.183 33.2303C115.546 32.5348 116.02 32.0063 116.662 31.6446C117.332 31.283 118.029 31.116 118.81 31.116Z"
     fill="white"
     id="path2038"
     style="fill:#000000" />
  <path
     d="M129.079 31.116C129.442 31.116 129.749 31.1995 129.972 31.3386C130.195 31.4777 130.363 31.6724 130.474 31.9228C130.586 32.1732 130.642 32.3957 130.642 32.6461C130.642 33.0634 130.53 33.3972 130.279 33.6476C130.028 33.9258 129.721 34.0371 129.33 34.0371C128.94 34.0371 128.633 33.9258 128.409 33.7311C128.186 33.5363 128.075 33.2581 128.075 32.9521C128.075 32.6461 128.158 32.3957 128.298 32.201C128.437 32.0063 128.605 31.8394 128.828 31.7003C128.688 31.6446 128.521 31.6446 128.382 31.6724C128.075 31.7281 127.796 31.8672 127.544 32.1175C127.293 32.3679 127.126 32.6461 126.986 32.9799C126.847 33.3138 126.791 33.6198 126.791 33.9536V38.3769C126.791 38.9333 126.931 39.2949 127.182 39.4897C127.461 39.6844 127.851 39.7679 128.409 39.7679V40.1295C128.158 40.1295 127.768 40.1017 127.265 40.0739C126.763 40.0461 126.233 40.0461 125.703 40.0461C125.256 40.0461 124.782 40.0461 124.335 40.0739C123.889 40.1017 123.526 40.1017 123.303 40.1295V39.7679C123.694 39.7679 123.973 39.6844 124.14 39.5175C124.308 39.3506 124.391 39.0167 124.391 38.5438V33.2025C124.391 32.7018 124.308 32.3123 124.168 32.0619C124.029 31.8115 123.722 31.7003 123.303 31.7003V31.3386C123.666 31.3664 124.029 31.3942 124.363 31.3942C124.81 31.3942 125.256 31.3664 125.647 31.3386C126.066 31.3108 126.428 31.2273 126.791 31.1717V32.7852C126.931 32.4792 127.098 32.201 127.321 31.9506C127.544 31.7003 127.796 31.5055 128.103 31.3386C128.382 31.1717 128.716 31.116 129.079 31.116Z"
     fill="white"
     id="path2040"
     style="fill:#000000" />
  <path
     d="M134.939 31.1717V41.5205C134.939 42.049 135.079 42.4107 135.358 42.5776C135.637 42.7445 135.999 42.828 136.474 42.828V43.1896C136.195 43.1896 135.804 43.1618 135.274 43.134C134.772 43.1062 134.213 43.1062 133.628 43.1062C133.209 43.1062 132.818 43.1062 132.4 43.134C132.009 43.1618 131.702 43.1618 131.479 43.1896V42.828C131.842 42.828 132.121 42.7445 132.288 42.5776C132.456 42.4107 132.539 42.1047 132.539 41.6596V33.1747C132.539 32.6739 132.456 32.2845 132.288 32.0341C132.121 31.7837 131.842 31.6724 131.423 31.6724V31.3108C131.786 31.3386 132.149 31.3664 132.483 31.3664C132.958 31.3664 133.376 31.3386 133.795 31.3108C134.241 31.3108 134.604 31.2273 134.939 31.1717ZM137.59 31.116C138.455 31.116 139.18 31.4777 139.766 32.1732C140.352 32.8687 140.631 33.9258 140.631 35.3446C140.631 36.4295 140.464 37.3198 140.157 38.0987C139.822 38.8498 139.376 39.4062 138.79 39.7957C138.204 40.1852 137.506 40.3799 136.697 40.3799C136.25 40.3799 135.832 40.2964 135.469 40.1295C135.106 39.9626 134.827 39.74 134.632 39.4618L134.799 39.2115C134.911 39.434 135.079 39.6009 135.302 39.7122C135.525 39.8235 135.776 39.8791 136.055 39.8791C136.585 39.8791 136.976 39.7122 137.283 39.3506C137.59 39.0167 137.785 38.516 137.925 37.8761C138.036 37.2363 138.12 36.4852 138.12 35.6228C138.12 34.6491 138.064 33.898 137.953 33.3416C137.841 32.7852 137.674 32.3957 137.422 32.1454C137.199 31.895 136.92 31.7837 136.613 31.7837C136.195 31.7837 135.804 31.9506 135.469 32.2845C135.134 32.6183 134.939 33.0912 134.883 33.7032L134.799 33.1469C134.995 32.4792 135.33 31.9784 135.832 31.6168C136.334 31.283 136.92 31.116 137.59 31.116Z"
     fill="white"
     id="path2042"
     style="fill:#000000" />
  <path
     d="M145.542 31.1717V38.5438C145.542 39.0167 145.626 39.3506 145.794 39.5175C145.961 39.6844 146.24 39.7679 146.659 39.7679V40.1295C146.435 40.1295 146.128 40.1017 145.71 40.0739C145.291 40.0461 144.845 40.0461 144.398 40.0461C143.952 40.0461 143.506 40.0461 143.059 40.0739C142.613 40.1017 142.278 40.1017 142.055 40.1295V39.7679C142.445 39.7679 142.724 39.6844 142.892 39.5175C143.059 39.3506 143.143 39.0167 143.143 38.5438V33.2025C143.143 32.7018 143.059 32.3123 142.92 32.0619C142.78 31.8115 142.473 31.7003 142.055 31.7003V31.3386C142.417 31.3664 142.78 31.3942 143.115 31.3942C143.561 31.3942 144.008 31.3664 144.398 31.3386C144.789 31.3108 145.208 31.2273 145.542 31.1717ZM144.231 26.971C144.705 26.971 145.068 27.0822 145.347 27.3326C145.626 27.5552 145.766 27.889 145.766 28.2785C145.766 28.6679 145.626 29.0018 145.347 29.2243C145.068 29.4469 144.705 29.5582 144.231 29.5582C143.757 29.5582 143.394 29.4469 143.115 29.2243C142.836 29.0018 142.696 28.6679 142.696 28.2785C142.696 27.8612 142.836 27.5552 143.115 27.3326C143.394 27.0822 143.785 26.971 144.231 26.971Z"
     fill="white"
     id="path2044"
     style="fill:#000000" />
  <path
     d="M152.1 31.116C153.104 31.116 153.886 31.4221 154.444 32.0063C155.002 32.5905 155.309 33.5641 155.309 34.8717H149.672L149.644 34.5378H153.188C153.216 33.9814 153.188 33.4807 153.104 33.0078C153.021 32.5348 152.881 32.1732 152.714 31.8672C152.546 31.589 152.295 31.4499 152.016 31.4499C151.626 31.4499 151.291 31.7003 150.984 32.201C150.705 32.7018 150.537 33.5363 150.454 34.6769L150.509 34.7882C150.509 34.9273 150.481 35.0664 150.481 35.2333C150.481 35.3724 150.481 35.5393 150.481 35.7062C150.481 36.4852 150.593 37.125 150.816 37.6258C151.04 38.1265 151.319 38.4882 151.653 38.6829C151.988 38.9055 152.351 39.0167 152.714 39.0167C153.077 39.0167 153.439 38.9333 153.858 38.7664C154.249 38.5994 154.639 38.21 154.974 37.6536L155.281 37.7649C155.169 38.1822 154.946 38.5994 154.639 38.9889C154.332 39.3784 153.969 39.7122 153.523 39.9904C153.077 40.2408 152.518 40.3799 151.877 40.3799C151.123 40.3799 150.454 40.213 149.84 39.8791C149.254 39.5453 148.779 39.0446 148.445 38.3769C148.11 37.7092 147.942 36.8468 147.942 35.8453C147.942 34.816 148.11 33.9258 148.472 33.2303C148.835 32.5348 149.31 32.0063 149.951 31.6446C150.593 31.283 151.319 31.116 152.1 31.116Z"
     fill="white"
     id="path2046"
     style="fill:#000000" />
  <path
     d="M161.057 31.116C161.504 31.116 161.894 31.1717 162.285 31.2551C162.648 31.3386 162.955 31.4777 163.206 31.6446C163.513 31.8115 163.736 32.0341 163.903 32.2845C164.071 32.5627 164.154 32.8408 164.154 33.2025C164.154 33.592 164.043 33.9258 163.792 34.1762C163.541 34.4265 163.234 34.5378 162.843 34.5378C162.452 34.5378 162.117 34.4265 161.894 34.204C161.671 33.9814 161.559 33.6754 161.559 33.3138C161.559 32.9521 161.671 32.6739 161.894 32.4236C162.117 32.1732 162.369 32.0341 162.648 31.9506C162.564 31.8394 162.424 31.7281 162.229 31.6446C162.034 31.5612 161.838 31.5333 161.587 31.5333C161.225 31.5333 160.918 31.6446 160.666 31.8394C160.387 32.0341 160.164 32.3123 159.997 32.6739C159.801 33.0356 159.662 33.4529 159.578 33.9536C159.494 34.4544 159.439 34.9829 159.439 35.5671C159.439 36.4574 159.55 37.1528 159.774 37.6536C159.997 38.1543 160.276 38.516 160.639 38.7107C160.973 38.9333 161.364 39.0167 161.727 39.0167C162.034 39.0167 162.396 38.9333 162.815 38.7385C163.234 38.5438 163.596 38.1822 163.959 37.598L164.266 37.7092C164.154 38.1265 163.931 38.516 163.652 38.9333C163.373 39.3506 163.01 39.6844 162.564 39.9626C162.117 40.2408 161.559 40.3521 160.918 40.3521C160.192 40.3521 159.522 40.1852 158.908 39.8791C158.323 39.5453 157.848 39.0446 157.485 38.3769C157.123 37.7092 156.955 36.8468 156.955 35.7897C156.955 34.7604 157.151 33.9258 157.513 33.2303C157.876 32.5348 158.378 32.0063 159.02 31.6446C159.662 31.283 160.248 31.116 161.057 31.116Z"
     fill="white"
     id="path2048"
     style="fill:#000000" />
  <path
     d="M169.791 31.116C170.796 31.116 171.577 31.4221 172.135 32.0063C172.693 32.5905 173 33.5641 173 34.8717H167.363L167.336 34.5378H170.879C170.907 33.9814 170.879 33.4807 170.796 33.0078C170.712 32.5348 170.572 32.1732 170.405 31.8672C170.238 31.589 169.986 31.4499 169.707 31.4499C169.317 31.4499 168.982 31.7003 168.675 32.201C168.396 32.7018 168.228 33.5363 168.145 34.6769L168.201 34.7882C168.201 34.9273 168.173 35.0664 168.173 35.2333C168.173 35.3724 168.173 35.5393 168.173 35.7062C168.173 36.4852 168.284 37.125 168.507 37.6258C168.731 38.1265 169.01 38.4882 169.345 38.6829C169.679 38.9055 170.042 39.0167 170.405 39.0167C170.768 39.0167 171.13 38.9333 171.549 38.7664C171.94 38.5994 172.33 38.21 172.665 37.6536L172.972 37.7649C172.86 38.1822 172.637 38.5994 172.33 38.9889C172.023 39.3784 171.661 39.7122 171.214 39.9904C170.768 40.2408 170.21 40.3799 169.568 40.3799C168.814 40.3799 168.145 40.213 167.531 39.8791C166.945 39.5453 166.47 39.0446 166.136 38.3769C165.801 37.7092 165.633 36.8468 165.633 35.8453C165.633 34.816 165.801 33.9258 166.164 33.2303C166.526 32.5348 167.001 32.0063 167.642 31.6446C168.284 31.283 169.01 31.116 169.791 31.116Z"
     fill="white"
     id="path2050"
     style="fill:#000000" />
  <path
     d="M80.6937 48.4475L84.8234 59.0745C84.9909 59.4918 85.1583 59.77 85.3536 59.9091C85.549 60.0482 85.7443 60.1316 85.8838 60.1594V60.4933C85.549 60.4655 85.1583 60.4655 84.7118 60.4376C84.2654 60.4376 83.8189 60.4376 83.3445 60.4376C82.8423 60.4376 82.34 60.4376 81.8935 60.4376C81.4471 60.4376 81.0564 60.4655 80.8053 60.4933V60.1594C81.3913 60.1316 81.754 60.0482 81.8935 59.8534C82.0331 59.6865 82.0051 59.297 81.7819 58.7128L78.8799 50.7843L79.1868 50.367L76.5639 57.1549C76.2569 57.9617 76.1174 58.6016 76.1174 59.0188C76.1174 59.4361 76.2569 59.7421 76.536 59.8812C76.815 60.0203 77.1778 60.1316 77.6242 60.1316V60.4655C77.2615 60.4376 76.8987 60.4376 76.5639 60.4098C76.229 60.4098 75.8663 60.4098 75.5314 60.4098C75.2803 60.4098 75.0571 60.4098 74.8338 60.4098C74.6106 60.4098 74.4153 60.4376 74.2478 60.4655V60.1316C74.499 60.076 74.7501 59.9369 75.0012 59.6865C75.2524 59.4361 75.4756 58.991 75.7268 58.379L79.6054 48.4475C79.7728 48.4475 79.9682 48.4753 80.1635 48.4753C80.3309 48.4475 80.5262 48.4475 80.6937 48.4475ZM81.9493 55.5971V55.9309H76.8708L77.0382 55.5971H81.9493Z"
     fill="white"
     id="path2052"
     style="fill:#000000" />
  <path
     d="M90.5996 51.7024V52.064C90.3484 52.064 90.1252 52.0918 89.9299 52.1196C89.7624 52.1475 89.6229 52.2309 89.5671 52.37C89.5113 52.5091 89.5113 52.7317 89.6229 53.0377L91.2693 58.073L91.046 58.2955L93.083 51.6745L93.4458 51.8136L90.7949 60.4933C90.6275 60.4933 90.4601 60.4655 90.2647 60.4655C90.0973 60.4655 89.902 60.4655 89.7346 60.4933L87.0558 52.982C86.8883 52.5369 86.7209 52.2587 86.5256 52.1753C86.3303 52.0918 86.1907 52.0362 86.0791 52.0362V51.6745C86.4419 51.7024 86.8046 51.7302 87.1674 51.758C87.558 51.7858 87.9766 51.7858 88.4231 51.7858C88.7858 51.7858 89.1486 51.7858 89.5392 51.758C89.902 51.758 90.2647 51.7302 90.5996 51.7024ZM99.5288 51.7024V52.0362C99.3056 52.0918 99.1103 52.2309 98.915 52.4257C98.7196 52.6204 98.5243 52.982 98.3848 53.4828L96.0966 60.5211C95.9292 60.5211 95.7618 60.4933 95.5665 60.4933C95.3711 60.4933 95.2037 60.4933 95.0363 60.5211L92.6087 53.9835L93.0551 51.7024C93.2505 51.7024 93.4458 51.7302 93.6411 51.7024C93.8364 51.7024 94.0318 51.7024 94.255 51.7024L96.5989 58.5459L96.4036 58.379L97.5756 54.679C97.8546 53.7888 97.8825 53.1211 97.6593 52.7317C97.4361 52.3144 97.0454 52.0918 96.4594 52.064V51.7302C96.6268 51.7302 96.8501 51.758 97.0454 51.758C97.2686 51.758 97.464 51.758 97.6593 51.7858C97.8546 51.7858 98.022 51.7858 98.1895 51.7858C98.4406 51.7858 98.6638 51.7858 98.915 51.758C99.1661 51.7302 99.3614 51.7302 99.5288 51.7024Z"
     fill="white"
     id="path2054"
     style="fill:#000000" />
  <path
     d="M102.319 60.6045C101.566 60.6045 101.036 60.4098 100.673 60.0203C100.338 59.6309 100.143 59.1579 100.143 58.5737C100.143 58.1008 100.254 57.6835 100.478 57.3775C100.701 57.0715 101.008 56.8211 101.343 56.6264C101.705 56.4316 102.068 56.2647 102.459 56.1256C102.849 55.9865 103.212 55.8753 103.575 55.7362C103.938 55.5971 104.217 55.458 104.44 55.2911C104.663 55.1241 104.775 54.9016 104.775 54.6512V53.3437C104.775 53.0377 104.719 52.7595 104.635 52.5369C104.552 52.3144 104.384 52.1196 104.189 52.0084C103.993 51.8971 103.714 51.8136 103.407 51.8136C103.184 51.8136 102.961 51.8415 102.71 51.8971C102.487 51.9527 102.291 52.064 102.124 52.2309C102.431 52.3422 102.682 52.5091 102.877 52.7317C103.045 52.9542 103.128 53.2324 103.128 53.5106C103.128 53.9001 102.989 54.2061 102.738 54.4008C102.487 54.6234 102.152 54.7347 101.789 54.7347C101.398 54.7347 101.091 54.6234 100.868 54.373C100.645 54.1226 100.561 53.8166 100.561 53.4828C100.561 53.149 100.645 52.8708 100.812 52.676C100.98 52.4535 101.203 52.2587 101.51 52.0918C101.817 51.8971 102.18 51.758 102.654 51.6467C103.101 51.5354 103.575 51.5076 104.105 51.5076C104.635 51.5076 105.082 51.5633 105.5 51.6745C105.919 51.7858 106.254 51.9805 106.561 52.2587C106.812 52.5091 106.979 52.843 107.063 53.2046C107.147 53.5941 107.175 54.067 107.175 54.6234V59.2414C107.175 59.5196 107.202 59.7143 107.258 59.8256C107.314 59.9369 107.426 59.9925 107.565 59.9925C107.677 59.9925 107.788 59.9647 107.9 59.9091C107.984 59.8534 108.095 59.77 108.207 59.6865L108.374 59.9647C108.123 60.1594 107.872 60.3264 107.565 60.4376C107.258 60.5489 106.923 60.6045 106.533 60.6045C105.863 60.6045 105.417 60.4655 105.193 60.1873C104.97 59.9091 104.859 59.5752 104.831 59.2136C104.524 59.6865 104.189 60.0482 103.77 60.2707C103.38 60.4933 102.877 60.6045 102.319 60.6045ZM103.631 59.5474C103.854 59.5474 104.049 59.4918 104.245 59.3805C104.44 59.2692 104.635 59.0745 104.803 58.8241V55.3467C104.663 55.5692 104.468 55.764 104.217 55.9031C103.966 56.0422 103.714 56.2091 103.463 56.4038C103.212 56.5707 102.989 56.7933 102.822 57.0715C102.654 57.3497 102.542 57.7113 102.542 58.1843C102.542 58.6572 102.654 59.0188 102.849 59.2414C103.045 59.4361 103.296 59.5474 103.631 59.5474Z"
     fill="white"
     id="path2056"
     style="fill:#000000" />
  <path
     d="M115.016 51.4798C115.378 51.4798 115.685 51.5633 115.908 51.7024C116.132 51.8415 116.299 52.0362 116.411 52.2866C116.522 52.5369 116.578 52.7595 116.578 53.0099C116.578 53.4272 116.467 53.761 116.215 54.0114C115.964 54.2896 115.657 54.4008 115.267 54.4008C114.876 54.4008 114.569 54.2896 114.346 54.0948C114.123 53.9001 114.011 53.6219 114.011 53.3159C114.011 53.0099 114.095 52.7595 114.234 52.5648C114.374 52.37 114.541 52.2031 114.764 52.064C114.625 52.0084 114.457 52.0084 114.318 52.0362C114.011 52.0918 113.732 52.2309 113.481 52.4813C113.23 52.7317 113.062 53.0099 112.923 53.3437C112.783 53.6775 112.727 53.9835 112.727 54.3174V58.7407C112.727 59.297 112.867 59.6587 113.118 59.8534C113.397 60.0482 113.788 60.1316 114.346 60.1316V60.4933C114.095 60.4933 113.704 60.4655 113.202 60.4376C112.7 60.4098 112.169 60.4098 111.639 60.4098C111.193 60.4098 110.718 60.4098 110.272 60.4376C109.825 60.4655 109.463 60.4655 109.239 60.4933V60.1316C109.63 60.1316 109.909 60.0482 110.077 59.8812C110.244 59.7143 110.328 59.3805 110.328 58.9076V53.5663C110.328 53.0655 110.244 52.676 110.104 52.4257C109.965 52.1753 109.658 52.064 109.239 52.064V51.7024C109.602 51.7302 109.965 51.758 110.3 51.758C110.746 51.758 111.193 51.7302 111.583 51.7024C112.002 51.6745 112.365 51.5911 112.727 51.5354V53.149C112.867 52.843 113.034 52.5648 113.258 52.3144C113.481 52.064 113.732 51.8693 114.039 51.7024C114.346 51.5354 114.653 51.4798 115.016 51.4798Z"
     fill="white"
     id="path2058"
     style="fill:#000000" />
  <path
     d="M121.266 51.4798C121.768 51.4798 122.215 51.5633 122.605 51.7302C122.996 51.8971 123.275 52.1753 123.498 52.5648L123.303 52.7595C123.164 52.4813 122.968 52.2587 122.717 52.1475C122.466 52.0084 122.187 51.9527 121.908 51.9527C121.322 51.9527 120.847 52.2866 120.513 52.982C120.178 53.6497 120.01 54.7068 120.01 56.0978C120.01 57.0715 120.066 57.8226 120.206 58.4068C120.345 58.991 120.541 59.4083 120.792 59.6587C121.043 59.9091 121.322 60.0203 121.657 60.0203C122.047 60.0203 122.382 59.8534 122.717 59.5474C123.024 59.2414 123.191 58.7963 123.247 58.2677L123.331 58.8241C123.164 59.4361 122.884 59.9091 122.494 60.2429C122.103 60.5767 121.601 60.7158 120.959 60.7158C120.289 60.7158 119.703 60.5489 119.173 60.2151C118.643 59.8812 118.225 59.3805 117.945 58.685C117.639 57.9895 117.499 57.1271 117.499 56.0422C117.499 55.0129 117.666 54.1505 118.001 53.4828C118.336 52.8151 118.783 52.2866 119.369 51.9527C119.899 51.6467 120.541 51.4798 121.266 51.4798ZM125.563 47.1956V58.6294C125.563 59.1301 125.647 59.5196 125.814 59.77C125.982 60.0203 126.261 60.1316 126.679 60.1316V60.4933C126.317 60.4655 125.982 60.4376 125.619 60.4376C125.173 60.4376 124.726 60.4655 124.335 60.4933C123.917 60.5211 123.554 60.5767 123.191 60.688V49.2264C123.191 48.7257 123.108 48.3362 122.968 48.0858C122.829 47.8355 122.522 47.7242 122.103 47.7242V47.3625C122.466 47.3904 122.829 47.4182 123.164 47.4182C123.638 47.4182 124.056 47.3904 124.475 47.3625C124.838 47.3347 125.2 47.2791 125.563 47.1956Z"
     fill="white"
     id="path2060"
     style="fill:#000000" />
  <path
     d="M131.088 51.4798C131.563 51.4798 131.981 51.5354 132.344 51.6745C132.707 51.8136 132.958 51.9249 133.097 52.0084C133.488 52.2866 133.739 52.1196 133.823 51.5076H134.186C134.158 51.8136 134.158 52.2031 134.13 52.676C134.13 53.1211 134.102 53.7332 134.102 54.4843H133.739C133.683 54.067 133.572 53.6497 133.404 53.2602C133.237 52.8708 133.014 52.5369 132.707 52.2587C132.4 52.0084 132.009 51.8693 131.535 51.8693C131.2 51.8693 130.921 51.9527 130.698 52.1475C130.474 52.3422 130.363 52.6204 130.363 52.9542C130.363 53.2881 130.474 53.5941 130.67 53.8444C130.865 54.0948 131.144 54.3452 131.451 54.5677C131.786 54.7903 132.121 55.0407 132.456 55.3189C133.042 55.7362 133.516 56.1535 133.907 56.5707C134.297 56.988 134.493 57.5444 134.493 58.2121C134.493 58.7407 134.353 59.1858 134.046 59.5474C133.739 59.9091 133.348 60.2151 132.874 60.4098C132.4 60.6045 131.842 60.7158 131.256 60.7158C130.921 60.7158 130.642 60.688 130.363 60.6324C130.112 60.5767 129.888 60.4933 129.693 60.382C129.526 60.2985 129.386 60.2429 129.274 60.1594C129.163 60.1038 129.023 60.0482 128.912 59.9925C128.8 59.9647 128.688 59.9925 128.605 60.1038C128.521 60.2151 128.465 60.382 128.409 60.5767H128.047C128.075 60.2151 128.075 59.77 128.103 59.2414C128.103 58.7128 128.13 58.0173 128.13 57.1828H128.493C128.549 57.7948 128.688 58.3234 128.856 58.7963C129.023 59.2692 129.274 59.6309 129.609 59.9091C129.916 60.1873 130.335 60.2985 130.809 60.2985C131.116 60.2985 131.395 60.2151 131.646 60.0203C131.897 59.8256 132.037 59.5196 132.037 59.0745C132.037 58.5737 131.87 58.1564 131.535 57.8226C131.2 57.4888 130.781 57.1271 130.279 56.7655C129.916 56.4595 129.554 56.1813 129.219 55.9031C128.884 55.6249 128.633 55.3189 128.409 54.9572C128.186 54.6234 128.103 54.2061 128.103 53.761C128.103 53.2602 128.242 52.8151 128.521 52.4813C128.8 52.1475 129.163 51.8693 129.581 51.7024C130.084 51.5633 130.558 51.4798 131.088 51.4798Z"
     fill="white"
     id="path2062"
     style="fill:#000000" />
  <path
     d="M157.095 6.46811V18.1801C157.095 18.653 157.179 18.9868 157.347 19.1537C157.514 19.3206 157.793 19.4041 158.212 19.4041V19.7658C157.988 19.7658 157.681 19.7379 157.263 19.7101C156.844 19.6823 156.398 19.6823 155.951 19.6823C155.533 19.6823 155.086 19.6823 154.64 19.7101C154.193 19.7379 153.859 19.7379 153.635 19.7658V19.4041C154.026 19.4041 154.305 19.3206 154.472 19.1537C154.64 18.9868 154.724 18.653 154.724 18.1801V8.49893C154.724 7.99818 154.64 7.60871 154.5 7.35833C154.361 7.10796 154.054 6.99668 153.635 6.99668V6.66285C153.998 6.69067 154.361 6.71849 154.696 6.71849C155.17 6.71849 155.589 6.69067 156.007 6.66285C156.37 6.60721 156.761 6.55157 157.095 6.46811Z"
     fill="white"
     id="path2064"
     style="fill:#000000" />
  <path
     d="M164.143 10.7523C165.147 10.7523 165.929 11.0583 166.487 11.6425C167.045 12.2267 167.352 13.2004 167.352 14.5079H161.715L161.687 14.1741H165.231C165.259 13.6177 165.231 13.1169 165.147 12.644C165.064 12.1711 164.924 11.8094 164.757 11.5034C164.589 11.2252 164.338 11.0861 164.059 11.0861C163.668 11.0861 163.334 11.3365 163.027 11.8372C162.748 12.338 162.58 13.1726 162.496 14.3132L162.552 14.4244C162.552 14.5635 162.524 14.7026 162.524 14.8696C162.524 15.0087 162.524 15.1756 162.524 15.3425C162.524 16.1214 162.636 16.7613 162.859 17.262C163.082 17.7628 163.361 18.1244 163.696 18.3192C164.031 18.5417 164.394 18.653 164.757 18.653C165.119 18.653 165.482 18.5695 165.901 18.4026C166.291 18.2357 166.682 17.8462 167.017 17.2898L167.324 17.4011C167.212 17.8184 166.989 18.2357 166.682 18.6252C166.375 19.0146 166.012 19.3485 165.566 19.6267C165.119 19.877 164.561 20.0161 163.92 20.0161C163.166 20.0161 162.496 19.8492 161.883 19.5154C161.297 19.1816 160.822 18.6808 160.487 18.0131C160.152 17.3455 159.985 16.4831 159.985 15.4816C159.985 14.4523 160.152 13.562 160.515 12.8666C160.878 12.1711 161.352 11.6425 161.994 11.2809C162.636 10.9192 163.334 10.7523 164.143 10.7523Z"
     fill="white"
     id="path2066"
     style="fill:#000000" />
</svg>
